<?xml version="1.0" encoding="UTF-8" standalone="no"?>
<!-- Created with Inkscape (http://www.inkscape.org/) -->

<svg
   xmlns:dc="http://purl.org/dc/elements/1.1/"
   xmlns:cc="http://creativecommons.org/ns#"
   xmlns:rdf="http://www.w3.org/1999/02/22-rdf-syntax-ns#"
   xmlns:svg="http://www.w3.org/2000/svg"
   xmlns="http://www.w3.org/2000/svg"
   xmlns:sodipodi="http://sodipodi.sourceforge.net/DTD/sodipodi-0.dtd"
   xmlns:inkscape="http://www.inkscape.org/namespaces/inkscape"
   version="1.1"
   id="svg3713"
   xml:space="preserve"
   width="337.5"
   height="121.5"
   viewBox="0 0 337.5 121.5"
   sodipodi:docname="ASUCLA_Logo_StyleGuide.svg"
   inkscape:version="0.92.4 (5da689c313, 2019-01-14)"><metadata
     id="metadata3719"><rdf:RDF><cc:Work
         rdf:about=""><dc:format>image/svg+xml</dc:format><dc:type
           rdf:resource="http://purl.org/dc/dcmitype/StillImage" /><dc:title /></cc:Work></rdf:RDF></metadata><defs
     id="defs3717"><linearGradient
       x1="0"
       y1="0"
       x2="1"
       y2="0"
       gradientUnits="userSpaceOnUse"
       gradientTransform="matrix(262.67706,-151.65668,151.65668,262.67709,155.3999,566)"
       spreadMethod="pad"
       id="linearGradient3745"><stop
         style="stop-opacity:1;stop-color:#ffffff"
         offset="0"
         id="stop3735" /><stop
         style="stop-opacity:1;stop-color:#ffffff"
         offset="0"
         id="stop3737" /><stop
         style="stop-opacity:1;stop-color:#ffffff"
         offset="0"
         id="stop3739" /><stop
         style="stop-opacity:1;stop-color:#fbc20c"
         offset="0.50352974"
         id="stop3741" /><stop
         style="stop-opacity:1;stop-color:#fbc20c"
         offset="1"
         id="stop3743" /></linearGradient><linearGradient
       x1="0"
       y1="0"
       x2="1"
       y2="0"
       gradientUnits="userSpaceOnUse"
       gradientTransform="matrix(-76.050865,0,0,-76.050865,257.5249,631.75)"
       spreadMethod="pad"
       id="linearGradient3775"><stop
         style="stop-opacity:1;stop-color:#479cdc"
         offset="0"
         id="stop3765" /><stop
         style="stop-opacity:1;stop-color:#479cdc"
         offset="0.198337"
         id="stop3767" /><stop
         style="stop-opacity:1;stop-color:#26489b"
         offset="0.75198331"
         id="stop3769" /><stop
         style="stop-opacity:1;stop-color:#26489b"
         offset="0.790124"
         id="stop3771" /><stop
         style="stop-opacity:1;stop-color:#26489b"
         offset="1"
         id="stop3773" /></linearGradient><clipPath
       clipPathUnits="userSpaceOnUse"
       id="clipPath3785"><path
         d="M 0,792 H 612 V 0 H 0 Z"
         id="path3783"
         inkscape:connector-curvature="0" /></clipPath><linearGradient
       x1="0"
       y1="0"
       x2="1"
       y2="0"
       gradientUnits="userSpaceOnUse"
       gradientTransform="matrix(-76.050865,0,0,-76.050865,257.5249,494.5)"
       spreadMethod="pad"
       id="linearGradient3907"><stop
         style="stop-opacity:1;stop-color:#479cdc"
         offset="0"
         id="stop3897" /><stop
         style="stop-opacity:1;stop-color:#479cdc"
         offset="0.198337"
         id="stop3899" /><stop
         style="stop-opacity:1;stop-color:#26489b"
         offset="0.75198331"
         id="stop3901" /><stop
         style="stop-opacity:1;stop-color:#26489b"
         offset="0.790124"
         id="stop3903" /><stop
         style="stop-opacity:1;stop-color:#26489b"
         offset="1"
         id="stop3905" /></linearGradient><clipPath
       clipPathUnits="userSpaceOnUse"
       id="clipPath3917"><path
         d="M 0,792 H 612 V 0 H 0 Z"
         id="path3915"
         inkscape:connector-curvature="0" /></clipPath><linearGradient
       x1="0"
       y1="0"
       x2="1"
       y2="0"
       gradientUnits="userSpaceOnUse"
       gradientTransform="matrix(253.125,0,0,-253.125,160.57471,332.53027)"
       spreadMethod="pad"
       id="linearGradient4039"><stop
         style="stop-opacity:1;stop-color:#479cdc"
         offset="0"
         id="stop4029" /><stop
         style="stop-opacity:1;stop-color:#479cdc"
         offset="0.198337"
         id="stop4031" /><stop
         style="stop-opacity:1;stop-color:#26489b"
         offset="0.75198331"
         id="stop4033" /><stop
         style="stop-opacity:1;stop-color:#26489b"
         offset="0.790124"
         id="stop4035" /><stop
         style="stop-opacity:1;stop-color:#26489b"
         offset="1"
         id="stop4037" /></linearGradient><linearGradient
       x1="0"
       y1="0"
       x2="1"
       y2="0"
       gradientUnits="userSpaceOnUse"
       gradientTransform="matrix(262.67706,-151.65668,151.65668,262.67709,154.3999,408.5)"
       spreadMethod="pad"
       id="linearGradient4065"><stop
         style="stop-opacity:1;stop-color:#479cdc"
         offset="0"
         id="stop4055" /><stop
         style="stop-opacity:1;stop-color:#479cdc"
         offset="0.198337"
         id="stop4057" /><stop
         style="stop-opacity:1;stop-color:#26489b"
         offset="0.75198331"
         id="stop4059" /><stop
         style="stop-opacity:1;stop-color:#26489b"
         offset="0.790124"
         id="stop4061" /><stop
         style="stop-opacity:1;stop-color:#26489b"
         offset="1"
         id="stop4063" /></linearGradient><clipPath
       clipPathUnits="userSpaceOnUse"
       id="clipPath4217"><path
         d="M 0,792 H 612 V 0 H 0 Z"
         id="path4215"
         inkscape:connector-curvature="0" /></clipPath><clipPath
       clipPathUnits="userSpaceOnUse"
       id="clipPath4241"><path
         d="m 181.453,335.195 c 0,-19.144 17.034,-34.666 38.046,-34.666 v 0 c 21.011,0 38.044,15.522 38.044,34.666 v 0 c 0,1.137 -0.066,2.26 -0.184,3.37 v 0 c -2.619,0 -4.748,-2.118 -4.764,-4.737 v 0 c -0.004,-0.443 -0.011,-0.793 -0.023,-0.975 v 0 c -1.204,-17.214 -15.544,-30.806 -33.062,-30.812 v 0 c -18.3,-0.006 -33.168,14.86 -33.166,33.159 v 0 c 0,18.307 14.845,33.152 33.155,33.152 v 0 c 11.496,0 21.624,-5.856 27.57,-14.745 v 0 c 0.994,-1.486 -0.106,-3.476 -1.895,-3.427 v 0 c -8.889,0.246 -14.033,0.473 -16.488,0.025 v 0 c -1.489,-0.271 -2.918,-0.739 -4.221,-1.533 v 0 c -1.069,-0.65 -1.96,-1.479 -2.603,-2.566 v 0 c -0.521,-0.885 -0.833,-1.843 -0.941,-2.854 v 0 c -0.077,-0.728 -0.108,-1.473 0.031,-2.201 v 0 c 0.279,-1.483 1.073,-2.643 2.272,-3.541 v 0 c 1.371,-1.028 2.957,-1.551 4.586,-1.981 v 0 c 2.041,-0.536 7.874,-0.701 9.952,-1.021 v 0 c 1.065,-0.166 2.139,-0.295 3.165,-0.639 v 0 c 1.687,-0.564 2.929,-1.562 3.165,-3.453 v 0 c 0.211,-1.699 -0.167,-3.236 -1.388,-4.495 v 0 c -1,-1.028 -2.248,-1.718 -3.632,-1.899 v 0 c -14.614,-1.93 -19.032,1.894 -20.242,3.585 v 0 c -0.655,1.153 -1.253,2.337 -1.882,3.502 v 0 c -1.292,2.395 -2.561,4.799 -3.842,7.197 v 0 c -1.677,3.138 -3.357,6.274 -5.037,9.409 v 0 c -0.444,0.83 -0.892,1.658 -1.337,2.486 v 0 c -0.106,0.195 -0.197,0.41 -0.514,0.362 v 0 c -0.186,-0.157 -0.292,-0.393 -0.41,-0.618 v 0 c -0.583,-1.125 -1.158,-2.252 -1.738,-3.377 v 0 c -1.102,-2.144 -2.203,-4.291 -3.306,-6.435 v 0 c -1.471,-2.858 -2.949,-5.715 -4.416,-8.575 v 0 c -1.035,-2.013 -2.185,-3.956 -3.622,-5.71 v 0 c -0.617,-0.748 -1.21,-1.536 -2.099,-2.014 v 0 c -0.14,-0.076 -0.302,-0.174 -0.308,-0.381 v 0 c 0.17,-0.186 0.202,-0.229 0.336,-0.238 v 0 c 0.31,-0.026 0.62,-0.008 0.93,0.017 v 0 c 1.884,0.147 3.769,0.125 5.653,0.007 v 0 c 0.324,-0.02 0.651,-0.027 0.976,-0.027 v 0 c 0.207,0 0.375,0.065 0.327,0.359 v 0 c -0.409,0.179 -0.832,0.351 -1.245,0.546 v 0 c -0.761,0.357 -1.264,1.105 -1.333,1.943 v 0 c -0.097,1.17 0.218,2.264 0.653,3.328 v 0 c 0.079,0.196 0.222,0.511 0.413,0.911 v 0 h 14.834 c 0.541,-1.123 1.098,-2.236 1.509,-3.416 v 0 c 0.105,-0.301 0.182,-0.613 0.218,-0.932 v 0 c 0.134,-1.191 -0.259,-1.857 -1.365,-2.34 v 0 c -0.125,-0.052 -0.263,-0.093 -0.257,-0.275 v 0 c 0.119,-0.178 0.306,-0.131 0.467,-0.125 v 0 c 0.546,0.018 1.094,0.061 1.641,0.073 v 0 c 2.328,0.055 4.657,0.093 6.984,-0.054 v 0 c 0.162,-0.009 0.323,-0.015 0.488,-0.018 v 0 l 7.325,-0.604 c 1.792,-0.114 7.318,-0.142 9.113,0.058 v 0 c 2.039,0.227 4.006,0.713 5.847,1.633 v 0 c 1.155,0.578 2.219,1.285 3.066,2.285 v 0 c 0.731,0.863 1.245,1.828 1.552,2.919 v 0 c 0.379,1.344 0.48,2.698 0.17,4.058 v 0 c -0.415,1.824 -1.573,3.07 -3.191,3.933 v 0 c -1.268,0.676 -2.636,1.047 -4.036,1.299 v 0 c -1.583,0.285 -6.916,0.438 -8.511,0.638 v 0 c -1.325,0.171 -2.643,0.369 -3.924,0.751 v 0 c -0.757,0.226 -1.471,0.548 -2.085,1.068 v 0 c -1.381,1.162 -1.617,3.33 -1.131,4.876 v 0 c 0.406,1.29 1.343,2.075 2.534,2.597 v 0 c 1.031,0.449 2.123,0.638 3.236,0.738 v 0 c 0,0 5.704,0.148 12.604,-0.319 v 0 c 0.34,-0.025 3.839,-0.078 6.665,-0.117 v 0 c 1.679,-0.023 2.717,1.818 1.829,3.245 v 0 c -6.537,10.504 -18.914,17.593 -33.112,17.593 v 0 c -21.012,0 -38.046,-15.521 -38.046,-34.668 m 23.008,9.781 c 1.372,-2.662 5.744,-11.29 6.905,-13.652 v 0 h -13.84 c 1.848,3.766 5.763,11.327 6.935,13.652"
         id="path4239"
         inkscape:connector-curvature="0" /></clipPath><clipPath
       clipPathUnits="userSpaceOnUse"
       id="clipPath4251"><path
         d="M 0,792 H 612 V 0 H 0 Z"
         id="path4249"
         inkscape:connector-curvature="0" /></clipPath><clipPath
       clipPathUnits="userSpaceOnUse"
       id="clipPath4361"><path
         d="m 181.453,178.155 c 0,-19.144 17.034,-34.665 38.046,-34.665 v 0 c 21.011,0 38.044,15.521 38.044,34.665 v 0 c 0,1.137 -0.066,2.26 -0.184,3.37 v 0 c -2.619,0 -4.748,-2.118 -4.764,-4.737 v 0 c -0.004,-0.443 -0.011,-0.793 -0.023,-0.975 v 0 c -1.204,-17.214 -15.544,-30.806 -33.062,-30.812 v 0 c -18.3,-0.006 -33.168,14.86 -33.166,33.159 v 0 c 0,18.308 14.845,33.152 33.155,33.152 v 0 c 11.496,0 21.624,-5.856 27.57,-14.745 v 0 c 0.994,-1.486 -0.106,-3.477 -1.895,-3.427 v 0 c -8.889,0.246 -14.033,0.473 -16.488,0.025 v 0 c -1.489,-0.272 -2.918,-0.738 -4.221,-1.533 v 0 c -1.069,-0.65 -1.96,-1.479 -2.603,-2.566 v 0 c -0.521,-0.885 -0.833,-1.843 -0.941,-2.854 v 0 c -0.077,-0.728 -0.108,-1.473 0.031,-2.202 v 0 c 0.279,-1.482 1.073,-2.642 2.272,-3.54 v 0 c 1.371,-1.028 2.957,-1.551 4.586,-1.981 v 0 c 2.041,-0.537 7.874,-0.701 9.952,-1.022 v 0 c 1.065,-0.165 2.139,-0.294 3.165,-0.638 v 0 c 1.687,-0.564 2.929,-1.562 3.165,-3.453 v 0 c 0.211,-1.699 -0.167,-3.236 -1.388,-4.495 v 0 c -1,-1.028 -2.248,-1.718 -3.632,-1.9 v 0 c -14.614,-1.929 -19.032,1.895 -20.242,3.586 v 0 c -0.655,1.153 -1.253,2.337 -1.882,3.502 v 0 c -1.292,2.395 -2.561,4.799 -3.842,7.197 v 0 c -1.677,3.138 -3.357,6.274 -5.037,9.409 v 0 c -0.444,0.83 -0.892,1.658 -1.337,2.486 v 0 c -0.106,0.195 -0.197,0.41 -0.514,0.361 v 0 c -0.186,-0.156 -0.292,-0.392 -0.41,-0.617 v 0 c -0.583,-1.125 -1.158,-2.252 -1.738,-3.377 v 0 c -1.102,-2.144 -2.203,-4.291 -3.306,-6.436 v 0 c -1.471,-2.857 -2.949,-5.714 -4.416,-8.573 v 0 c -1.035,-2.014 -2.185,-3.957 -3.622,-5.711 v 0 c -0.617,-0.748 -1.21,-1.536 -2.099,-2.014 v 0 c -0.14,-0.076 -0.302,-0.174 -0.308,-0.381 v 0 c 0.17,-0.186 0.202,-0.228 0.336,-0.238 v 0 c 0.31,-0.026 0.62,-0.008 0.93,0.017 v 0 c 1.884,0.147 3.769,0.125 5.653,0.007 v 0 c 0.324,-0.02 0.651,-0.027 0.976,-0.027 v 0 c 0.207,0 0.375,0.065 0.327,0.359 v 0 c -0.409,0.179 -0.832,0.351 -1.245,0.546 v 0 c -0.761,0.357 -1.264,1.106 -1.333,1.944 v 0 c -0.097,1.169 0.218,2.263 0.653,3.327 v 0 c 0.079,0.196 0.222,0.51 0.413,0.911 v 0 h 14.834 c 0.541,-1.123 1.098,-2.237 1.509,-3.416 v 0 c 0.105,-0.301 0.182,-0.613 0.218,-0.932 v 0 c 0.134,-1.192 -0.259,-1.858 -1.365,-2.34 v 0 c -0.125,-0.052 -0.263,-0.094 -0.257,-0.275 v 0 c 0.119,-0.178 0.306,-0.131 0.467,-0.125 v 0 c 0.546,0.018 1.094,0.061 1.641,0.072 v 0 c 2.328,0.057 4.657,0.094 6.984,-0.053 v 0 c 0.162,-0.01 0.323,-0.015 0.488,-0.018 v 0 l 7.325,-0.604 c 1.792,-0.114 7.318,-0.141 9.113,0.058 v 0 c 2.039,0.227 4.006,0.713 5.847,1.633 v 0 c 1.155,0.578 2.219,1.285 3.066,2.285 v 0 c 0.731,0.863 1.245,1.828 1.552,2.92 v 0 c 0.379,1.344 0.48,2.697 0.17,4.057 v 0 c -0.415,1.824 -1.573,3.069 -3.191,3.933 v 0 c -1.268,0.676 -2.636,1.047 -4.036,1.299 v 0 c -1.583,0.285 -6.916,0.438 -8.511,0.638 v 0 c -1.325,0.17 -2.643,0.369 -3.924,0.751 v 0 c -0.757,0.226 -1.471,0.548 -2.085,1.068 v 0 c -1.381,1.162 -1.617,3.33 -1.131,4.877 v 0 c 0.406,1.289 1.343,2.074 2.534,2.596 v 0 c 1.031,0.449 2.123,0.638 3.236,0.738 v 0 c 0,0 5.704,0.148 12.604,-0.319 v 0 c 0.34,-0.025 3.839,-0.078 6.665,-0.117 v 0 c 1.679,-0.023 2.717,1.818 1.829,3.245 v 0 c -6.537,10.504 -18.914,17.593 -33.112,17.593 v 0 c -21.012,0 -38.046,-15.521 -38.046,-34.668 m 23.008,9.781 c 1.372,-2.662 5.744,-11.29 6.905,-13.652 v 0 h -13.84 c 1.848,3.766 5.763,11.327 6.935,13.652"
         id="path4359"
         inkscape:connector-curvature="0" /></clipPath><clipPath
       clipPathUnits="userSpaceOnUse"
       id="clipPath4371"><path
         d="M 0,792 H 612 V 0 H 0 Z"
         id="path4369"
         inkscape:connector-curvature="0" /></clipPath></defs><sodipodi:namedview
     pagecolor="#ffffff"
     bordercolor="#666666"
     borderopacity="1"
     objecttolerance="10"
     gridtolerance="10"
     guidetolerance="10"
     inkscape:pageopacity="0"
     inkscape:pageshadow="2"
     inkscape:window-width="2560"
     inkscape:window-height="1346"
     id="namedview3715"
     showgrid="false"
     fit-margin-top="0"
     fit-margin-left="0"
     fit-margin-right="0"
     fit-margin-bottom="0"
     inkscape:zoom="1.5039411"
     inkscape:cx="388.15268"
     inkscape:cy="-74.256579"
     inkscape:window-x="-11"
     inkscape:window-y="-11"
     inkscape:window-maximized="1"
     inkscape:current-layer="g3721" /><g
     id="g3721"
     inkscape:groupmode="layer"
     inkscape:label="ASUCLA_Logo_StyleGuide"
     transform="matrix(1.3333333,0,0,-1.3333333,-214.09866,504.12399)"><g
       id="g4017"><g
         id="g4019"><g
           id="g4025"><g
             id="g4027"><path
               d="m 160.574,286.968 h 253.125 v 91.125 H 160.574 Z"
               style="fill:url(#linearGradient4039);stroke:none"
               id="path4041"
               inkscape:connector-curvature="0" /></g></g></g></g><g
       id="g4043"><g
         id="g4045"><g
           id="g4051"><g
             id="g4053"><path
               d="m 160.575,378.093 -10e-4,-0.001 v -91.124 h 0.002 253.123 v 91.125 z"
               style="fill:url(#linearGradient4065);stroke:none"
               id="path4067"
               inkscape:connector-curvature="0" /></g></g></g></g><g
       id="g4235"><g
         id="g4237"
         clip-path="url(#clipPath4241)"><path
           d="m 257.543,300.529 h -76.091 v 69.334 h 76.091 z"
           style="fill:#ffffff;fill-opacity:1;fill-rule:nonzero;stroke:none"
           id="path4243"
           inkscape:connector-curvature="0" /></g></g><g
       id="g4245"><g
         id="g4247"
         clip-path="url(#clipPath4251)"><g
           id="g4253"
           transform="translate(353.4263,331.1934)"><path
             d="M 0,0 C 1.291,2.541 5.666,11.117 6.986,13.734 8.218,11.34 12.124,3.605 13.915,0 Z m 24.745,-7.562 c -1.13,0.736 -2.028,1.695 -2.731,2.841 -0.901,1.467 -1.664,3.012 -2.48,4.526 C 18.238,2.213 16.961,4.631 15.671,7.043 14,10.168 12.324,13.289 10.65,16.412 10.187,17.277 9.722,18.141 9.258,19.006 9.151,19.205 9.051,19.412 8.757,19.348 8.562,19.193 8.465,18.967 8.356,18.756 7.756,17.594 7.16,16.43 6.562,15.266 5.462,13.125 4.361,10.982 3.259,8.842 1.965,6.334 0.651,3.84 -0.618,1.32 -1.301,-0.037 -2.013,-1.379 -2.811,-2.668 -2.821,-2.68 -2.837,-2.705 -2.857,-2.742 -3.06,-3.066 -3.266,-3.387 -3.48,-3.705 c -0.874,-1.068 -2.859,-2.627 -7.432,-3.025 -1.191,-0.104 -8.313,-0.229 -9.375,-0.098 -1.664,0.205 -2.39,0.92 -2.691,2.449 -0.006,0.035 -0.011,0.068 -0.018,0.102 -0.157,0.765 -0.132,1.543 -0.135,2.316 -0.004,5.545 -0.002,11.092 0,16.635 0,0.381 -0.004,0.762 0.042,1.137 0.131,1.064 0.549,1.949 1.603,2.41 0.148,0.066 0.339,0.107 0.37,0.32 -0.085,0.215 -0.276,0.178 -0.44,0.176 -0.414,-0.004 -0.827,-0.01 -1.239,-0.039 -1.875,-0.129 -3.75,-0.129 -5.625,0.002 -0.411,0.029 -0.827,0.031 -1.24,0.035 -0.168,0 -0.351,0.017 -0.486,-0.184 0.079,-0.228 0.268,-0.279 0.439,-0.353 0.722,-0.313 1.192,-0.848 1.45,-1.59 0.183,-0.527 0.266,-1.065 0.266,-1.621 -0.004,-2.014 0.001,-4.029 0,-6.045 -0.002,-3.926 -0.004,-7.852 -0.011,-11.779 -0.003,-0.901 -0.142,-1.784 -0.394,-2.647 -0.283,-0.967 -0.857,-1.674 -1.848,-1.99 -0.149,-0.047 -0.294,-0.096 -0.441,-0.147 -0.105,-0.037 -0.24,-0.045 -0.266,-0.24 0.323,-0.176 0.684,-0.152 1.037,-0.152 6.756,-0.002 15.431,-0.002 22.74,-0.002 1.226,0 2.416,0.002 3.549,0.002 0.064,0 0.13,-0.004 0.196,-0.006 0.038,0 0.076,0.002 0.116,0.002 1.018,0.002 2.037,-0.031 3.057,-0.096 0.325,-0.019 0.653,-0.025 0.981,-0.023 0.187,0.002 0.341,0.064 0.317,0.301 -0.077,0.136 -0.223,0.158 -0.344,0.212 -0.314,0.139 -0.636,0.262 -0.948,0.409 -0.534,0.252 -0.932,0.636 -1.143,1.199 -0.285,0.758 -0.218,1.529 -0.07,2.291 0.187,0.949 0.537,1.844 0.953,2.713 h 14.934 c 0.128,-0.258 0.23,-0.469 0.299,-0.614 0.501,-1.054 1.033,-2.097 1.343,-3.234 0.124,-0.461 0.142,-0.916 0.064,-1.381 -0.122,-0.722 -0.478,-1.242 -1.209,-1.457 -0.161,-0.047 -0.344,-0.074 -0.394,-0.285 0.064,-0.17 0.209,-0.16 0.344,-0.158 0.345,0.004 0.69,0.01 1.033,0.027 2.547,0.133 5.094,0.135 7.642,0 0.377,-0.019 0.757,-0.025 1.136,-0.025 0.189,0.002 0.386,0.015 0.438,0.26 -0.052,0.197 -0.236,0.246 -0.375,0.336"
             style="fill:#ffffff;fill-opacity:1;fill-rule:nonzero;stroke:none"
             id="path4255"
             inkscape:connector-curvature="0" /></g><g
           id="g4257"
           transform="translate(318.8335,330.2637)"><path
             d="M 0,0 C -0.041,0.145 -0.08,0.303 -0.275,0.379 -0.514,0.291 -0.534,0.078 -0.6,-0.09 c -0.58,-1.471 -1.381,-2.806 -2.457,-3.969 -1.318,-1.425 -2.949,-2.308 -4.854,-2.634 -1.644,-0.284 -3.29,-0.202 -4.92,0.168 -2.707,0.609 -4.871,2.019 -6.407,4.345 -1.13,1.709 -1.765,3.612 -2.033,5.629 -0.342,2.582 -0.249,5.149 0.391,7.686 0.499,1.98 1.337,3.793 2.728,5.312 1.206,1.319 2.686,2.192 4.442,2.555 2.276,0.469 4.528,0.293 6.722,-0.43 2.57,-0.849 4.347,-2.511 5.051,-5.199 0.108,-0.414 0.258,-0.82 0.399,-1.225 0.036,-0.109 0.072,-0.236 0.324,-0.255 0.657,1.711 1.173,3.494 1.758,5.199 -0.121,0.174 -0.235,0.22 -0.338,0.283 -1.427,0.852 -2.959,1.457 -4.549,1.924 -1.57,0.459 -3.172,0.744 -4.804,0.906 -1.605,0.158 -3.197,0.156 -4.788,-0.072 -1.852,-0.264 -3.623,-0.809 -5.292,-1.656 -1.976,-1.002 -3.687,-2.34 -5.047,-4.098 -1.619,-2.096 -2.549,-4.459 -2.738,-7.113 -0.121,-1.7 -0.002,-3.371 0.44,-5.014 1.086,-4.033 3.616,-6.836 7.374,-8.58 2.514,-1.168 5.185,-1.594 7.927,-1.594 1.46,0 2.92,0.1 4.368,0.346 2.312,0.394 4.507,1.101 6.517,2.326 0.541,0.328 1.08,0.666 1.521,1.1 0.003,0.066 0.015,0.101 0.007,0.132 C 0.762,-2.678 0.385,-1.34 0,0"
             style="fill:#ffffff;fill-opacity:1;fill-rule:nonzero;stroke:none"
             id="path4259"
             inkscape:connector-curvature="0" /></g><g
           id="g4261"
           transform="translate(290.7241,349.9062)"><path
             d="M 0,0 C -0.287,-0.004 -0.577,-0.006 -0.865,-0.025 -2.561,-0.145 -4.267,-0.211 -5.959,-0.033 -6.291,0 -6.628,0 -6.964,0.004 c -0.153,0.002 -0.318,0.012 -0.403,-0.176 0.074,-0.264 0.329,-0.326 0.531,-0.439 0.804,-0.453 1.409,-1.088 1.832,-1.907 0.607,-1.171 0.869,-2.437 0.899,-3.732 0.077,-3.65 0.05,-7.301 0.014,-10.953 -0.014,-1.506 -0.262,-2.979 -0.815,-4.389 -0.878,-2.236 -2.508,-3.652 -4.783,-4.353 -1.562,-0.481 -3.164,-0.573 -4.783,-0.532 -1.044,0.028 -2.087,0.184 -3.076,0.524 -2.576,0.881 -4.2,2.557 -4.896,5.002 -0.252,0.889 -0.294,1.801 -0.297,2.713 -0.006,4.75 -0.004,9.5 0.002,14.25 0,0.342 0.011,0.681 0.05,1.019 0.127,1.153 0.478,2.166 1.703,2.543 0.152,0.047 0.33,0.094 0.37,0.285 -0.144,0.184 -0.328,0.145 -0.491,0.143 -0.232,0 -0.466,-0.012 -0.697,-0.01 l -1.838,0.031 c -0.543,0.008 -2.529,0.008 -3.071,0 l -1.839,-0.031 c -0.231,-0.002 -0.462,0.01 -0.693,0.01 -0.167,0.002 -0.351,0.041 -0.494,-0.143 0.042,-0.191 0.218,-0.238 0.37,-0.285 1.226,-0.377 1.574,-1.39 1.705,-2.543 0.038,-0.338 0.049,-0.677 0.049,-1.019 0.005,-4.75 0.007,-9.5 0,-14.25 l 0.01,0.027 c 0.006,-0.5 0.022,-1 0.067,-1.498 0.263,-2.945 1.655,-5.117 4.359,-6.406 1.545,-0.735 3.193,-1.072 4.872,-1.27 1.486,-0.174 2.984,-0.193 4.482,-0.154 1.508,0.039 2.985,0.232 4.425,0.668 1.813,0.547 3.338,1.523 4.465,3.074 1.051,1.445 1.526,3.104 1.786,4.84 0.148,0.992 0.147,1.99 0.149,2.988 0.006,2.705 -0.011,5.408 0.008,8.112 0.01,1.22 0.079,2.439 0.438,3.625 0.449,1.478 1.176,2.746 2.509,3.599 0.187,0.119 0.37,0.25 0.46,0.461 C 0.316,0.004 0.152,0 0,0"
             style="fill:#ffffff;fill-opacity:1;fill-rule:nonzero;stroke:none"
             id="path4263"
             inkscape:connector-curvature="0" /></g><g
           id="g4265"
           transform="translate(262.7085,311.4082)"><path
             d="M 0,0 H 1.357 L 0.68,1.58 Z M -1.969,-2.098 0.32,3.244 H 1.046 L 3.334,-2.098 H 2.259 L 1.755,-0.914 H -0.39 l -0.503,-1.184 z"
             style="fill:#ffffff;fill-opacity:1;fill-rule:nonzero;stroke:none"
             id="path4267"
             inkscape:connector-curvature="0" /></g><g
           id="g4269"
           transform="translate(267.3989,310.7383)"><path
             d="m 0,0 c 0.306,-0.336 0.771,-0.588 1.26,-0.588 0.458,0 0.778,0.283 0.778,0.672 0,0.687 -0.992,0.771 -1.709,1.189 -0.421,0.245 -0.756,0.612 -0.756,1.215 0,0.953 0.878,1.502 1.764,1.502 0.541,0 1.044,-0.131 1.55,-0.504 L 2.351,2.723 C 2.137,2.922 1.779,3.074 1.427,3.074 1.038,3.074 0.604,2.906 0.604,2.494 0.604,1.633 3.068,1.898 3.068,0.1 c 0,-0.948 -0.847,-1.604 -1.808,-1.604 -0.718,0 -1.381,0.299 -1.93,0.803 z"
             style="fill:#ffffff;fill-opacity:1;fill-rule:nonzero;stroke:none"
             id="path4271"
             inkscape:connector-curvature="0" /></g><g
           id="g4273"
           transform="translate(271.7476,310.7383)"><path
             d="m 0,0 c 0.307,-0.336 0.771,-0.588 1.261,-0.588 0.457,0 0.775,0.283 0.775,0.672 0,0.687 -0.989,0.771 -1.707,1.189 -0.419,0.245 -0.756,0.612 -0.756,1.215 0,0.953 0.879,1.502 1.764,1.502 0.54,0 1.043,-0.131 1.546,-0.504 L 2.35,2.723 C 2.137,2.922 1.778,3.074 1.429,3.074 c -0.39,0 -0.825,-0.168 -0.825,-0.58 0,-0.861 2.463,-0.596 2.463,-2.394 0,-0.948 -0.846,-1.604 -1.806,-1.604 -0.718,0 -1.382,0.299 -1.93,0.803 z"
             style="fill:#ffffff;fill-opacity:1;fill-rule:nonzero;stroke:none"
             id="path4275"
             inkscape:connector-curvature="0" /></g><g
           id="g4277"
           transform="translate(278.5522,310.1504)"><path
             d="m 0,0 c 1.009,0 1.757,0.824 1.757,1.832 0,1.006 -0.748,1.83 -1.757,1.83 -1.006,0 -1.754,-0.824 -1.754,-1.83 C -1.754,0.824 -1.006,0 0,0 m 0,4.578 c 1.648,0 2.785,-1.228 2.785,-2.746 0,-1.52 -1.137,-2.748 -2.785,-2.748 -1.648,0 -2.784,1.228 -2.784,2.748 0,1.518 1.136,2.746 2.784,2.746"
             style="fill:#ffffff;fill-opacity:1;fill-rule:nonzero;stroke:none"
             id="path4279"
             inkscape:connector-curvature="0" /></g><g
           id="g4281"
           transform="translate(283.4741,311.9824)"><path
             d="m 0,0 c 0,-1.039 0.792,-1.832 1.823,-1.832 0.695,0 1.198,0.336 1.51,0.74 l 0.71,-0.633 C 3.569,-2.328 2.777,-2.748 1.801,-2.748 c -1.664,0 -2.832,1.213 -2.832,2.748 0,1.531 1.152,2.746 2.816,2.746 0.793,0 1.473,-0.299 1.952,-0.762 L 3.074,1.281 C 2.753,1.602 2.304,1.83 1.777,1.83 0.762,1.83 0,1.014 0,0"
             style="fill:#ffffff;fill-opacity:1;fill-rule:nonzero;stroke:none"
             id="path4283"
             inkscape:connector-curvature="0" /></g><path
           d="m 288.663,314.652 h 1.028 v -5.342 h -1.028 z"
           style="fill:#ffffff;fill-opacity:1;fill-rule:nonzero;stroke:none"
           id="path4285"
           inkscape:connector-curvature="0" /><g
           id="g4287"
           transform="translate(292.6509,311.4082)"><path
             d="M 0,0 H 1.359 L 0.68,1.58 Z m -1.969,-2.098 2.29,5.342 H 1.046 L 3.335,-2.098 H 2.259 l -0.504,1.184 h -2.144 l -0.504,-1.184 z"
             style="fill:#ffffff;fill-opacity:1;fill-rule:nonzero;stroke:none"
             id="path4289"
             inkscape:connector-curvature="0" /></g><g
           id="g4291"
           transform="translate(299.9888,314.6523)"><path
             d="m 0,0 v -0.916 h -1.409 v -4.426 h -1.03 v 4.426 H -3.852 V 0 Z"
             style="fill:#ffffff;fill-opacity:1;fill-rule:nonzero;stroke:none"
             id="path4293"
             inkscape:connector-curvature="0" /></g><g
           id="g4295"
           transform="translate(302.2026,313.7363)"><path
             d="M 0,0 V -1.107 H 1.641 V -2.021 H 0 V -3.51 H 2.251 V -4.426 H -1.031 V 0.916 H 2.175 V 0 Z"
             style="fill:#ffffff;fill-opacity:1;fill-rule:nonzero;stroke:none"
             id="path4297"
             inkscape:connector-curvature="0" /></g><g
           id="g4299"
           transform="translate(308.9097,313.1426)"><path
             d="m 0,0 c -0.298,0.371 -0.733,0.594 -1.367,0.594 h -0.762 v -3.51 h 0.762 c 0.634,0 1.069,0.221 1.367,0.596 0.243,0.306 0.39,0.716 0.39,1.16 C 0.39,-0.719 0.243,-0.307 0,0 m -1.481,1.51 c 0.847,0 1.404,-0.184 1.839,-0.504 0.656,-0.488 1.06,-1.281 1.06,-2.166 0,-0.887 -0.404,-1.678 -1.06,-2.168 -0.435,-0.318 -0.992,-0.504 -1.839,-0.504 H -3.159 V 1.51 Z"
             style="fill:#ffffff;fill-opacity:1;fill-rule:nonzero;stroke:none"
             id="path4301"
             inkscape:connector-curvature="0" /></g><g
           id="g4303"
           transform="translate(313.9741,310.7383)"><path
             d="m 0,0 c 0.305,-0.336 0.771,-0.588 1.26,-0.588 0.458,0 0.778,0.283 0.778,0.672 0,0.687 -0.992,0.771 -1.709,1.189 -0.42,0.245 -0.757,0.612 -0.757,1.215 0,0.953 0.879,1.502 1.764,1.502 0.541,0 1.044,-0.131 1.547,-0.504 L 2.351,2.723 C 2.138,2.922 1.778,3.074 1.428,3.074 c -0.39,0 -0.824,-0.168 -0.824,-0.58 0,-0.861 2.463,-0.596 2.463,-2.394 0,-0.948 -0.846,-1.604 -1.807,-1.604 -0.717,0 -1.381,0.299 -1.931,0.803 z"
             style="fill:#ffffff;fill-opacity:1;fill-rule:nonzero;stroke:none"
             id="path4305"
             inkscape:connector-curvature="0" /></g><g
           id="g4307"
           transform="translate(321.5425,314.6523)"><path
             d="m 0,0 v -0.916 h -1.41 v -4.426 h -1.031 v 4.426 H -3.852 V 0 Z"
             style="fill:#ffffff;fill-opacity:1;fill-rule:nonzero;stroke:none"
             id="path4309"
             inkscape:connector-curvature="0" /></g><g
           id="g4311"
           transform="translate(323.3735,309.7852)"><path
             d="m 0,0 c -0.442,0.396 -0.686,0.961 -0.686,1.777 v 3.09 h 1.03 V 1.701 c 0,-0.488 0.129,-0.785 0.349,-0.992 0.23,-0.221 0.55,-0.344 0.91,-0.344 0.358,0 0.679,0.123 0.908,0.344 0.22,0.207 0.35,0.504 0.35,0.992 V 4.867 H 3.892 V 1.777 C 3.892,0.961 3.646,0.396 3.205,0 2.792,-0.367 2.205,-0.551 1.603,-0.551 0.999,-0.551 0.412,-0.367 0,0"
             style="fill:#ffffff;fill-opacity:1;fill-rule:nonzero;stroke:none"
             id="path4313"
             inkscape:connector-curvature="0" /></g><g
           id="g4315"
           transform="translate(331.9868,313.1426)"><path
             d="m 0,0 c -0.297,0.371 -0.732,0.594 -1.365,0.594 h -0.764 v -3.51 h 0.764 c 0.633,0 1.068,0.221 1.365,0.596 0.244,0.306 0.39,0.716 0.39,1.16 C 0.39,-0.719 0.244,-0.307 0,0 m -1.479,1.51 c 0.846,0 1.403,-0.184 1.837,-0.504 C 1.016,0.518 1.42,-0.275 1.42,-1.16 1.42,-2.047 1.016,-2.838 0.358,-3.328 -0.076,-3.646 -0.633,-3.832 -1.479,-3.832 H -3.158 V 1.51 Z"
             style="fill:#ffffff;fill-opacity:1;fill-rule:nonzero;stroke:none"
             id="path4317"
             inkscape:connector-curvature="0" /></g><g
           id="g4319"
           transform="translate(335.6567,313.7363)"><path
             d="M 0,0 V -1.107 H 1.64 V -2.021 H 0 V -3.51 H 2.251 V -4.426 H -1.03 V 0.916 H 2.175 V 0 Z"
             style="fill:#ffffff;fill-opacity:1;fill-rule:nonzero;stroke:none"
             id="path4321"
             inkscape:connector-curvature="0" /></g><g
           id="g4323"
           transform="translate(339.2036,314.6523)"><path
             d="M 0,0 H 0.726 L 3.702,-3.479 V 0 H 4.73 V -5.342 H 4.005 L 1.031,-1.861 V -5.342 H 0 Z"
             style="fill:#ffffff;fill-opacity:1;fill-rule:nonzero;stroke:none"
             id="path4325"
             inkscape:connector-curvature="0" /></g><g
           id="g4327"
           transform="translate(348.9702,314.6523)"><path
             d="m 0,0 v -0.916 h -1.412 v -4.426 h -1.03 v 4.426 H -3.854 V 0 Z"
             style="fill:#ffffff;fill-opacity:1;fill-rule:nonzero;stroke:none"
             id="path4329"
             inkscape:connector-curvature="0" /></g><g
           id="g4331"
           transform="translate(350.3647,310.7383)"><path
             d="m 0,0 c 0.306,-0.336 0.771,-0.588 1.26,-0.588 0.458,0 0.777,0.283 0.777,0.672 0,0.687 -0.99,0.771 -1.709,1.189 -0.42,0.245 -0.756,0.612 -0.756,1.215 0,0.953 0.879,1.502 1.764,1.502 0.542,0 1.045,-0.131 1.549,-0.504 L 2.351,2.723 C 2.136,2.922 1.778,3.074 1.429,3.074 1.037,3.074 0.603,2.906 0.603,2.494 0.603,1.633 3.068,1.898 3.068,0.1 c 0,-0.948 -0.846,-1.604 -1.808,-1.604 -0.719,0 -1.381,0.299 -1.932,0.803 z"
             style="fill:#ffffff;fill-opacity:1;fill-rule:nonzero;stroke:none"
             id="path4333"
             inkscape:connector-curvature="0" /></g><g
           id="g4335"
           transform="translate(357.7798,309.7852)"><path
             d="m 0,0 c -0.441,0.396 -0.686,0.961 -0.686,1.777 v 3.09 h 1.03 V 1.701 c 0,-0.488 0.131,-0.785 0.351,-0.992 0.23,-0.221 0.548,-0.344 0.908,-0.344 0.359,0 0.679,0.123 0.908,0.344 C 2.732,0.916 2.86,1.213 2.86,1.701 V 4.867 H 3.892 V 1.777 C 3.892,0.961 3.648,0.396 3.205,0 2.793,-0.367 2.205,-0.551 1.603,-0.551 1.001,-0.551 0.412,-0.367 0,0"
             style="fill:#ffffff;fill-opacity:1;fill-rule:nonzero;stroke:none"
             id="path4337"
             inkscape:connector-curvature="0" /></g><g
           id="g4339"
           transform="translate(363.9224,311.9824)"><path
             d="m 0,0 c 0,-1.039 0.793,-1.832 1.823,-1.832 0.695,0 1.198,0.336 1.51,0.74 l 0.71,-0.633 C 3.571,-2.328 2.778,-2.748 1.8,-2.748 c -1.663,0 -2.83,1.213 -2.83,2.748 0,1.531 1.151,2.746 2.814,2.746 0.794,0 1.473,-0.299 1.954,-0.762 L 3.074,1.281 C 2.753,1.602 2.304,1.83 1.778,1.83 0.763,1.83 0,1.014 0,0"
             style="fill:#ffffff;fill-opacity:1;fill-rule:nonzero;stroke:none"
             id="path4341"
             inkscape:connector-curvature="0" /></g><g
           id="g4343"
           transform="translate(369.1099,314.6523)"><path
             d="M 0,0 H 1.029 V -4.426 H 3.28 V -5.342 H 0 Z"
             style="fill:#ffffff;fill-opacity:1;fill-rule:nonzero;stroke:none"
             id="path4345"
             inkscape:connector-curvature="0" /></g><g
           id="g4347"
           transform="translate(375.2739,311.4082)"><path
             d="m 0,0 h 1.358 l -0.68,1.58 z m -1.969,-2.098 2.29,5.342 H 1.046 L 3.335,-2.098 H 2.259 l -0.504,1.184 h -2.144 l -0.503,-1.184 z"
             style="fill:#ffffff;fill-opacity:1;fill-rule:nonzero;stroke:none"
             id="path4349"
             inkscape:connector-curvature="0" /></g></g></g></g></svg>