<svg xmlns="http://www.w3.org/2000/svg" width="337.5" height="121.5"><defs><clipPath clipPathUnits="userSpaceOnUse" id="a"><path d="M181.453 335.195c0-19.144 17.034-34.666 38.046-34.666 21.011 0 38.044 15.522 38.044 34.666 0 1.137-.066 2.26-.184 3.37a4.767 4.767 0 01-4.764-4.737 21.504 21.504 0 00-.023-.975c-1.204-17.214-15.544-30.806-33.062-30.812-18.3-.006-33.168 14.86-33.166 33.159 0 18.307 14.845 33.152 33.155 33.152 11.496 0 21.624-5.856 27.57-14.745.994-1.486-.106-3.476-1.895-3.427-8.889.246-14.033.473-16.488.025-1.489-.271-2.918-.739-4.221-1.533-1.069-.65-1.96-1.479-2.603-2.566a7.054 7.054 0 01-.941-2.854c-.077-.728-.108-1.473.031-2.201.279-1.483 1.073-2.643 2.272-3.541 1.371-1.028 2.957-1.551 4.586-1.981 2.041-.536 7.874-.701 9.952-1.021 1.065-.166 2.139-.295 3.165-.639 1.687-.564 2.929-1.562 3.165-3.453.211-1.699-.167-3.236-1.388-4.495-1-1.028-2.248-1.718-3.632-1.899-14.614-1.93-19.032 1.894-20.242 3.585-.655 1.153-1.253 2.337-1.882 3.502-1.292 2.395-2.561 4.799-3.842 7.197a9349.733 9349.733 0 01-5.037 9.409c-.444.83-.892 1.658-1.337 2.486-.106.195-.197.41-.514.362-.186-.157-.292-.393-.41-.618-.583-1.125-1.158-2.252-1.738-3.377-1.102-2.144-2.203-4.291-3.306-6.435-1.471-2.858-2.949-5.715-4.416-8.575-1.035-2.013-2.185-3.956-3.622-5.71-.617-.748-1.21-1.536-2.099-2.014-.14-.076-.302-.174-.308-.381.17-.186.202-.229.336-.238.31-.026.62-.008.93.017 1.884.147 3.769.125 5.653.007.324-.02.651-.027.976-.027.207 0 .375.065.327.359-.409.179-.832.351-1.245.546a2.354 2.354 0 00-1.333 1.943c-.097 1.17.218 2.264.653 3.328.079.196.222.511.413.911h14.834c.541-1.123 1.098-2.236 1.509-3.416.105-.301.182-.613.218-.932.134-1.191-.259-1.857-1.365-2.34-.125-.052-.263-.093-.257-.275.119-.178.306-.131.467-.125.546.018 1.094.061 1.641.073 2.328.055 4.657.093 6.984-.054.162-.009.323-.015.488-.018l7.325-.604c1.792-.114 7.318-.142 9.113.058 2.039.227 4.006.713 5.847 1.633 1.155.578 2.219 1.285 3.066 2.285a7.658 7.658 0 011.552 2.919c.379 1.344.48 2.698.17 4.058-.415 1.824-1.573 3.07-3.191 3.933-1.268.676-2.636 1.047-4.036 1.299-1.583.285-6.916.438-8.511.638-1.325.171-2.643.369-3.924.751-.757.226-1.471.548-2.085 1.068-1.381 1.162-1.617 3.33-1.131 4.876.406 1.29 1.343 2.075 2.534 2.597 1.031.449 2.123.638 3.236.738 0 0 5.704.148 12.604-.319.34-.025 3.839-.078 6.665-.117 1.679-.023 2.717 1.818 1.829 3.245-6.537 10.504-18.914 17.593-33.112 17.593-21.012 0-38.046-15.521-38.046-34.668m23.008 9.781c1.372-2.662 5.744-11.29 6.905-13.652h-13.84c1.848 3.766 5.763 11.327 6.935 13.652"/></clipPath><clipPath clipPathUnits="userSpaceOnUse" id="b"><path d="M0 792h612V0H0z"/></clipPath></defs><g clip-path="url(#a)" transform="matrix(1.33333 0 0 -1.33333 -214.099 504.124)"><path d="M257.543 300.529h-76.091v69.334h76.091z" fill="#fff"/></g><g clip-path="url(#b)" transform="matrix(1.33333 0 0 -1.33333 -214.099 504.124)"><path d="M353.426 331.193c1.291 2.541 5.666 11.117 6.986 13.734a1692.912 1692.912 0 006.93-13.734zm24.745-7.562c-1.13.736-2.028 1.695-2.73 2.841-.902 1.467-1.665 3.012-2.48 4.526-1.297 2.408-2.574 4.826-3.864 7.238-1.67 3.125-3.347 6.246-5.02 9.37l-1.393 2.593c-.107.2-.207.406-.5.342-.196-.155-.293-.38-.402-.592-.6-1.162-1.196-2.326-1.794-3.49-1.1-2.14-2.2-4.284-3.303-6.424-1.294-2.508-2.608-5.002-3.877-7.522-.683-1.357-1.395-2.699-2.193-3.988a35.097 35.097 0 00-.669-1.037c-.874-1.068-2.859-2.627-7.432-3.025-1.19-.104-8.313-.229-9.375-.098-1.664.205-2.39.92-2.69 2.45l-.019.101c-.157.765-.132 1.543-.135 2.316-.004 5.545-.002 11.092 0 16.635 0 .381-.004.762.042 1.137.131 1.064.55 1.95 1.603 2.41.148.066.34.107.37.32-.085.215-.276.178-.44.176-.414-.004-.827-.01-1.239-.039a40.614 40.614 0 00-5.625.002c-.41.03-.827.031-1.24.035-.168 0-.35.017-.486-.184.08-.228.268-.279.44-.353.721-.313 1.191-.848 1.45-1.59a4.89 4.89 0 00.265-1.62c-.004-2.015.001-4.03 0-6.046-.002-3.926-.004-7.852-.01-11.779a9.525 9.525 0 00-.395-2.647c-.283-.967-.857-1.674-1.848-1.99a16.27 16.27 0 01-.44-.147c-.106-.037-.24-.045-.267-.24.323-.176.684-.152 1.037-.152 6.756-.002 15.431-.002 22.74-.002l3.55.002c.063 0 .13-.004.195-.006l.116.002a46.619 46.619 0 003.057-.096c.325-.019.653-.025.981-.023.187.002.341.064.317.301-.077.136-.223.158-.344.212-.314.14-.636.262-.948.41-.534.251-.932.635-1.143 1.198-.285.758-.218 1.53-.07 2.291.187.95.537 1.844.953 2.713h14.934c.128-.258.23-.469.3-.614.5-1.054 1.032-2.097 1.342-3.234.124-.46.142-.916.064-1.38-.122-.723-.478-1.243-1.209-1.458-.16-.047-.344-.074-.394-.285.064-.17.21-.16.344-.158.345.004.69.01 1.033.027 2.547.133 5.094.135 7.642 0 .377-.019.757-.025 1.136-.025.19.002.386.015.438.26-.052.197-.236.246-.375.336m-59.337 6.633c-.041.145-.08.303-.275.379-.24-.088-.26-.301-.325-.47-.58-1.47-1.381-2.805-2.457-3.968a8.393 8.393 0 00-4.854-2.634c-1.644-.284-3.29-.202-4.92.168-2.707.609-4.871 2.019-6.407 4.345-1.13 1.709-1.765 3.612-2.033 5.629-.342 2.582-.25 5.149.39 7.686.5 1.98 1.338 3.793 2.729 5.312 1.206 1.319 2.686 2.192 4.442 2.555 2.276.469 4.528.293 6.722-.43 2.57-.85 4.347-2.511 5.05-5.2.109-.413.259-.82.4-1.224.036-.11.072-.236.324-.255.657 1.71 1.173 3.494 1.758 5.199-.121.174-.235.22-.338.283-1.427.852-2.96 1.457-4.55 1.924-1.57.459-3.171.744-4.803.906-1.605.158-3.197.156-4.788-.072a16.888 16.888 0 01-5.292-1.656c-1.976-1.002-3.687-2.34-5.047-4.098-1.62-2.096-2.55-4.46-2.738-7.113-.121-1.7-.002-3.371.44-5.014 1.086-4.033 3.616-6.836 7.374-8.58 2.514-1.168 5.185-1.594 7.927-1.594 1.46 0 2.92.1 4.368.346 2.312.394 4.507 1.1 6.517 2.326.54.328 1.08.666 1.52 1.1.004.066.016.1.008.132-.38 1.34-.757 2.678-1.142 4.018m-28.11 19.642c-.287-.004-.577-.006-.865-.025-1.696-.12-3.402-.186-5.094-.008-.332.033-.669.033-1.005.037-.153.002-.318.012-.403-.176.074-.264.33-.326.531-.439a4.511 4.511 0 001.832-1.907c.607-1.17.87-2.437.9-3.732.076-3.65.05-7.3.013-10.953-.014-1.506-.262-2.979-.815-4.389-.878-2.236-2.508-3.652-4.783-4.353-1.562-.48-3.164-.573-4.783-.532-1.044.028-2.087.184-3.076.524-2.576.881-4.2 2.557-4.896 5.002-.252.89-.294 1.801-.297 2.713-.006 4.75-.004 9.5.002 14.25 0 .342.011.681.05 1.02.127 1.152.478 2.165 1.703 2.542.152.047.33.094.37.285-.144.184-.328.145-.49.143-.233 0-.467-.012-.698-.01l-1.838.031c-.543.008-2.529.008-3.07 0l-1.84-.03c-.23-.003-.462.01-.693.01-.167.001-.35.04-.494-.144.042-.19.218-.238.37-.285 1.226-.377 1.574-1.39 1.705-2.543.038-.338.05-.677.05-1.019.004-4.75.006-9.5 0-14.25l.01.027c.005-.5.021-1 .066-1.498.263-2.945 1.655-5.117 4.36-6.406 1.544-.735 3.192-1.072 4.871-1.27 1.486-.174 2.984-.193 4.482-.154 1.508.04 2.985.232 4.425.668 1.813.547 3.338 1.523 4.465 3.074 1.051 1.445 1.526 3.104 1.786 4.84.148.992.147 1.99.15 2.988.005 2.705-.012 5.408.007 8.112.01 1.22.08 2.44.438 3.625.45 1.478 1.176 2.746 2.51 3.6.186.118.37.25.46.46-.1.176-.264.172-.416.172m-28.015-38.498h1.357l-.677 1.58zm-1.97-2.098l2.29 5.342h.726l2.288-5.342h-1.075l-.504 1.184h-2.145l-.503-1.184zm6.66 1.428c.306-.336.77-.588 1.26-.588.458 0 .778.283.778.672 0 .687-.992.771-1.71 1.19-.42.244-.755.611-.755 1.214 0 .953.878 1.502 1.764 1.502.54 0 1.044-.13 1.55-.504l-.536-.763a1.427 1.427 0 01-.924.351c-.39 0-.823-.168-.823-.58 0-.86 2.464-.596 2.464-2.394 0-.948-.847-1.604-1.808-1.604-.718 0-1.381.3-1.93.803zm4.349 0c.307-.336.77-.588 1.26-.588.458 0 .776.283.776.672 0 .687-.99.771-1.707 1.19-.42.244-.756.611-.756 1.214 0 .953.879 1.502 1.764 1.502.54 0 1.043-.13 1.546-.504l-.533-.763a1.423 1.423 0 01-.921.351c-.39 0-.825-.168-.825-.58 0-.86 2.463-.596 2.463-2.394 0-.948-.846-1.604-1.806-1.604-.718 0-1.382.3-1.93.803zm6.804-.588c1.01 0 1.757.824 1.757 1.832 0 1.006-.748 1.83-1.757 1.83-1.006 0-1.754-.824-1.754-1.83 0-1.008.748-1.832 1.754-1.832m0 4.578c1.648 0 2.785-1.228 2.785-2.746 0-1.52-1.137-2.748-2.785-2.748-1.648 0-2.784 1.228-2.784 2.748 0 1.518 1.136 2.746 2.784 2.746m4.922-2.746c0-1.039.792-1.832 1.823-1.832.695 0 1.198.336 1.51.74l.71-.633c-.474-.603-1.266-1.023-2.242-1.023-1.664 0-2.832 1.213-2.832 2.748 0 1.531 1.152 2.746 2.816 2.746.793 0 1.473-.299 1.952-.762l-.663-.703c-.32.321-.77.55-1.297.55-1.015 0-1.777-.817-1.777-1.83m5.189 2.669h1.028v-5.342h-1.028zm3.987-3.244h1.36l-.68 1.58zm-1.968-2.098l2.29 5.342h.725l2.289-5.342h-1.076l-.504 1.184h-2.144l-.504-1.184zm9.307 5.342v-.916h-1.41v-4.426h-1.03v4.426h-1.412v.916zm2.214-.916v-1.107h1.64v-.914h-1.64v-1.489h2.25v-.916h-3.281v5.342h3.206v-.916zm6.707-.593c-.298.37-.733.594-1.367.594h-.762v-3.51h.762c.634 0 1.069.22 1.367.596.243.306.39.716.39 1.16 0 .44-.147.853-.39 1.16m-1.481 1.51c.847 0 1.404-.184 1.839-.504.656-.488 1.06-1.281 1.06-2.166 0-.887-.404-1.678-1.06-2.168-.435-.318-.992-.504-1.84-.504h-1.677v5.342zm6.545-3.915c.305-.336.771-.588 1.26-.588.458 0 .778.283.778.672 0 .687-.992.771-1.709 1.19-.42.244-.757.611-.757 1.214 0 .953.88 1.502 1.764 1.502.541 0 1.044-.13 1.547-.504l-.532-.763a1.426 1.426 0 01-.923.351c-.39 0-.824-.168-.824-.58 0-.86 2.463-.596 2.463-2.394 0-.948-.846-1.604-1.807-1.604-.717 0-1.38.3-1.93.803zm7.569 3.914v-.916h-1.41v-4.426h-1.031v4.426h-1.411v.916zm1.83-4.867c-.442.396-.686.961-.686 1.777v3.09h1.03v-3.166c0-.488.13-.785.35-.992.23-.22.55-.344.91-.344.358 0 .679.123.908.344.22.207.35.504.35.992v3.166h1.03v-3.09c0-.816-.245-1.38-.686-1.777-.413-.367-1-.55-1.602-.55-.604 0-1.191.183-1.603.55m8.613 3.358c-.297.37-.732.594-1.365.594h-.764v-3.51h.764c.633 0 1.068.22 1.365.596.244.306.39.716.39 1.16 0 .44-.146.853-.39 1.16m-1.48 1.51c.847 0 1.404-.184 1.838-.504.658-.488 1.062-1.281 1.062-2.166 0-.887-.404-1.678-1.062-2.168-.434-.318-.991-.504-1.837-.504h-1.68v5.342zm5.15-.917v-1.107h1.64v-.914h-1.64v-1.489h2.25v-.916h-3.28v5.342h3.205v-.916zm3.547.916h.726l2.976-3.479v3.48h1.028v-5.343h-.725l-2.974 3.481v-3.48h-1.031zm9.766 0v-.916h-1.412v-4.426h-1.03v4.426h-1.412v.916zm1.395-3.914c.306-.336.77-.588 1.26-.588.458 0 .777.283.777.672 0 .687-.99.771-1.71 1.19-.42.244-.755.611-.755 1.214 0 .953.879 1.502 1.764 1.502a2.48 2.48 0 001.549-.504l-.534-.763a1.43 1.43 0 01-.922.351c-.392 0-.826-.168-.826-.58 0-.86 2.465-.596 2.465-2.394 0-.948-.846-1.604-1.808-1.604-.72 0-1.381.3-1.932.803zm7.415-.953c-.441.396-.686.961-.686 1.777v3.09h1.03v-3.166c0-.488.13-.785.35-.992a1.29 1.29 0 01.909-.344c.359 0 .679.123.908.344.22.207.349.504.349.992v3.166h1.032v-3.09c0-.816-.244-1.38-.687-1.777-.412-.367-1-.55-1.602-.55-.602 0-1.191.183-1.603.55m6.142 2.197c0-1.039.793-1.832 1.823-1.832.695 0 1.198.336 1.51.74l.71-.633c-.472-.603-1.265-1.023-2.243-1.023-1.663 0-2.83 1.213-2.83 2.748 0 1.531 1.151 2.746 2.814 2.746.794 0 1.473-.299 1.954-.762l-.664-.703c-.32.321-.77.55-1.296.55-1.015 0-1.778-.817-1.778-1.83m5.188 2.669h1.029v-4.426h2.25v-.916h-3.28zm6.164-3.244h1.358l-.68 1.58zm-1.97-2.098l2.29 5.342h.726l2.289-5.342h-1.076l-.504 1.184h-2.144l-.503-1.184z" fill="#fff"/></g></svg>