<svg width="820.9" height="168.84" xmlns="http://www.w3.org/2000/svg"><path d="M0 0h360v168.84H0z" fill="#2774ae"/><path d="M57.57 100.65a72.15 72.15 0 01-.18-8.51l4.06-46h15.07l-4.13 46.4c-.89 10 3 17.22 13.08 17.22 10.26 0 15.68-7.29 16.57-16.21l4.28-47.44h15.06L117.21 93c-1.68 18-13.64 31.54-33 31.54-15.08 0-24.8-9.75-26.65-23.85m67.28-15.62c2-22.1 16.87-40.42 42.62-40.42a35.32 35.32 0 0119.79 5.73l-1.72 18.25c-5.94-7.81-13-9.08-19.51-9.08-16 0-24.81 11.13-26.07 25.22-1.21 13.71 5.87 24.87 21.39 24.87 6.78 0 14-2 21.48-9.47l-1.66 18.73c-7.33 4-14.14 5.78-21 5.78-25.48 0-37.15-18.93-35.32-39.61m74.44-38.96h15l-5.48 62.5h21.53c1.52 0 6.65-.08 8-.16-.08.75-1.37 14.44-1.37 14.44h-44.5zm78.29 28.66a18 18 0 001.11-3.22h.24a18.25 18.25 0 00.57 3.25c.83 3.5 6.68 22.94 6.68 22.94h-19s10.17-22.46 10.37-23m3.85-32.18h-1l-41.15 80.28h16l5.76-12.13h29l3.62 12.18h15.93z" fill="#fff"/><path d="M455.94 38.724q.416 1.414.416 2.162 0 .5-.25 1.497-2.162.582-3.493.582-.582 0-1.996-.083-1.33-.166-2.162-.166-3.826 0-6.072 1.497-1.497.915-1.83 2.412l-.831 9.482.25 41.17q.082 22.622 1.496 28.195 1.414 5.489 4.74 9.065t9.981 5.905q6.737 2.33 13.058 2.33 14.14 0 21.624-4.076 7.569-4.076 10.812-11.228 3.327-7.236 3.327-21.874 0-.416-.25-6.654v-2.412q0-1.33.167-5.157.166-3.909.166-4.574l-1.247-23.87q-.582-12.06-1.414-14.222-.749-2.162-2.246-3.244-3.243-2.329-12.309-4.158-.416-1.165-.499-2.412 3.244-.333 6.404-.333 3.327 0 6.987.25 5.49.415 5.988.415l13.141-.415 2.578.083-.083 2.994q-10.23 1.33-12.226 3.16-1.996 1.747-1.996 6.571 0 2.578.333 11.228l.582 17.216-.083 6.82.25 8.65q0 16.3-.916 22.207-1.33 8.234-3.825 13.058-2.412 4.824-7.07 8.733-4.658 3.826-12.476 6.32-7.735 2.496-15.303 2.496-11.893 0-17.133-1.664-9.565-2.91-15.22-7.568-5.656-4.658-7.818-9.315-2.911-6.155-2.911-17.965v-5.74l-.25-23.287.25-18.797V51.366q0-4.824-1.33-6.737-.916-1.33-2.662-1.33l-4.907.083q-5.49 0-6.987-1.165-.25-.748-.25-1.33 0-.75.5-1.165.915-.665 2.245-.665h2.163l5.572-.083h13.141zm138.32 4.159q.665 5.49.665 6.32l-.332 7.403q-.167 4.74-.416 6.071-.749.333-1.248.333l-.748-.166q-2.662-11.644-9.066-16.967-6.32-5.323-15.47-5.323-9.481 0-15.553 5.323-6.071 5.323-6.071 12.392 0 5.406 4.241 9.897 4.242 4.491 21.708 13.474 13.307 6.903 19.046 11.311 5.74 4.325 8.65 10.064 2.911 5.739 2.911 12.808 0 8.9-4.658 16.717-4.574 7.818-12.392 11.81-7.818 3.91-20.71 3.91-11.228 0-21.54-3.577-6.072-2.163-7.403-3.493-1.33-1.331-1.33-2.828 0-.915.166-2.33 1.164-9.813 1.248-16.134.166-3.91.582-4.574.332-.583 1.247-.583.749 0 1.165.583.499.499.665 1.996.915 10.23 9.482 18.298 8.483 8.067 19.212 8.067 6.57 0 12.06-2.744 5.572-2.745 8.65-7.902 3.16-5.24 3.16-10.147 0-6.736-4.74-12.309-4.742-5.572-19.047-12.975-14.305-7.485-18.63-10.895-6.986-5.572-10.48-11.81-2.578-4.823-2.578-11.228 0-11.56 9.149-19.545 9.149-8.067 24.535-8.067 8.483 0 14.638 1.913 4.49 1.497 9.232 4.907zm14.47 99.967q1.164-.666 2.08-.666h1.912q.582 0 1.996-.083 6.405-.582 7.569-1.164 2.91-1.58 4.99-5.49 4.325-8.483 9.731-24.035 2.578-7.403 3.244-8.983 2.08-4.99 3.992-10.48l7.818-21.874q1.83-5.157 8.816-23.621 1.747-4.658 4.242-12.476l2.412-.166 2.91.083q3.577 7.07 6.322 15.22 1.497 4.325 4.907 12.89l12.642 34.184 6.737 18.547q5.323 15.802 6.986 19.462 1.664 3.576 3.078 4.74.415.333 3.077.999 2.744.665 3.826.998 3.826 1.08 5.323 1.83.332.914.332 1.413 0 .416-.25 1.248-2.66.083-3.742.083-4.242 0-14.97-.25l-8.318-.249-10.064.166q-.998 0-2.08-.083-.997-.166-1.746-.166h-1.83q-.915-.083-1.663-.5 0-1.163.416-2.245.998-.499 1.83-.582l8.732-.582q3.41-.166 5.157-.915.5-1.497.5-2.246 0-1.497-2.163-7.734-1.497-4.16-2.662-7.902-1.081-3.742-8.816-24.619-3.41-.582-5.988-.582l-17.8.166-5.239-.083q-2.828 0-6.238.416-1.081 2.495-1.414 3.576l-7.319 22.872q-4.657 13.058-4.657 14.39 0 .748.748 2.495 1.747.499 4.658.914l11.31.998q.916.749.916 1.331 0 .416-.25 1.248-3.743.083-5.739.083-6.653 0-15.47-.416-4.075-.166-5.822-.166-1.746 0-6.071.166-2.828.166-4.076.166-1.996 0-5.156-.249v-.5q0-.581.333-1.58zm39.673-49.903q8.9.499 20.294.499 6.487 0 11.394-.416-.832-3.244-1.913-6.072-5.406-14.472-5.988-15.969l-7.569-19.212-.832-1.497q-.499.998-3.659 8.567-5.323 12.975-7.652 20.211-1.08 3.244-2.245 6.487-1.165 3.16-1.497 4.491-.25 1.248-.832 2.579zM817.07 43.714q.998 6.404.998 13.14 0 1.331-.083 3.577-1.165.25-1.747.25-.499 0-1.414-.167-3.493-9.73-11.394-14.97-7.9-5.24-19.545-5.24-6.154 0-10.396 1.413-7.485 2.579-13.14 7.153-5.656 4.491-9.565 10.812-3.91 6.238-6.238 15.22-2.246 8.9-2.246 18.214 0 17.8 5.406 29.442 5.406 11.561 14.804 16.551 9.399 4.907 18.963 4.907l3.91-.083q6.653-.832 9.065-1.58 6.071-1.747 9.98-4.076 3.993-2.412 7.735-6.736 3.826-4.325 6.488-10.064l.998-.333q.416 0 1.247.499-.083 1.996-.166 2.578-3.493 14.056-5.073 19.212-1.331.333-3.327.998-9.731 3.327-26.032 3.327-13.141 0-19.712-1.83-6.488-1.746-14.222-5.489-7.652-3.826-13.474-10.064-5.822-6.238-9.399-15.719-3.576-9.565-3.576-20.793 0-10.646 2.828-18.547 2.828-7.984 8.733-16.135t13.89-13.557q8.067-5.406 17.882-7.652 6.903-1.497 19.545-1.497 9.232 0 17.383 2.495 8.15 2.412 10.895 4.741z" fill="#fff" aria-label="USAC"/></svg>