<svg xmlns="http://www.w3.org/2000/svg" version="1.1" id="Layer_1" x="0" y="0" xml:space="preserve" width="124.434" height="191.64"><style type="text/css" id="style2">.st0{fill-rule:evenodd;clip-rule:evenodd}</style><linearGradient id="SVGID_1_" gradientUnits="userSpaceOnUse" x1="0" y1="792" x2=".707" y2="791.293"><stop offset="0" id="stop4" stop-color="#20ac4b"/><stop offset=".983" id="stop6" stop-color="#19361a"/></linearGradient><g id="g225" transform="translate(-86.258 -288.33)" fill="#fff" fill-opacity="1"><path class="st0" d="M210.51 403.28c-.2-2.3-.07-4.99-1.11-6.63-1.9-3.01-7.54-1.49-11.61-2.76-3.91-1.22-4.97-3.68-7.19-6.36.42-1.79.47-3.95 1.11-5.53 3.81.66 5.59-2.06 8.01-2.76 1.17-.34 2.7.03 4.14-.55 2.31-.93 4.03-4.83 4.42-8.29 1.51-13.31-5.59-23.88-11.88-29.01-6.66-3.92-17.17-5.81-27.91-4.14-3.14.49-6.28 1.46-9.4 2.21-5.61 1.35-12.01 3.17-19.34 2.21-.41-3.19-1.26-7.4-1.38-9.95 3.52-.8 5.23 2.27 7.74 3.87 2.41 1.54 5.6 3.81 8.29 3.32 3.33-.61 3.35-5.36 5.53-7.74 5.03.59 9.06 2.17 14.09 2.76 1.35-1.73.55-4.8.55-7.74v-8.57c1.22-1.36 3.01-2.15 4.42-3.32-.27-1.61-.5-2.97-.28-4.42 1.47-1.66 5.09-1.17 7.74-1.66.5-3.26-2.5-3.03-3.32-4.97-.7-1.74 1.55-2.35 1.93-3.87-2.31-1.91-6.74-1.3-10.22-.83.04-2.43.04-4.83-.55-6.63-1.01-1.3-3.25-.39-4.7-.83-1.66-.5-1.64-1.43-2.76-2.21-2.49 1.06-3.99 1.75-6.63 1.38-1.84-.25-3.18-1.54-4.97-1.66-2.49-.16-4.35.8-6.63 1.66-1.55-.38-2.53-1.34-3.87-1.93h-3.59c-1.98 1.08-3.8 1.86-6.36 1.93-1.44.04-2.93-.74-4.42-.55-1.23.16-2.04 1.01-3.59 1.66-1.47.61-2.9.59-3.59 1.66-.78 1.2-.32 2.7-.28 4.42.04 1.66.54 4.11.28 4.97-.41 1.34-2.79 1.41-3.59 2.76-.47.78-.18 2.6-.55 3.87-.55 1.86-2.69 3.83-1.66 6.36.9 2.21 4.58 1.69 5.53 3.04-.03 5.28-.02 10.52.55 15.2 2.03.68 4.26-.67 6.63-.55.52 2.24 1.65 3.88 1.66 6.63-4.6-.33-8.76-2.62-13.26-3.04-7.19-.67-14.91 1.62-19.34 4.42-1.07.67-2.96 2-4.15 3.32-.63.7-.99 1.92-1.66 2.76-.7.89-1.7 1.45-2.21 2.21-3.04 4.5-4.13 9.05-4.7 15.75-.58 6.82.21 12.8 3.87 16.03 5.4-1.37 7.01 3.06 10.22 4.15 1.56.52 2.79-.32 4.7.83.49.52.2 1.82.28 2.76-.82 1.02-2.67.6-3.87 1.11-1.52.64-2.69 2.39-4.14 3.59-2.87 2.37-5.52 4.42-9.67 5.8-1.69 4.71-1.18 10.01-.55 14.37.73 5.02 2.5 10.16 4.97 14.37 4.25 7.22 9.22 11.66 16.3 15.75 2.7 1.56 5.61 2.85 8.29 4.42.36.77-.64 1.39-1.11 1.93-1.51 1.78-3.52 3.37-5.53 5.25-2.4 2.25-5.68 4.75-6.36 7.74-.22.96.23 2.58 0 4.15-.38 2.64-2.7 5.77-2.21 8.57.84 4.79 11.66 4.38 17.13 3.32 4.01-.78 8.12-2.35 12.16-3.59 6.09-1.87 11.56-5.02 19.34-5.25 1.8-.05 3.84.78 5.8 1.38 1.76.54 3.52.81 4.97 1.38 2.93 1.15 5.71 2.89 8.84 3.87 1.49.47 3.57.62 5.53 1.11 4.32 1.08 11.74 1.9 16.58-.28 1.33-.6 3.4-1.93 3.87-4.14.72-3.45-1.46-6.44-1.93-8.84-.33-1.69.38-3.18 0-4.42-.4-1.3-2.02-1.98-3.59-3.04-3.78-2.55-8.13-5.01-9.67-9.67 1.08-1.32 2.98-1.43 4.42-1.93 6.56-2.29 11.95-6.1 16.3-10.78 5.07-8.33 10.38-17.67 9.14-31.81zm-41.73 38.13c.21 3.41-1.77 6.59-1.66 9.4.18 4.53 3.79 5.98 5.53 9.67-3.51-.6-7.07-1.82-10.78-3.04-4.99-1.64-8.76-3.9-15.75-3.32-7.67.64-14.15 3.89-20.72 6.08.4-2.42 2.87-3.38 3.32-6.08.29-1.75-.75-4.11-1.11-6.08-.47-2.62-.39-5.93-.28-8.29.06-1.26.54-2.63.28-3.59-.51-1.87-7.42-4.45-9.39-5.53-5.43-2.96-8.51-5.99-11.88-10.78-3.23-4.58-4.57-11.55-3.87-19.62 2.44.05 4 .97 6.36 1.11 6.98 18.58 17.75 33.2 32.05 45.59 1.77 1.53 4.49 4.71 6.36 4.7 1.53-.01 3.67-2.23 5.53-3.87 5.83-5.14 11.1-9.85 16.3-15.75.35-.39.4-.93.83-1.38.95-1.02 2.01-2.46 3.04-3.87 1.77-2.41 3.53-5.42 5.25-8.29 3.16-5.28 6.5-10.31 8.57-17.13 2-.43 3.21-2.37 5.25-2.21 2.9.23 2.87 3.46 2.76 7.74-.06 2.37-.5 7.59-1.38 9.4-1.82 3.73-3.86 6.44-6.63 9.4-2.15 2.29-4.67 4.4-8.01 5.8-4.07 1.71-7.51 1.5-10.78 4.7-.36 2.08.69 3.37.81 5.24zm9.39-81.79c2.75 0 5.8-.48 8.29.83 1.55 6.58.74 13.46 0 19.62-.74 6.17-2.2 12.13-3.87 17.13-6.87 20.61-20.85 35.92-35.92 47.8-6.44-3.58-11.13-9.56-15.75-15.47-4.35-5.57-8.78-11.59-12.16-18.79-1.6-3.41-3.02-7.3-4.42-11.33-3.14-9.05-5.66-20.54-4.42-33.71.37-3.92.07-5.72 3.04-6.08 5.61-.67 12.42 0 18.79 0h46.42zm-28.18-5.8c7.91.03 16.71-3.27 24.59-4.14 6.42-.71 13.14.72 15.47 4.42-12.97-.93-27.35 1.24-39.79 0-.47-.06-.57-.17-.27-.28zm-42.83.55c-1.1-.01.89-1.62 1.38-1.93 6.86-4.44 19.73.19 27.08 1.66-8.93.64-19.07.09-28.46.27zm85.66 40.9c-.45 1.94-2.62 2.17-4.42 2.76-.11-2.59.73-4.24 1.66-5.8 1.43.5 2.14 1.73 2.76 3.04zm-.55-20.18c-.15-6.27-.03-13.84-.83-19.62 2.5 2.28 4.01 7.96 4.15 13.26.08 3.26.13 7.97-2.76 9.12-1.05-.44-.54-1.97-.56-2.76zm-21.56-45.87c-2.92-.39-6.04-.59-8.57-1.38 1.59-1.82 7.08.27 8.01-2.21.02-2.37-.13-4.92.28-6.91 1.04 3.01.48 7.59.28 10.5zm-14.36-7.18c1.74-3.18 5.99-4.88 10.78-4.15-.01 2.2.34 4.77-1.11 5.53-3.88.2-6.61-.76-9.67-1.38zm13.26-26.25v-.83h.55c2.5 1.73.49 6.08.55 9.12.03 1.55 1.4 2.93 0 3.87-1.31-1.21-.73-3.57-.83-5.53-.11-2.23-.48-4.52-.27-6.63zm-13.26-4.98c2.35.55 6.55 1.94 9.67.28 1.1 2.69.4 6.07.55 9.4.12 2.62.48 5.18.28 7.74-2.52-.41-4.82.86-7.18.83-.47-.01-.93-.05-1.39-.12-.96.16-1.8.63-2.58 1.17.13.01.25.03.38.05-.39.61-1.06.94-1.95 1.06-.45.31-.9.56-1.36.73-.23 1.37-1.93 2.3-2.22 3.74-.33 1.63.48 3.14.55 4.42-2.66.09-1.66-3.67-1.66-5.53 0-6.95-.34-14.43-.28-21.83 2.13-2.11 3.92-2.7 7.19-1.94zm-3.32 31.51c1.02-1.85-.69-3.36-1.11-4.7.69-3.87 5.42-7.03 10.78-7.46 3.76-.3 12.98.73 12.43-3.59-.2-1.58-1.89-1.14-2.49-2.76.79-3.9 4.99-4.4 9.95-4.15-.44 1.31-1.58 1.92-1.93 3.32.73 1.76 2.73 2.24 3.87 3.59-2.23.25-4.28.69-6.08 1.38-.77-1.13-.94-3.83-3.04-2.76 1.2 1.5.8 5.59 1.11 8.57-3.17 3.1-9.28 1.22-14.09 2.21-3.11.64-8.18 4.1-8.84 7.18-.29 1.36-.11 2.79 1.38 3.04 1.54-.21.15-2.11.55-2.49 2.72-.13 2.1 3.75.28 4.42-2.56.94-5.65-1.51-5.53-3.32.68-.51 2.41.02 2.49-1.11-.85-2.22-4.22 1.72-4.97-1.11 1.11-1.48 3.37-.34 5.24-.26zm-13.73-10.8c-.96-1.1-6.43-4.96-6.45-4.96-1.23-.24-1.67-1.2-2.49-1.66v-13.54c6.76 1.86 13.17-4.43 17.41.55.37 9.5.29 19.63 0 28.46-2.89.08-2.94-2.68-4.41-4.02m-17.41-21.11c.37-.18.51-.59.55-1.11h.83c.99.59.55 3.26.55 4.97 0 1.74.22 3.82-.28 4.97-2.06.4-1.58-2.11-1.66-3.59-.09-1.82.08-3.84.01-5.24zm-5.53 18.51c.65.88 3.1-.92 2.49 2.21-1.72-.03-3.03-.47-3.87-1.38.05-3.27 2.21-4.42 1.66-8.29 3.14-2.26 8.76.37 11.33 1.93 1.11.67 2.44 1.26 3.32 1.93 5.93 4.6 9.74 12.47 14.09 17.13 1.26 1.35 3.34 3.74 6.63 2.76 1.17-.35 1.56-.89 1.93-2.49 1.75 3.69-2.43 5.97-2.76 9.4-4.22.15-6.36-1.57-9.12-3.87-1.52-1.27-3.39-2.78-4.42-4.14-1.87-2.48-2.8-5.78-4.7-8.29-2.32-3.06-6.55-7.16-10.78-8.57-2.3-.75-6.1-.98-5.8 1.67zm10.78 3.31c2.21 1.47 4.01 3.36 5.25 5.8-.81 1.13-3.44.94-4.97.55.12-2.33-.5-3.92-.28-6.35zm-4.42 11.61v-13.82h.83c.75 4.33-1.26 8.93.55 11.61 2.4 3.54 8.09.04 11.61 1.38-3.62.73-9.59 2.54-12.99.83zm8.01 10.22c1.02.18 1.45.95 1.66 1.93h-1.66c.08-1.14-.36-1.07 0-1.93zm0-3.31c-.88.04-1.22.63-1.11 1.66-1.87-.25-1.03-3.21-1.93-4.42 1.41-.43 3.14-.54 4.97-.55.5 2.08 1.35 3.81 1.11 6.63-1.66-.46-1.35-2.9-3.04-3.32zm-30.95 38.96c.16 2.59 1.31 5.27 0 7.46-1.58-.31-1.8-2.63-2.21-4.42-1.62-7.09-1.66-18.55 3.32-22.38.23-.05.26.11.28.28-.68 5.66-1.79 12.63-1.39 19.06zm-4.69-11.6c-1.64 7.67.3 14.77 3.04 20.72-3.82-1.52-5.93-4.76-11.33-4.7-1.92-5.05-3.02-12.63-1.38-19.9.38-1.67 1.56-3.97 2.49-5.8 4.48-8.9 15.11-16.79 29.84-13.82 4.06.82 8.09 2.49 12.44 3.32 7.81 1.49 16.94 1.31 23.76-.83 3.76-1.18 10.05-2.89 14.92-3.32 14.1-1.25 24.47 4.14 29.29 12.99 3.77 6.92 6.3 16.96 1.38 24.87-4.64.15-6.12 3.46-10.78 3.59 2.36-1.55 3.68-3.43 4.14-6.91.78-5.84-.82-13.73-3.04-17.13-3.02-4.63-9.41-8.47-16.86-8.29-4.48.11-9.36 1.61-14.09 2.49-9.3 1.72-19.44 3.47-29.57 1.38-4.57-.94-9.08-2.41-13.54-2.76-5.52-.44-10.2.59-13.26 2.76-2.86 2.03-6.54 7.05-7.45 11.34zm6.07 29.29c2.23.99 2.12 4.33 2.76 6.91-1.88-.15-2.91-1.14-4.97-1.11-.09-2.77.66-4.69 2.21-5.8zm9.95 52.5c-8.55-4.53-16.7-9.94-21.28-19.07-2.37-4.72-4.47-11.62-4.97-18.79-.15-2.17-.22-3.84.83-5.8.67-1.16 2.02-1.35 3.04-1.93 3.36-1.94 6.39-4.45 9.4-7.19.24-.05.26.11.28.28-3.46 9.1-2.2 22.21 2.76 29.01.5.68 1.07 1.22 1.66 1.93 2.45 2.96 4.71 5.15 8.29 7.18 1.2.68 2.24 1.63 3.32 2.21 2.4 1.29 4.99 2.08 7.18 3.59-.16 5.15-.11 9.99.55 15.47-.19 1.12-1.16-.9-1.66-1.38-2.36-2.26-6.2-3.82-9.4-5.51zm-3.31 11.6c2.24-2.24 4.67-4.26 6.63-6.63 2.22-.34 6.35 3.16 6.63 4.42.83 3.69-3.75 6.18-5.8 8.29-3.6.47-8.14 1.42-12.16.55-.04-2.75 2.83-4.76 4.7-6.63zm79.85 4.98c.4 1.91.46 3.5 1.11 5.8.4 1.42 1.74 3.48 1.38 5.25-.53 2.61-5.69 3.68-9.4 3.87-7.74.4-14.24-2.06-19.9-4.14-4.27-1.57-9.89-4.7-16.3-4.15-2.87.25-6.37 1.28-9.4 2.21-8.1 2.48-18.09 6.46-27.08 7.18-3.32.27-5.97.18-8.29-2.21-.11-4.16 2.14-5.96 1.66-10.5 6.67 2.31 13.94-.66 19.34-2.49 3.88-1.31 7.86-2.54 12.43-3.87 3.82-1.11 7.37-2.79 12.99-2.21 6.22.64 12.28 4.07 18.51 5.8 1.11.31 2.48.25 3.59.55 1.08.29 1.75.93 2.76 1.11 5.45.96 13.16.42 16.6-2.2zm-1.38-1.66c-2.09 2.78-8.72 1.9-12.99 1.66-.79-1.17-2.5-1.79-3.59-3.04-.8-.92-2.19-2.8-2.21-3.87-.04-2.07 3.79-6.27 7.46-6.08.98 6.58 7.99 7.12 11.33 11.33zm15.75-39.79c-2.3 6.82-6.21 13.3-11.33 17.68-.93.8-1.95 1.92-2.76 2.49-4.58 3.2-11.06 4.15-16.3 6.63-2.04.96-4.43 2.64-5.25 5.25-2.57-2.44.04-6.48.28-9.67.16-2.25-1.04-4.43-.55-5.53.64-1.44 5.16-2.26 6.91-3.04 5.46-2.43 9.94-5.1 13.82-9.67.65-.77 1.2-1.99 1.93-3.32 2.31-4.15 3.88-9.99 3.32-17.41-.24-3.15-1.21-6.46-2.21-9.4 2.93.66 6.29 3.29 11.61 2.49 3.9 5.43 2.58 17.42.53 23.5z" id="path9" clip-rule="evenodd" fill-rule="evenodd" fill="#fff" fill-opacity="1"/><path class="st0" d="M144.46 314.85c-.25-.37-1.96-1.22-1.66.28-.26-.26 1.62.61 1.66-.28z" id="path11" clip-rule="evenodd" fill-rule="evenodd" fill="#fff" fill-opacity="1"/><path class="st0" d="M157.99 308.9c-.26-.04-.51-.08-.76-.12.18.17.45.17.76.12z" id="path13" clip-rule="evenodd" fill-rule="evenodd" fill="#fff" fill-opacity="1"/><path class="st0" d="M157.23 308.78c-1.82-.29-3.55-.54-5.03.82.44 1.41 1.92.37 3.49.5.78-.54 1.63-1.01 2.58-1.17-.09-.01-.18-.03-.27-.04-.32.06-.59.06-.77-.11z" id="path15" clip-rule="evenodd" fill-rule="evenodd" fill="#fff" fill-opacity="1"/><path class="st0" d="M152.75 311.26c.05.24.05.47.01.68.46-.16.91-.42 1.36-.73-.41.07-.86.09-1.37.05z" id="path17" clip-rule="evenodd" fill-rule="evenodd" fill="#fff" fill-opacity="1"/><path class="st0" d="M144.19 307.39c-.44-.67-1.83-.98-2.76-1.11-1.72-.22-4.26-.39-6-.28h-.07c-.89.06-1.65.68-2.43.56.02.14 1.83 1.72 2.05 1.57 1.94-1.3 6.24-.73 9.21-.74z" id="path19" clip-rule="evenodd" fill-rule="evenodd" fill="#fff" fill-opacity="1"/><path class="st0" d="M135.42 306.01h-.07.07z" id="path21" clip-rule="evenodd" fill-rule="evenodd" fill="#fff" fill-opacity="1"/><path class="st0" d="M135.34 299.38h-1.93c-1.43-1.86-.25-7.34 2.21-4.42-.13 1.43.3 3.43-.28 4.42zm-.82-1.66c.38-.35.43-1.35-.28-1.38-.15.71-.37.97.28 1.38z" id="path23" clip-rule="evenodd" fill-rule="evenodd" fill="#fff" fill-opacity="1"/><path class="st0" d="M163.53 295.51c-3.63.4-7-.13-10.5-.28.96-1.57 4.19-1.03 6.63-.83 1.41.12 3.78-.57 3.87 1.11z" id="path25" clip-rule="evenodd" fill-rule="evenodd" fill="#fff" fill-opacity="1"/><path class="st0" d="M144.19 295.79c-1.42.43-4.67.48-6.08 0-.37-1.31 1.57-.73 2.49-.83 1.49-.17 3.59-.83 3.59.83z" id="path27" clip-rule="evenodd" fill-rule="evenodd" fill="#fff" fill-opacity="1"/><path class="st0" d="M144.19 297.17c-1.17 1.41-4.93.79-6.36 0 2-.38 4.71-.8 6.36 0z" id="path29" clip-rule="evenodd" fill-rule="evenodd" fill="#fff" fill-opacity="1"/><path class="st0" d="M162.7 297.17c-3.15.32-7.36.86-10.22.55.24-.22.16-.76.55-.83 2.57-.33 7.54-.74 9.67.28z" id="path31" clip-rule="evenodd" fill-rule="evenodd" fill="#fff" fill-opacity="1"/><path class="st0" d="M143.91 299.38c-.64 1.06-4.96.58-6.36.28-.17-.25-.33-.49 0-.55.64-.22 5.63-.85 6.36.27z" id="path33" clip-rule="evenodd" fill-rule="evenodd" fill="#fff" fill-opacity="1"/><path class="st0" d="M163.25 299.1c-.6 1.41-.33 1.41.28 2.49-2.57 1.21-7.31.24-10.78.55 1.17-2.24 6.96.08 9.67-1.66-1.93-1.05-6.96.42-9.67-.55-.44-1.08.72-.57.83-1.11 3.09.78 6.52-.46 9.67.28z" id="path35" clip-rule="evenodd" fill-rule="evenodd" fill="#fff" fill-opacity="1"/><path class="st0" d="M144.46 301.59c-.62 1.01-2.66.54-4.14.55-1.5.01-3.15-.01-4.42 0-1.16.01-2.25.71-2.76-.28-.05-.24.11-.26.28-.28 3.06-.42 7.98-.47 11.04.01z" id="path37" clip-rule="evenodd" fill-rule="evenodd" fill="#fff" fill-opacity="1"/><path class="st0" d="M133.41 303.8c-.02.35-.35.38-.28.83 2.4.04 5.59-.05 8.01 0 1.33.03 3.11 1.02 3.59-.55-3.14-.56-8.59-.22-11.32-.28z" id="path39" clip-rule="evenodd" fill-rule="evenodd" fill="#fff" fill-opacity="1"/><path class="st0" d="M163.53 304.35c-3.47.4-7.05.69-11.05.55.35-1.84 3.4-1.02 5.53-1.1 1.97-.08 4.99-1.08 5.52.55z" id="path41" clip-rule="evenodd" fill-rule="evenodd" fill="#fff" fill-opacity="1"/><path class="st0" d="M156.68 307.14c-1.28-.5-2.74-.28-4.05.17 1.07.38 2.59-.07 4.05-.17z" id="path43" clip-rule="evenodd" fill-rule="evenodd" fill="#fff" fill-opacity="1"/><path class="st0" d="M158 306.29c-2.2.1-4.64-.42-6.08.55.2.23.44.37.71.46 1.31-.45 2.77-.67 4.05-.17.07-.01.14-.02.22-.02.49-.02 1.03-.01 1.59.02.51-.38 1.01-.64 1.52-.14-.51-.51-1.01-.24-1.52.14 2.18.11 4.61.37 5.32-.85-1.21-1.02-3.67-.09-5.81.01z" id="path45" clip-rule="evenodd" fill-rule="evenodd" fill="#fff" fill-opacity="1"/><path class="st0" d="M125.95 307.12h.83c-.04 1.34-.44 2.33-.83 3.32.04.51.94.17 1.11.55-.21 1.03-1.55.15-2.21 0 .42-1.23.77-2.54 1.1-3.87z" id="path47" clip-rule="evenodd" fill-rule="evenodd" fill="#fff" fill-opacity="1"/><path class="st0" d="M129.26 308.22c.82.44 2.16.67 1.38 1.93-.41-.14-.7-.41-1.11-.55-.19.74.57.53.83.83-.15.22-.29.45-.28.83-.88.16-.85-.52-1.38 0 .11.98 1.21.55.55 1.66-.56-.26-1.09-.56-1.66-.83.35-1.51 1.34-2.36 1.67-3.87z" id="path49" clip-rule="evenodd" fill-rule="evenodd" fill="#fff" fill-opacity="1"/><path class="st0" d="M145.02 309.33c-1.18 1.22-5.26 1-7.18.55-.06-1.17 2.12-1.05 3.32-1.1 1.57-.08 3.17-.19 3.86.55z" id="path51" clip-rule="evenodd" fill-rule="evenodd" fill="#fff" fill-opacity="1"/><path class="st0" d="M134.52 311.26c-.15.22-.29.45-.28.83-.4.31-.67.3-.83-.28-.93.63-.91 2.22-2.21 2.49-.56-.98.79-2.06 1.38-2.76-.11-.53-1.07-.22-.83-1.11 1.09-.81 1.85.6 2.77.83z" id="path53" clip-rule="evenodd" fill-rule="evenodd" fill="#fff" fill-opacity="1"/><path class="st0" d="M170.99 310.43c.25.12.49.24.55.55.28.83-.62.49-1.11.55.12.95.63 2.49 0 3.32-.92-.1-.43-1.59-.55-2.49-.11-.81-1.6-.24-1.1-1.66.66-.16 2.01.36 2.21-.27z" id="path55" clip-rule="evenodd" fill-rule="evenodd" fill="#fff" fill-opacity="1"/><path class="st0" d="M165.46 310.99c1.22-.39 0 1.65.83 1.66 1.49.57.34-1.51 1.11-1.66 1.03.17.6 3.25.28 3.87-1.22.39 0-1.65-.83-1.66-1.49-.57-.34 1.51-1.11 1.66-1.03-.18-.6-3.26-.28-3.87z" id="path57" clip-rule="evenodd" fill-rule="evenodd" fill="#fff" fill-opacity="1"/><path class="st0" d="M163.25 312.92c-1.22.67-1.84.87-.28 1.11-.36.38-1.2.27-1.93.28-.91-1.37 1.14-2.81 1.93-1.66-.34-3.03-4.09.09-2.76 1.93.16-.66.58.67.83.83 1.11.16 3.3-.68 2.21-2.49z" id="path59" clip-rule="evenodd" fill-rule="evenodd" fill="#fff" fill-opacity="1"/><path class="st0" d="M144.46 312.09c-.69.82-2.24.51-3.32.28.16-1.2 2.8-1.05 3.32-.28z" id="path61" clip-rule="evenodd" fill-rule="evenodd" fill="#fff" fill-opacity="1"/><path class="st0" d="M157.45 312.64c1.22.59 2.22 2.67 1.93 3.87-1.22-.59-2.21-2.67-1.93-3.87z" id="path63" clip-rule="evenodd" fill-rule="evenodd" fill="#fff" fill-opacity="1"/><path class="st0" d="M137 313.75c1.55.05 2.84 3.21 1.11 1.93-1.09.38-1.68 2.44-2.76 1.93-.45-.94 1.27-1.77 1.93-2.49-.24-.48-.88-.8-.28-1.37z" id="path65" clip-rule="evenodd" fill-rule="evenodd" fill="#fff" fill-opacity="1"/><path class="st0" d="M154.69 314.03c.91.66 1.48 1.65 1.93 2.76.43-.33 1.08-.88 1.66-.28-.41.7-1.07 1.14-1.93 1.38-.33-1.39-2.39-2.31-1.66-3.86z" id="path67" clip-rule="evenodd" fill-rule="evenodd" fill="#fff" fill-opacity="1"/><path class="st0" d="M140.59 316.79c.39 1.4-1.27.76-1.11 1.93.05.22.28.28.28.55.76-.11 1.18-1.28 1.93-.55-.72 1.31-2.04 2.01-3.59 2.49-.34-1.26.97-.87 1.11-1.66-.05-.22-.28-.28-.28-.55-1.07-.26-1.14 1.08-1.93.28.81-1.23 2.15-1.91 3.59-2.49z" id="path69" clip-rule="evenodd" fill-rule="evenodd" fill="#fff" fill-opacity="1"/><path class="st0" d="M142.25 320.38c.82.11 1.32 1.37.83 1.93-.74.19-.53-.57-.83-.83-1.17.44.6.99-.55 1.66-.52-.03-.19-.91-.83-.83-1.16.44.6.99-.55 1.66-.61-.22-.36-1.3-1.11-1.38.63-1.12 2.19-1.31 3.04-2.21z" id="path71" clip-rule="evenodd" fill-rule="evenodd" fill="#fff" fill-opacity="1"/><path class="st0" d="M142.25 325.35c-.2-.68-.83.91-1.38 0 .8-1.22 2.15-1.91 3.59-2.49.5.92.61 1.52 0 2.49-1.72-.56-1.66.49-2.21 1.66-.88-.08-.55-1.46 0-1.66zm1.38-.55c.03-.44.71-.22.55-.83-.56-.24-1.23.72-.55.83z" id="path73" clip-rule="evenodd" fill-rule="evenodd" fill="#fff" fill-opacity="1"/><path class="st0" d="M145.57 327.01c-.21.85.76.53.55 1.38-.97.51-.91-.21-1.66-.55-1.02.58.84 1.17 0 1.66-.89-.21-1.45-.76-1.66-1.66 1.12-.53 2.01-1.31 3.04-1.93.95.06 1.2.82 1.38 1.66-.22.05-.28.28-.55.28-.88.23-.38-.92-1.1-.84z" id="path75" clip-rule="evenodd" fill-rule="evenodd" fill="#fff" fill-opacity="1"/><path class="st0" d="M148.88 329.22c.78.23.94 1.09 1.38 1.66-.95 2.13-1.64 3.74-3.87 1.66.72-1.22 1.73-2.15 2.49-3.32zm0 2.21c-.04-.37 1.12-.83.28-1.11.04.38-1.12.84-.28 1.11zm-1.38 1.11c.49.69 1.66-.69.55-.83-.06.39-.45.47-.55.83z" id="path77" clip-rule="evenodd" fill-rule="evenodd" fill="#fff" fill-opacity="1"/><path class="st0" d="M150.82 330.61c.8.3 1.87.34 1.93 1.38-.58.6-.79-.14-1.66 0 .05.78 1.31.34 1.11 1.38-.58.6-.79-.14-1.66 0-.04 1.2 1.64.68.83 1.93-.55-.37-1.32-.53-1.93-.83.17-1.57 1.1-2.39 1.38-3.86z" id="path79" clip-rule="evenodd" fill-rule="evenodd" fill="#fff" fill-opacity="1"/><path class="st0" d="M181.21 340c.53.3 1.47.19 1.11 1.38-3.26-2.21 3.15 6.84-1.93 4.42-.13-1.13.59.11 1.38-.28-.25-2.39-2.53-3.56-.56-5.52z" id="path81" clip-rule="evenodd" fill-rule="evenodd" fill="#fff" fill-opacity="1"/><path class="st0" d="M170.99 340.83h2.21c1.54 1.57 2.35 6.52-1.38 6.36-.27-2.13-.73-4.06-.83-6.36zm1.38 5.25c2.28.07 1.24-3.98 0-4.42h-.55c.08 1.57.53 2.78.55 4.42z" id="path83" clip-rule="evenodd" fill-rule="evenodd" fill="#fff" fill-opacity="1"/><path class="st0" d="M185.64 340.83c1.07-.04 2.94.55 2.49 1.11.19.92-.57.45-.83.28-.71 1.59-1.22 3.38-1.66 5.25-1.9-1.04.67-3.64.55-5.53-.12-.44-.87-.24-.55-1.11z" id="path85" clip-rule="evenodd" fill-rule="evenodd" fill="#fff" fill-opacity="1"/><path class="st0" d="M118.76 341.38c-.08.75-1.01.65-1.11 1.38-.18 1.48.36 3.68-.28 4.7-1.86-1.08 1.06-5.74-1.38-5.8-.13-.99 2.49-.63 2.77-.28z" id="path87" clip-rule="evenodd" fill-rule="evenodd" fill="#fff" fill-opacity="1"/><path class="st0" d="M168.78 341.11v.55c.26 1-1.19.28-1.38.83.23.32.36.74.28 1.38.09.38.69.23 1.11.28-.22 1.49-.99.9-.55 2.76.96.22 1.17-.52 1.66 0 .06 1.16-1.79.42-2.21 1.11-.69-1.89-.93-4.23-1.38-6.36.76-.23 1.69-.32 2.47-.55z" id="path89" clip-rule="evenodd" fill-rule="evenodd" fill="#fff" fill-opacity="1"/><path class="st0" d="M121.25 341.38c1.3.12.27 1.14.55 2.49 1.97.59.6-2.17 1.93-2.21.12 1.47-.2 4.73-.83 6.36-1.24-.17.22-1.83-.28-3.04-.39.02-.78.05-.83-.28-.6.69-.18 2.4-.83 3.04-1.25-.97.44-3.55 0-5.53.34-.04.25-.5.29-.83z" id="path91" clip-rule="evenodd" fill-rule="evenodd" fill="#fff" fill-opacity="1"/><path class="st0" d="M109.65 342.21c.25.89-.9.39-1.11.83-.2.84.48.81.28 1.66.96.22 1.17-.52 1.66 0 .08.73-.38.91-1.11.83-.1 1.17 1.17 2.45 0 3.04-.98-1.79-1.34-4.18-2.21-6.08.69-.22 2.27-1.28 2.49-.28z" id="path93" clip-rule="evenodd" fill-rule="evenodd" fill="#fff" fill-opacity="1"/><path class="st0" d="M126.78 342.21c.97-.05 1.77.07 2.21.55-.16.98-2.31-.39-1.66 1.93-.09.73 1.55-.26 1.1.83-.37.35-.54.83-1.1.28-.4.34-.52.95-.55 1.66.22.61 1.71-.05 1.38 1.11-.8-.03-1.81.15-2.21-.28-.05-2.35.78-3.83.83-6.08z" id="path95" clip-rule="evenodd" fill-rule="evenodd" fill="#fff" fill-opacity="1"/><path class="st0" d="M164.36 342.76c-2 .76 1.47 4.71-.28 6.08-.8-1.51-.96-3.64-1.38-5.53-.63-.38-1.04.71-1.11 0 .12-1 2.52-1.35 2.77-.55z" id="path97" clip-rule="evenodd" fill-rule="evenodd" fill="#fff" fill-opacity="1"/><path class="st0" d="M158.83 343.32c.43-1.01.41.64 1.11.28.37 2.12 1.48 3.49 2.21 5.25-.47.81-1.59-.05-1.38-.83h-1.11c-.38.06.36 1.96-1.11 1.66.32-2.25.27-3.68 0-5.8.32.05.49-.06.55-.28.06-.24-.1-.27-.27-.28zm.55 4.14c.41-.05 1.02.1 1.11-.28-.73.06-.32-2.42-1.11-1.38.62.12.22 1.47 0 1.66z" id="path99" clip-rule="evenodd" fill-rule="evenodd" fill="#fff" fill-opacity="1"/><path class="st0" d="M191.71 343.32c1.46 1.86-2.23 3.02-1.93 5.53 2.13-.48 2.28-4.31 4.14-4.14-1.16 2.07-1.58 4.87-4.7 4.97-1.39-2.68 1.64-4.27 2.49-6.36z" id="path101" clip-rule="evenodd" fill-rule="evenodd" fill="#fff" fill-opacity="1"/><path class="st0" d="M135.34 343.87c1.09 1.61.4 4.85.28 6.63-.89-.53-.22-1.59-1.66-1.93-.41.23-.59.7-.55 1.38-.53-.12-1.19-.1-1.11-.83.23-.05.26.11.28.28.79-1.51 1.63-2.97 1.93-4.97.48 0 .72-.21.83-.56zm-1.38 4.42c.41-.05 1.02.1 1.11-.28-.7-.01.93-2.26-.28-1.93.47 1.48-1.06.97-.83 2.21z" id="path103" clip-rule="evenodd" fill-rule="evenodd" fill="#fff" fill-opacity="1"/><path class="st0" d="M154.96 343.87h.83c-.1 2.26 1.23 4.42.55 6.36-1.07-1.51-.9-4.26-1.38-6.36z" id="path105" clip-rule="evenodd" fill-rule="evenodd" fill="#fff" fill-opacity="1"/><path class="st0" d="M106.61 349.67c-2.48 2.78-4.92-2.04-4.97-4.15 2.52-2.57 4.73 1.84 4.97 4.15zm-1.39 0c1.03-1.44-.59-3.67-2.21-4.15-.94 1.53.58 3.58 2.21 4.15z" id="path107" clip-rule="evenodd" fill-rule="evenodd" fill="#fff" fill-opacity="1"/><path class="st0" d="M151.37 344.42h1.66c-.25.67-.71 1.13-1.38 1.38 0 2.12-.08 4.32 2.21 4.15-.08 1.62-2.04.47-2.49 0-.48-2.26-.72-3.73 0-5.53z" id="path109" clip-rule="evenodd" fill-rule="evenodd" fill="#fff" fill-opacity="1"/><path class="st0" d="M140.32 345.8c-2.48-.76-.76 2.93 0 3.32-.25 1.13-.98 1.78-2.21 1.93.11-.67-.5-.6-.28-1.38.49.24.81.88 1.38.28-.01-2.29-1.45-2.31-1.11-4.42.54-.78 2.14-1.31 2.22.27z" id="path111" clip-rule="evenodd" fill-rule="evenodd" fill="#fff" fill-opacity="1"/><path class="st0" d="M148.06 351.33c-3.12.1-3.32-8.06.28-6.36.47 1.98 1.5 5.15-.28 6.36zm-.83-.83c1.88-.14 1.23-4.58-.28-4.7-.61.56-.49 3.83.28 4.7z" id="path113" clip-rule="evenodd" fill-rule="evenodd" fill="#fff" fill-opacity="1"/><path class="st0" d="M143.91 345.53c.19 1.14-.97-.29-1.38.55.41 2.04 2.64 3.26.83 5.25-.69.04-1.15-.14-1.38-.55-.19-1.14.97.29 1.38-.55.59-1.39-1.92-2.43-1.66-3.87.11-.62.97-2.24 2.21-.83z" id="path115" clip-rule="evenodd" fill-rule="evenodd" fill="#fff" fill-opacity="1"/><path class="st0" d="M196.96 347.74c.86.59 1.36 1.46 1.38 1.93.07 1.36-2.6 3.96-4.14 3.87-1.03-.06-2.16-.9-2.21-1.38-.13-1.2 4.67-3.22 4.97-4.42zm-3.31 4.69c1.83.7 4.24-2.11 3.32-3.32-.83 1.4-2.8 1.63-3.32 3.32z" id="path117" clip-rule="evenodd" fill-rule="evenodd" fill="#fff" fill-opacity="1"/><path class="st0" d="M99.42 355.2c.65-.09.16-1.31 1.11-1.11.73.87-.58 1.46-.55 2.49-1.9-1.32-4.51-1.94-5.8-3.87 1.68-.16 3.43 1.87 5.24 2.49z" id="path119" clip-rule="evenodd" fill-rule="evenodd" fill="#fff" fill-opacity="1"/><path class="st0" d="M201.11 353.26c-.05.98 1.17 1.51.55 2.21-.87.13-.78-.69-1.11-1.11-.53.12-.69.6-1.38.55-.14.87.6 1.08 0 1.66-.89.24-.38-.91-1.11-.83-.53.12-.69.6-1.38.55.04.94.61 1.52-.28 1.93-.53-.58-.89-1.32-1.11-2.21 2.1-.76 3.42-2.29 5.82-2.75z" id="path121" clip-rule="evenodd" fill-rule="evenodd" fill="#fff" fill-opacity="1"/><path class="st0" d="M98.87 357.96c.04.5-.34.58-.28 1.11-.56-.48-.54.21-1.11-.28-.26.2-.42.5-.55.83.54.5 1.77 1.65.28 1.93-.05-.23.11-.26.28-.28-1.72-1.23-4.05-1.84-5.25-3.59 2.35-.54 4.69.95 6.63.28zm-2.21 1.66c-.05-.41.1-1.02-.28-1.1-.27.95-1.59-.74-1.93.28 1.1-.1 1.13.89 2.21.82z" id="path123" clip-rule="evenodd" fill-rule="evenodd" fill="#fff" fill-opacity="1"/><path class="st0" d="M200.56 360.72c.69.49 2.26-.49 3.32-.55-.02.39-.04.78.28.83-2 .68-4.02 1.32-6.36 1.66v-1.11c1.39-.56 1.38.43 2.49 0-.09-.38-.69-.23-1.11-.28-.01-.84 1.39-.27 1.38-1.11-.87.33-2.08.31-2.76.83-.37-.18-.52-.59-.55-1.11 2.32-.25 3.91-1.25 6.36-1.38-.11 1.67-1.93 1.6-3.05 2.22z" id="path125" clip-rule="evenodd" fill-rule="evenodd" fill="#fff" fill-opacity="1"/><path class="st0" d="M185.64 361.55c1.13 16.05-1.64 30.59-6.91 41.17-4.84-3.56-8.16-9.72-12.71-14.92-1.5-1.72-3.75-3.52-4.14-4.97-.85-3.11 0-7.36 0-11.05 0-3.58-.23-7.08.28-10.5 7.14-.3 16.78-.79 23.48.27zm-13.54 10.78c-1.52.14-3.62-.3-4.7.28-.01 2.07 2.75 2.93 3.59 4.97-.75 1.88-1.93 4.5-1.38 6.08 1.92-.94 2.89-2.82 5.25-3.32 1.84.65 2.52 2.45 4.7 2.76.66-2.19-1.26-4.04-1.38-6.36.92-1.57 2.83-2.14 3.32-4.15-1.04-.99-2.53.01-4.42-.28-.99-1.49-.62-4.36-2.49-4.97-.86 1.65-1.25 3.75-2.49 4.99z" id="path127" clip-rule="evenodd" fill-rule="evenodd" fill="#fff" fill-opacity="1"/><path class="st0" d="M91.13 361.83h.83c.04.68.04 1.33-.28 1.66 1.18.07 2.36.15 2.49-.83 1.13-.08.15.58.28 1.11.49.16 1.62-.33 1.66.28.87-.05.03-1.81 1.11-1.66.88.3.01 1.24.28 2.49-2.22-.27-4.41-.56-6.63-.83.41-.41.23-1.42.26-2.22z" id="path129" clip-rule="evenodd" fill-rule="evenodd" fill="#fff" fill-opacity="1"/><path class="st0" d="M204.15 363.49c1.14-.07.97 2.14.55 2.76-1.13-1.58-4.6.41-6.36-.28 1.04-1.73 5.65.12 5.81-2.48z" id="path131" clip-rule="evenodd" fill-rule="evenodd" fill="#fff" fill-opacity="1"/><path class="st0" d="M96.66 369.57c-1.14.19.29-.97-.55-1.38-1.39-.59-2.43 1.92-3.87 1.66-.62-.11-2.24-.97-.83-2.21 1.14-.19-.29.97.55 1.38 1.79-.24 3.92-3.13 5.25-.55-.04.51-.18.92-.55 1.1z" id="path133" clip-rule="evenodd" fill-rule="evenodd" fill="#fff" fill-opacity="1"/><path class="st0" d="M204.98 371.23c-1.14.19.29-.97-.55-1.38-1.97.05-2.07 1.98-4.42 1.66-.54-.52-1.32-1.61-.28-2.21 1.14-.19-.29.97.55 1.38 1.39.59 2.43-1.92 3.87-1.66.62.11 2.23.97.83 2.21z" id="path135" clip-rule="evenodd" fill-rule="evenodd" fill="#fff" fill-opacity="1"/><path class="st0" d="M201.66 373.71c.39.34.63 1.05.28 1.38-.75.2-.56-.55-1.11-.55.04-.32.5-.23.83-.28v-.55z" id="path137" clip-rule="evenodd" fill-rule="evenodd" fill="#fff" fill-opacity="1"/><path class="st0" d="M94.45 375.37c.36.1.43.49.83.55 0 .55-.75.35-.55 1.11-.61-.59-1.03-1.03-.28-1.66z" id="path139" clip-rule="evenodd" fill-rule="evenodd" fill="#fff" fill-opacity="1"/><path class="st0" d="M205.53 403c-1.02.01-.31-1.72-1.38-1.66-1.88.05-2.04 1.82-3.32 2.49-1.42.22-1.9-.49-2.76-.83-.03-.86.13-1.53.55-1.93.95.2-.24 2.16 1.66 1.93 1.71-.9 2.85-3.94 5.53-2.21.27.72.48 1.85-.28 2.21z" id="path141" clip-rule="evenodd" fill-rule="evenodd" fill="#fff" fill-opacity="1"/><path class="st0" d="M98.59 403.28c-1.42 1.75-5.62-.74-6.91.83.57 2.29 5.12.59 6.91 1.66-.54 1.26-2.3.35-3.59.28-1.3-.07-2.71.24-3.59-.28-2.41-4.07 4.41-2.93 7.18-2.49z" id="path143" clip-rule="evenodd" fill-rule="evenodd" fill="#fff" fill-opacity="1"/><path class="st0" d="M174.86 410.46c-1.48.67-5.01 1.5-6.63.28-1.28 1.03-3.74.87-5.8 1.11-.46-.46-.22-1.62-.28-2.49-1.08-.67-2.94-.56-3.59-1.66.9-5.94 9.54-5.41 14.65-3.59 1.2 1.46 1.98 3.35 1.65 6.35zm-8.29-5.52c-1.56-.93-4.4-.04-4.97 1.66 2.63-.33 1.84 2.77 3.59 3.32-.17-1.09.41-1.43.83-1.93 2.33.13 4.27-.83 5.25.83.53-.76 1.06-1.52 1.11-2.76-1.12-1.21-3.42-1.21-5.81-1.12z" id="path145" clip-rule="evenodd" fill-rule="evenodd" fill="#fff" fill-opacity="1"/><path class="st0" d="M198.35 405.77h.83v1.66h2.49c.77.12-.22-1.51.55-1.38.93-.28.43.86.55 1.38h2.21c.78.05-.23-1.7.55-1.66 1.12-.11.3 1.72.55 2.49h-7.74c.01-.84.01-1.66.01-2.49z" id="path147" clip-rule="evenodd" fill-rule="evenodd" fill="#fff" fill-opacity="1"/><path class="st0" d="M204.98 411.02h1.11c-.23.69-.36 1.48-.28 2.49-2.41-.63-5.55-.53-7.74-1.38.89-1.23 4.46.55 6.63.28.6.03.13-.99.28-1.39z" id="path149" clip-rule="evenodd" fill-rule="evenodd" fill="#fff" fill-opacity="1"/><path class="st0" d="M152.2 413.78c1.37-.02 1.83 2.01.83 2.76-1.02-.17-.84-1.55-.83-2.76z" id="path151" clip-rule="evenodd" fill-rule="evenodd" fill="#fff" fill-opacity="1"/><path class="st0" d="M154.69 413.78h1.11c.56.64.28 2.12-.28 2.49-.81-.3-.9-1.32-.83-2.49z" id="path153" clip-rule="evenodd" fill-rule="evenodd" fill="#fff" fill-opacity="1"/><path class="st0" d="M100.25 414.33c-.62 1.16-2.46 1.25-3.87 1.66-1.42.41-3.01 1.14-4.14.83.49-1.24 2.56-1.29 3.87-1.66 1.47-.41 2.97-1.22 4.14-.83z" id="path155" clip-rule="evenodd" fill-rule="evenodd" fill="#fff" fill-opacity="1"/><path class="st0" d="M197.52 414.61h.83c.04.68.04 1.33-.28 1.66.69.33 1.63.4 2.49.55.51-.32.19-1.47 1.38-1.11.09.64-.04 1.06-.28 1.38.37.46 1.57.09 1.93.55.95-.07.05-1.97 1.66-1.38-.12.89-.53 1.5-.55 2.49-2.76-.37-5.06-1.2-7.74-1.66.03-.98.44-1.59.56-2.48z" id="path157" clip-rule="evenodd" fill-rule="evenodd" fill="#fff" fill-opacity="1"/><path class="st0" d="M125.95 414.88c.71.21.96.88.83 1.93-.5.04-.58-.34-1.11-.28-.2-.83.29-.99.28-1.65z" id="path159" clip-rule="evenodd" fill-rule="evenodd" fill="#fff" fill-opacity="1"/><path class="st0" d="M128.44 414.88h1.11c-.13.98.45 2.66-.83 2.49-.47-.46-.23-1.62-.28-2.49z" id="path161" clip-rule="evenodd" fill-rule="evenodd" fill="#fff" fill-opacity="1"/><path class="st0" d="M96.11 420.69c.69.67 5.55-2.95 6.08-.28-2.59-.21-5.54 1.63-8.01 1.1-.64-.78 1.04-1.01 1.66-1.38 1.42-1.44 3.39-2.32 5.25-3.32-.03.5.34.58.28 1.11-1.93.76-3.58 1.78-5.26 2.77z" id="path163" clip-rule="evenodd" fill-rule="evenodd" fill="#fff" fill-opacity="1"/><path class="st0" d="M198.07 419.58c.01.93-1.28.56-1.66 1.11.43 1.33 4.69 3.74 5.8 1.93.16-1.08-1.14-.71-1.38-1.38-.73-.08-.22 1.07-1.11.83-.55-.55.09-1.32.28-1.93 1.26.39 2.43.89 3.32 1.66 0 .83-.54 1.32-.83 2.49-1.98.71-4.7-.95-6.63-1.93.08-1.45-.29-1.64 0-2.76.78.58 1.28-1.29 2.21-.02z" id="path165" clip-rule="evenodd" fill-rule="evenodd" fill="#fff" fill-opacity="1"/><path class="st0" d="M103.57 422.35c-.03 1.03 1.28 1.62.55 2.49-1.16.24-.92-.92-1.38-1.38-.7.41-1.23.98-2.21 1.11-.3.71.84 1.32 0 1.66-.75.77-.5-.68-1.11-.83-.85.07-1.24.6-1.93.83-.04.85.97 1.24.28 1.93-1.29 0-.75-1.83-1.66-2.21 2.36-1.33 4.64-2.74 7.46-3.6z" id="path167" clip-rule="evenodd" fill-rule="evenodd" fill="#fff" fill-opacity="1"/><path class="st0" d="M102.74 429.53c-1.18.46-1.86 2.65-3.04 2.21-.16-1.25 1.54-2.09 2.49-3.04 1-1 1.94-2.12 2.76-3.04 1.96.96 1.84 2.83.83 4.14-.87-.13-.98.5-1.93.28-1.03 1.21-1.01 2.1-1.66 3.59-2.33-.55.28-2.83.55-4.14zm.83-.28c1.03-.26 1.94-.64 1.93-1.93-.67-.45-2.38 1.26-1.93 1.93z" id="path169" clip-rule="evenodd" fill-rule="evenodd" fill="#fff" fill-opacity="1"/><path class="st0" d="M197.24 432.29c-.21.96-1.37.93-1.93.28-.36.1-.43.49-.83.55.09 1.21.85 2.23-.28 2.49-1.34.3-.14-.4-.55-1.11-.9-1.53-3.15-4.25-3.87-6.08 2.42.28 4.84 2.88 7.46 3.87zm-3.31.56c-.04-.37 1.12-.83.28-1.11-.5.42-2.78-2.46-2.76-1.66 1.07.67 1.55 1.94 2.48 2.77z" id="path171" clip-rule="evenodd" fill-rule="evenodd" fill="#fff" fill-opacity="1"/><path class="st0" d="M110.2 429.81c.19.62.83 1.38.28 1.93-.77-.06-.78-.88-1.38-1.11-1.92 1.09-.1 6.51-3.04 6.08-.69-.1-1.97-.85-1.38-1.93.94-.21.35 1.12 1.38.83.75.2.56-.55 1.11-.55-.06-2.97-.95-5.26 3.03-5.25z" id="path173" clip-rule="evenodd" fill-rule="evenodd" fill="#fff" fill-opacity="1"/><path class="st0" d="M113.24 432.02c-1.09 2.69-2.32 5.23-4.15 7.18-.07-2.49 2.51-4.66 3.32-7.18h.83z" id="path175" clip-rule="evenodd" fill-rule="evenodd" fill="#fff" fill-opacity="1"/><path class="st0" d="M185.91 432.85c-.07.85-1.18.66-1.38 1.38.8 1.78 3.59 1.57 4.42 3.32.45 1.07-1.58 3.83-2.49 1.66.64.09 1.06-.04 1.38-.28-.73-.64.73-.74 0-1.38-1.74-.93-4.06-1.28-4.42-3.59.46-.96 1.47-2.24 2.49-1.11z" id="path177" clip-rule="evenodd" fill-rule="evenodd" fill="#fff" fill-opacity="1"/><path class="st0" d="M115.17 433.68c1.42.15 2.66.47 3.04 1.66-2.82-.12-2.41 4.81-4.7 6.08-.14-2.02 1.73-4.32 2.49-6.36-.02-.72-1.18-.29-.83-1.38z" id="path179" clip-rule="evenodd" fill-rule="evenodd" fill="#fff" fill-opacity="1"/><path class="st0" d="M182.87 442.24c-3.84.66-4.57-5.88-3.87-7.18 3.61-2.07 6.23 5.7 3.87 7.18zm-1.1-.83c.06-.33.31-.17.55 0 1.23-1.99-.98-5.6-2.21-6.08-1.18 1.61.6 4.34 1.66 6.08z" id="path181" clip-rule="evenodd" fill-rule="evenodd" fill="#fff" fill-opacity="1"/><path class="st0" d="M173.75 436.71c1.53 1.41 1.75 4.14 2.49 6.36.39.51 1.34-.43 1.93.28-.12 1.08-1.57.83-2.49 1.11-.32-2.75-2.27-5.25-1.93-7.75z" id="path183" clip-rule="evenodd" fill-rule="evenodd" fill="#fff" fill-opacity="1"/><path class="st0" d="M117.66 453.29c1.52.8 1.68 5.37-.28 5.8-2.36-.05-2.43-6.08.28-5.8zm-.28 4.98c.77-.52 1.05-4.03-.28-4.15-.76.52-1.04 4.03.28 4.15z" id="path185" clip-rule="evenodd" fill-rule="evenodd" fill="#fff" fill-opacity="1"/><path class="st0" d="M119.59 453.29c.66.17 2-.35 2.21.28.28.93-.86.43-1.38.55v1.38c-.2.75 1.3-.2 1.11.55.28.83-.62.49-1.11.55-.17.75.35 2.19-.28 2.49-1.24-.87-.21-4.01-.55-5.8z" id="path187" clip-rule="evenodd" fill-rule="evenodd" fill="#fff" fill-opacity="1"/><path class="st0" d="M177.07 453.29h.83c.03 2 1.18 4.34.83 5.8-.83.28-.49-.62-.55-1.11h-1.1c-.75-.2.2 1.3-.55 1.11-1.04-.75.46-3.53.55-4.97-.01-.27-.01-.55-.01-.83zm.55 4.15c.4-.15-.04-3.25-.28-2.76.48 1.11-1.07 2.53.28 2.76z" id="path189" clip-rule="evenodd" fill-rule="evenodd" fill="#fff" fill-opacity="1"/><path class="st0" d="M179 453.29c.75.17 2.19-.35 2.49.28.13.59-.4.53-.83.55-.18 1.57.36 3.86-.28 4.97-1.23-.52-.23-3.27-.55-4.7-.11-.52-1.26-.01-.83-1.1z" id="path191" clip-rule="evenodd" fill-rule="evenodd" fill="#fff" fill-opacity="1"/><path class="st0" d="M150.54 458.54c3.66-.99 3.34 7.42.83 7.74-2.93.37-2.92-6.46-.83-7.74zm.28 6.91c1.92-.32 2.08-5.81 0-6.08-.84 1.19-.84 4.89 0 6.08z" id="path193" clip-rule="evenodd" fill-rule="evenodd" fill="#fff" fill-opacity="1"/><path class="st0" d="M145.02 459.1c-.03.71-.93.55-1.66.55-.22 1.14.42 1.42.28 2.49.03.61 1.17.12 1.66.28.13.86-.59.88-1.38.83-.16 1.19.69 2.8.28 3.32-1.04.57-.67-.97-.83-1.66-.38-1.64-1.09-4.49-.55-5.8.39-.42 1.79-.42 2.2-.01z" id="path195" clip-rule="evenodd" fill-rule="evenodd" fill="#fff" fill-opacity="1"/><path class="st0" d="M157.73 459.65c1.48-.19 1.86.72 2.76 1.11-.5 1.16-.17 3.15-1.93 3.04.31 1.5.8 3.56 0 4.14-1.35-.78-.51-2.05-.83-3.87-.85.81-.21 3.1-1.66 3.32-.26-2.33 1.44-4.98 1.66-7.74zm.27 3.59c.92-.27 2-2.57.55-2.76-.12.98-.61 1.6-.55 2.76z" id="path197" clip-rule="evenodd" fill-rule="evenodd" fill="#fff" fill-opacity="1"/><path class="st0" d="M137 460.2c.45-.08.48.26.83.28.25 2.64 1.92 5.23 1.66 7.46-1.33-.43-1.28-2.53-1.66-3.87-.39-1.36-1.25-2.81-.83-3.87z" id="path199" clip-rule="evenodd" fill-rule="evenodd" fill="#fff" fill-opacity="1"/><path class="st0" d="M131.2 462.14c1.65 1.39 1.85 4.23 2.76 6.36.82.01 1.4-.81 1.93-.28-.02 1.17-1.76.63-2.21 1.38-1.05-2.1-2.61-5.1-2.48-7.46z" id="path201" clip-rule="evenodd" fill-rule="evenodd" fill="#fff" fill-opacity="1"/><path class="st0" d="M125.95 464.07c2.68 1.09 2.62 4.93 4.97 6.36-.5 1.3-1.62-.01-2.21-.28-.41.14-.7.41-1.11.55.65.69.11 1.73-1.1 1.38.44-2.8-.83-5.1-.55-8.01zm1.38 5.53c.49-.15 1.15-.14 1.38-.55-1.08-.49-1.27-3.32-2.21-3.04.51.87 1.05 2.87.83 3.59z" id="path203" clip-rule="evenodd" fill-rule="evenodd" fill="#fff" fill-opacity="1"/><path class="st0" d="M171.54 464.35c.22.15.45.29.83.28-.82 2.5-1.61 5.03-2.76 7.18-.96-.62-.09-2.24.28-3.32.39-1.13 1.2-2.35 1.38-3.32-.08-.44.26-.47.27-.82z" id="path205" clip-rule="evenodd" fill-rule="evenodd" fill="#fff" fill-opacity="1"/><path class="st0" d="M122.36 466.56c-.88-.89-.82.58-1.66.55-.01 1.82.67 3.71 1.66 5.25.81-.41 1.03.31 1.38-.55.74.58-.24 1.77-1.11 1.66-.46-.59-.94-.56-1.66-1.38-.71-.82-1.59-3.47-1.38-5.25.49-.5 2.5-2.08 2.77-.28z" id="path207" clip-rule="evenodd" fill-rule="evenodd" fill="#fff" fill-opacity="1"/><path class="st0" d="M185.36 469.87c.3 1.03-.69.79-.55 1.66-.93.1-1.18-.48-1.66-.83.21-.99 1.28-1.29 2.21-.83z" id="path209" clip-rule="evenodd" fill-rule="evenodd" fill="#fff" fill-opacity="1"/><path class="st0" d="M114.07 470.7c.2.75-.55.56-.55 1.11-.93.11-1.18-.48-1.66-.83.13-1.12 1.94-1.52 2.21-.28z" id="path211" clip-rule="evenodd" fill-rule="evenodd" fill="#fff" fill-opacity="1"/><path class="st0" d="M98.87 408.81c-.42 1.33-2.63.87-3.04 2.21-.65-.01-.81.48-1.66.28 1.31.93 3.72-.88 4.97 0-.54.95-2.18.67-3.32.83-1.3.18-2.82.64-4.42.55.57-1.55 2.64-1.6 3.87-2.49-.99-.88-3.39.64-4.14 0 1.02-1.2 4.09-1.15 6.08-1.38.57-.07 1.23-.64 1.66 0z" id="path213" clip-rule="evenodd" fill-rule="evenodd" fill="#fff" fill-opacity="1"/><path class="st0" d="M142.25 362.11c-.87 3.15.26 3.84.28 7.18.75 1.23 1.66.95 1.93 2.21.43 1.95-1.66 3.56-1.93 5.25-.22 1.32.92 1.29 1.11 2.21-.53 3.89 1.53 6.72 2.21 10.22 1.08.12 2.19.21 3.04.55 1.08 1.22 1.28 3.33 2.21 4.7.12 1.23-.75 1.46-1.11 2.21.65.64.88 1.69 1.38 2.49 1.19.56 2.7.8 3.59 1.66.07 2.28-.8 3.58-.55 5.25.44 2.91 3.74 3.64 4.7 6.08-1.06 2.91.06 4.26.55 6.91.92.83 2.04 1.46 2.49 2.76 1.04 1.18 2.92 1.51 3.04 3.04.14 1.76-3 3.99-4.14 5.25-3.06 3.36-5.5 6.03-9.12 9.4-1.42 1.32-3.31 4.07-4.97 4.14-1.81.08-4.49-3.1-6.91-5.53-13.57-13.6-26.22-34.98-28.74-57.48-.73-6.56-.3-13.32.28-19.07-.05-.23.11-.26.28-.28.22-.05.28-.28.55-.28h23.21c2.36.02 5.06-.46 6.62 1.13zm-22.38.83c-.76 2.11.76 3.71 1.38 5.25 1.04 2.58 2.15 5.74 3.04 8.57.21.66.07 1.55.28 2.21.52 1.67 2.24 3.29 1.38 4.97-1.45-1.01-1.92-3.11-2.49-4.7-2-5.53-3.79-11.27-6.08-16.3h-2.76c-.36 2.09 1.31 3.72 2.21 5.53 1.9 3.81 3.31 7.96 5.25 11.33 1.03 1.78 2.47 3.55 2.49 5.53-1.15-.05-1.69-1.4-2.21-2.21-3.58-5.65-5.78-12.69-9.39-17.96-1.18 4.05.28 5.43 1.93 8.01 2.09 3.26 3.74 6.21 5.25 9.4 1.15 1.24 3.75 3.36 2.76 4.97-3.06-2.82-5.28-6.52-7.18-10.22-.81-1.57-1.38-3.75-3.04-4.7-.53 1.83.11 3.13 0 5.25 2.62 2.72 4.7 5.98 7.74 8.29.69 1.52 1.31 3.12 3.87 2.76.67-.71.94-1.82 1.38-2.76 2.86-2.8 8.87-2.08 10.5 1.38.47.45.11 1.74 1.11 1.66.66.91.82-1 1.93-.55 1.54.49 1.77 2.28 3.87 2.21.4-.61 1.4-.62 1.11-1.93-1.34-.41-2.25 1.05-3.04.28-.93-1.82 2.5-1 1.93-3.32-2.41-1.24-2.4 2.16-4.7 1.93.3-3.23 6.04-3.42 3.32-7.18-1.61 1.45-2.83 4.69-4.7 4.97-.1-2.61 2.59-4.23 3.59-6.91.46-1.23.37-2.68.83-4.15.87-.71 1.87-3.04-.28-3.04-2.13 4.13-2.66 9.87-5.8 12.99-.85-1.12.5-1.8.83-2.76.37-1.07.44-2.21.83-3.32 1.31-3.76 4.34-8.78 3.32-12.71-.47-1.11 1.08-2.54-.28-2.76-1.58.51-1.79 2.8-2.21 4.42-.96 3.69-1.99 7.25-2.76 10.78-.34 1.57-.13 4.94-1.93 4.42.7-6.03 3.09-12.75 4.14-19.34-.59-.51-2.02-.19-3.04-.28-1.07 3.75-1.62 10.12-1.93 14.37-.11 1.47.55 4.62-1.11 4.97-.05-5.76.85-12.96 1.11-19.34h-2.76c.12 5.06.25 11.49.28 16.3 0 .95 1.15 2.68-.55 3.04-1.07-1.54-.46-3.6-.55-5.53-.2-4.32-.58-8.92-.55-13.26-.57-.81-1.79-.97-3.32-.83.07 5.47 1.44 11.71 2.21 17.41.12.87 1.41 2.24 0 2.76-1.63-6.29-3.23-12.62-4.15-19.62-.96-.13-2.12-1.02-3.06-.28zm-1.11 24.59c.08-1.72-1.63-2.39-2.49-3.32-.79-.85-1.17-2.18-2.49-2.49-.06-.21-.23-.32-.55-.28-.12 3.83 2.16 6.68 5.53 6.09zm8.02 2.21c3.19-.05 4 2.1 7.46 1.11.15-4.11-6.63-4.74-7.46-1.11zm-12.16 0c.68.04 1.33.04 1.66-.28-.06-.95-.82-1.2-1.66-1.38-.52.49.22.7 0 1.66zm34.82 9.12c-.83-1.1-1.23-2.64-1.66-4.14-1.96-.76-2.86.11-4.42-.28-1.91-.48-2.79-2.57-4.14-2.76-2.27-.33-3.17 2.16-6.36 1.66-1.44.74-2.74 2.86-4.7 3.32-1.37.32-3.48-.07-4.97-.55.74-1.04 1.5-1.98 3.04-2.49.68-.22 2.47.62 2.49-.83-3.07.74-6.67-3.11-9.95-2.49-1.57.3-2.57 1.83-3.32 3.59 1.76 4.32 3.23 8.93 5.25 12.99h9.4c.18-2.03 1.62-2.8 4.15-2.49.18-1.02.54-1.86.55-3.04-1.96-.03-2.36 1.51-3.04 2.76-1.09.17-1.44-.41-1.93-.83.59-2.36 2.38-3.51 4.42-4.42 2.78.9 4.12 3.24 4.14 6.91 1.41-.8 2.28-2.15 4.7-1.93.14-3.47 4-6.33 6.35-4.98zm-1.66-7.19c-.49.16-1.62-.33-1.66.28.49-.16 1.62.33 1.66-.28zm-2.76 11.06c1.03 6.24.3 14.25 1.38 20.45h2.21c-.21-5.71-.84-11.77-.28-17.41-.42-.69-2.38.17-2.76-.55.2-1.37 2.05-1.08 2.76-1.93.09-1.1.02-2.04-.55-2.49-1.56 0-1.72 1.4-2.76 1.93zm7.73 2.76c.85-1.04 1.03-4.45-1.11-4.15.21 1.56-.64 4.15 1.11 4.15zm-20.72 1.66c-.02 3.69.39 8.19.55 11.88.07 1.56-.71 3.84.83 4.7 1.82-.27 1.1-3.07 1.1-4.7 0-1.91.13-3.99 0-5.8-.17-2.32.53-5.26-.83-6.63-1.03-.3-.78.68-1.65.55zm8.56.27c-1.49.35-1.95 1.73-2.76 2.76.4.34.37 1.1 1.11 1.11-.01-1.58.38-2.76 1.66-3.04.73 1.02.64 2.86 2.76 2.49-.24-1.79-1.45-2.61-2.77-3.32zm10.5 4.43c-.38 2.6-.47 6.53 0 9.12 1.38.09.61-1.97 1.38-2.49 2.31.32 2.95.49 4.97-.28-.26-1.89-1.08-4.13 0-5.8-1.56-1.34-3.86-.44-6.35-.55zm-27.9.27c.67 2.83 2.29 4.71 3.59 6.91h3.32c.83 1.15-.53 3.01.55 3.59.16-3.48-.2-6.43-.28-9.67-1.57-1.08-4.81-1.41-7.18-.83zm13.54 8.01v-2.21c2.05-.81 5.01-.7 7.46-1.11.11-3.91-5.16-1.08-7.18-1.93-.02-.17-.04-.33-.28-.28-.7 1.38-.4 4.98 0 5.53zm16.85 1.66c.04-.69.05-1.34-.55-1.38-.44.42.01 1.17.55 1.38zm2.77-1.38c-.31-.26-1.04.16-1.11.28-.47.89 1.53.08 1.11-.28zm-8.02 4.42c-1.97.09-4.09-.29-5.8.28.61 2.58.88 5.14 1.38 8.57.35 2.4.29 7.54 2.21 8.01 1.26.31 4.14-2.51 4.97-3.32 3.36-3.26 5.32-5.84 8.01-8.84 1.35-1.5 3.34-2.81 3.59-4.42-4.03-1.13-9.46-.5-14.36-.28zm-12.16 5.53c1.13-1.27 1.37-3.42 1.93-5.25-2.21.18-5.16-.37-6.91.28 1.63 1.69 2 4.63 4.98 4.97zm3.87-5.25c-1.69 1.81-2.1 4.9-2.76 7.74 1.7 2.07 3.29 4.26 5.53 5.8-.53-4.62-1.28-9.04-1.93-13.54h-.84z" id="path215" clip-rule="evenodd" fill-rule="evenodd" fill="#fff" fill-opacity="1"/><path class="st0" d="M195.86 427.04c.83 1.38 3 1.42 3.32 3.32-1.18.22-2.34-1.31-3.59-2.21-1.1-.79-3.45-1.45-2.76-3.04 1.76.79 2.52.98 4.42 1.38-.95-1.17-2.77-1.47-3.32-3.04 1.14-.02 2.46 1.11 3.59 1.93 1.12.81 2.46 1.67 3.04 2.76-1.5.23-3.41-.82-4.7-1.1z" id="path217" clip-rule="evenodd" fill-rule="evenodd" fill="#fff" fill-opacity="1"/><path class="st0" d="M120.7 435.89c.5-.04.58.34 1.1.28-.76.87-.16 1.46-.55 2.49 1.53.09 1.05-2.46 2.76-1.38-.23 1.07-1.49 1.65-2.21 2.49-1.2 1.39-1.74 3.23-2.76 3.87-1-.29.74-2.3 1.11-3.04-.25-1.19.47-3.8.55-4.71z" id="path219" clip-rule="evenodd" fill-rule="evenodd" fill="#fff" fill-opacity="1"/><path class="st0" d="M164.91 461.86c.5-.04.58.34 1.11.28-.39 2.05-.51 3.47-.55 5.8.97-1.61.65-4.5 2.76-4.97-.53 1.33-.84 2.85-1.38 4.15-.49 1.17-1.12 2.49-1.93 3.32-1.07-.77.06-2.71 0-4.7-1.63.49-.7 3.53-2.76 3.59.6-2.81 2.11-4.7 2.75-7.47z" id="path221" clip-rule="evenodd" fill-rule="evenodd" fill="#fff" fill-opacity="1"/><path class="st0" d="M176.24 465.73c1.95.96-.13 5.35.83 8.29-1.02.19-1.22-.44-1.11-1.38-.2-.9-1.58-.18-1.66-.55-.38.08-.23.69-.28 1.11-.64.09-1.06-.04-1.38-.28 1.52-2.09 2.49-4.7 3.6-7.19zm-1.1 5.53c.93.18 1.12-1.8.55-2.21-.25.67-.65 1.19-.55 2.21z" id="path223" clip-rule="evenodd" fill-rule="evenodd" fill="#fff" fill-opacity="1"/></g></svg>