<?xml version="1.0" encoding="UTF-8" standalone="no"?>
<!-- Generator: Adobe Illustrator 23.0.4, SVG Export Plug-In . SVG Version: 6.00 Build 0)  -->

<svg
   xmlns:dc="http://purl.org/dc/elements/1.1/"
   xmlns:cc="http://creativecommons.org/ns#"
   xmlns:rdf="http://www.w3.org/1999/02/22-rdf-syntax-ns#"
   xmlns:svg="http://www.w3.org/2000/svg"
   xmlns="http://www.w3.org/2000/svg"
   xmlns:sodipodi="http://sodipodi.sourceforge.net/DTD/sodipodi-0.dtd"
   xmlns:inkscape="http://www.inkscape.org/namespaces/inkscape"
   version="1.1"
   id="Layer_1"
   x="0px"
   y="0px"
   viewBox="0 0 124.43424 191.6398"
   xml:space="preserve"
   sodipodi:docname="USAC-logo.svg"
   width="124.43424"
   height="191.6398"
   inkscape:version="0.92.4 (5da689c313, 2019-01-14)"><metadata
   id="metadata314"><rdf:RDF><cc:Work
       rdf:about=""><dc:format>image/svg+xml</dc:format><dc:type
         rdf:resource="http://purl.org/dc/dcmitype/StillImage" /><dc:title /></cc:Work></rdf:RDF></metadata><defs
   id="defs312" /><sodipodi:namedview
   pagecolor="#ffffff"
   bordercolor="#666666"
   borderopacity="1"
   objecttolerance="10"
   gridtolerance="10"
   guidetolerance="10"
   inkscape:pageopacity="0"
   inkscape:pageshadow="2"
   inkscape:window-width="2560"
   inkscape:window-height="1346"
   id="namedview310"
   showgrid="false"
   fit-margin-top="0"
   fit-margin-left="0"
   fit-margin-right="0"
   fit-margin-bottom="0"
   inkscape:zoom="4.7676768"
   inkscape:cx="170.67573"
   inkscape:cy="109.74591"
   inkscape:window-x="-11"
   inkscape:window-y="-11"
   inkscape:window-maximized="1"
   inkscape:current-layer="Layer_1" />
<style
   type="text/css"
   id="style2">
	.Arched_x0020_Green{fill:url(#SVGID_1_);stroke:#FFFFFF;stroke-width:0.25;stroke-miterlimit:1;}
	.st0{fill-rule:evenodd;clip-rule:evenodd;}
</style>
<linearGradient
   id="SVGID_1_"
   gradientUnits="userSpaceOnUse"
   x1="0"
   y1="792"
   x2="0.70709997"
   y2="791.29291">
	<stop
   offset="0"
   style="stop-color:#20AC4B"
   id="stop4" />
	<stop
   offset="0.9831"
   style="stop-color:#19361A"
   id="stop6" />
</linearGradient>
<g
   id="g225"
   transform="translate(-86.258047,-288.33)"
   style="fill:#ffffff;fill-opacity:1">
	<path
   class="st0"
   d="m 210.51,403.28 c -0.2,-2.3 -0.07,-4.99 -1.11,-6.63 -1.9,-3.01 -7.54,-1.49 -11.61,-2.76 -3.91,-1.22 -4.97,-3.68 -7.19,-6.36 0.42,-1.79 0.47,-3.95 1.11,-5.53 3.81,0.66 5.59,-2.06 8.01,-2.76 1.17,-0.34 2.7,0.03 4.14,-0.55 2.31,-0.93 4.03,-4.83 4.42,-8.29 1.51,-13.31 -5.59,-23.88 -11.88,-29.01 -6.66,-3.92 -17.17,-5.81 -27.91,-4.14 -3.14,0.49 -6.28,1.46 -9.4,2.21 -5.61,1.35 -12.01,3.17 -19.34,2.21 -0.41,-3.19 -1.26,-7.4 -1.38,-9.95 3.52,-0.8 5.23,2.27 7.74,3.87 2.41,1.54 5.6,3.81 8.29,3.32 3.33,-0.61 3.35,-5.36 5.53,-7.74 5.03,0.59 9.06,2.17 14.09,2.76 1.35,-1.73 0.55,-4.8 0.55,-7.74 0,-2.86 0,-5.94 0,-8.57 1.22,-1.36 3.01,-2.15 4.42,-3.32 -0.27,-1.61 -0.5,-2.97 -0.28,-4.42 1.47,-1.66 5.09,-1.17 7.74,-1.66 0.5,-3.26 -2.5,-3.03 -3.32,-4.97 -0.7,-1.74 1.55,-2.35 1.93,-3.87 -2.31,-1.91 -6.74,-1.3 -10.22,-0.83 0.04,-2.43 0.04,-4.83 -0.55,-6.63 -1.01,-1.3 -3.25,-0.39 -4.7,-0.83 -1.66,-0.5 -1.64,-1.43 -2.76,-2.21 -2.49,1.06 -3.99,1.75 -6.63,1.38 -1.84,-0.25 -3.18,-1.54 -4.97,-1.66 -2.49,-0.16 -4.35,0.8 -6.63,1.66 -1.55,-0.38 -2.53,-1.34 -3.87,-1.93 -1.2,0 -2.39,0 -3.59,0 -1.98,1.08 -3.8,1.86 -6.36,1.93 -1.44,0.04 -2.93,-0.74 -4.42,-0.55 -1.23,0.16 -2.04,1.01 -3.59,1.66 -1.47,0.61 -2.9,0.59 -3.59,1.66 -0.78,1.2 -0.32,2.7 -0.28,4.42 0.04,1.66 0.54,4.11 0.28,4.97 -0.41,1.34 -2.79,1.41 -3.59,2.76 -0.47,0.78 -0.18,2.6 -0.55,3.87 -0.55,1.86 -2.69,3.83 -1.66,6.36 0.9,2.21 4.58,1.69 5.53,3.04 -0.03,5.28 -0.02,10.52 0.55,15.2 2.03,0.68 4.26,-0.67 6.63,-0.55 0.52,2.24 1.65,3.88 1.66,6.63 -4.6,-0.33 -8.76,-2.62 -13.26,-3.04 -7.19,-0.67 -14.91,1.62 -19.34,4.42 -1.07,0.67 -2.96,2 -4.15,3.32 -0.63,0.7 -0.99,1.92 -1.66,2.76 -0.7,0.89 -1.7,1.45 -2.21,2.21 -3.04,4.5 -4.13,9.05 -4.7,15.75 -0.58,6.82 0.21,12.8 3.87,16.03 5.4,-1.37 7.01,3.06 10.22,4.15 1.56,0.52 2.79,-0.32 4.7,0.83 0.49,0.52 0.2,1.82 0.28,2.76 -0.82,1.02 -2.67,0.6 -3.87,1.11 -1.52,0.64 -2.69,2.39 -4.14,3.59 -2.87,2.37 -5.52,4.42 -9.67,5.8 -1.69,4.71 -1.18,10.01 -0.55,14.37 0.73,5.02 2.5,10.16 4.97,14.37 4.25,7.22 9.22,11.66 16.3,15.75 2.7,1.56 5.61,2.85 8.29,4.42 0.36,0.77 -0.64,1.39 -1.11,1.93 -1.51,1.78 -3.52,3.37 -5.53,5.25 -2.4,2.25 -5.68,4.75 -6.36,7.74 -0.22,0.96 0.23,2.58 0,4.15 -0.38,2.64 -2.7,5.77 -2.21,8.57 0.84,4.79 11.66,4.38 17.13,3.32 4.01,-0.78 8.12,-2.35 12.16,-3.59 6.09,-1.87 11.56,-5.02 19.34,-5.25 1.8,-0.05 3.84,0.78 5.8,1.38 1.76,0.54 3.52,0.81 4.97,1.38 2.93,1.15 5.71,2.89 8.84,3.87 1.49,0.47 3.57,0.62 5.53,1.11 4.32,1.08 11.74,1.9 16.58,-0.28 1.33,-0.6 3.4,-1.93 3.87,-4.14 0.72,-3.45 -1.46,-6.44 -1.93,-8.84 -0.33,-1.69 0.38,-3.18 0,-4.42 -0.4,-1.3 -2.02,-1.98 -3.59,-3.04 -3.78,-2.55 -8.13,-5.01 -9.67,-9.67 1.08,-1.32 2.98,-1.43 4.42,-1.93 6.56,-2.29 11.95,-6.1 16.3,-10.78 5.07,-8.33 10.38,-17.67 9.14,-31.81 z m -41.73,38.13 c 0.21,3.41 -1.77,6.59 -1.66,9.4 0.18,4.53 3.79,5.98 5.53,9.67 -3.51,-0.6 -7.07,-1.82 -10.78,-3.04 -4.99,-1.64 -8.76,-3.9 -15.75,-3.32 -7.67,0.64 -14.15,3.89 -20.72,6.08 0.4,-2.42 2.87,-3.38 3.32,-6.08 0.29,-1.75 -0.75,-4.11 -1.11,-6.08 -0.47,-2.62 -0.39,-5.93 -0.28,-8.29 0.06,-1.26 0.54,-2.63 0.28,-3.59 -0.51,-1.87 -7.42,-4.45 -9.39,-5.53 -5.43,-2.96 -8.51,-5.99 -11.88,-10.78 -3.23,-4.58 -4.57,-11.55 -3.87,-19.62 2.44,0.05 4,0.97 6.36,1.11 6.98,18.58 17.75,33.2 32.05,45.59 1.77,1.53 4.49,4.71 6.36,4.7 1.53,-0.01 3.67,-2.23 5.53,-3.87 5.83,-5.14 11.1,-9.85 16.3,-15.75 0.35,-0.39 0.4,-0.93 0.83,-1.38 0.95,-1.02 2.01,-2.46 3.04,-3.87 1.77,-2.41 3.53,-5.42 5.25,-8.29 3.16,-5.28 6.5,-10.31 8.57,-17.13 2,-0.43 3.21,-2.37 5.25,-2.21 2.9,0.23 2.87,3.46 2.76,7.74 -0.06,2.37 -0.5,7.59 -1.38,9.4 -1.82,3.73 -3.86,6.44 -6.63,9.4 -2.15,2.29 -4.67,4.4 -8.01,5.8 -4.07,1.71 -7.51,1.5 -10.78,4.7 -0.36,2.08 0.69,3.37 0.81,5.24 z m 9.39,-81.79 c 2.75,0 5.8,-0.48 8.29,0.83 1.55,6.58 0.74,13.46 0,19.62 -0.74,6.17 -2.2,12.13 -3.87,17.13 -6.87,20.61 -20.85,35.92 -35.92,47.8 -6.44,-3.58 -11.13,-9.56 -15.75,-15.47 -4.35,-5.57 -8.78,-11.59 -12.16,-18.79 -1.6,-3.41 -3.02,-7.3 -4.42,-11.33 -3.14,-9.05 -5.66,-20.54 -4.42,-33.71 0.37,-3.92 0.07,-5.72 3.04,-6.08 5.61,-0.67 12.42,0 18.79,0 15.27,0 30.92,0 46.42,0 z m -28.18,-5.8 c 7.91,0.03 16.71,-3.27 24.59,-4.14 6.42,-0.71 13.14,0.72 15.47,4.42 -12.97,-0.93 -27.35,1.24 -39.79,0 -0.47,-0.06 -0.57,-0.17 -0.27,-0.28 z m -42.83,0.55 c -1.1,-0.01 0.89,-1.62 1.38,-1.93 6.86,-4.44 19.73,0.19 27.08,1.66 -8.93,0.64 -19.07,0.09 -28.46,0.27 z m 85.66,40.9 c -0.45,1.94 -2.62,2.17 -4.42,2.76 -0.11,-2.59 0.73,-4.24 1.66,-5.8 1.43,0.5 2.14,1.73 2.76,3.04 z m -0.55,-20.18 c -0.15,-6.27 -0.03,-13.84 -0.83,-19.62 2.5,2.28 4.01,7.96 4.15,13.26 0.08,3.26 0.13,7.97 -2.76,9.12 -1.05,-0.44 -0.54,-1.97 -0.56,-2.76 z m -21.56,-45.87 c -2.92,-0.39 -6.04,-0.59 -8.57,-1.38 1.59,-1.82 7.08,0.27 8.01,-2.21 0.02,-2.37 -0.13,-4.92 0.28,-6.91 1.04,3.01 0.48,7.59 0.28,10.5 z m -14.36,-7.18 c 1.74,-3.18 5.99,-4.88 10.78,-4.15 -0.01,2.2 0.34,4.77 -1.11,5.53 -3.88,0.2 -6.61,-0.76 -9.67,-1.38 z m 13.26,-26.25 c 0,-0.28 0,-0.55 0,-0.83 0.18,0 0.37,0 0.55,0 2.5,1.73 0.49,6.08 0.55,9.12 0.03,1.55 1.4,2.93 0,3.87 -1.31,-1.21 -0.73,-3.57 -0.83,-5.53 -0.11,-2.23 -0.48,-4.52 -0.27,-6.63 z m -13.26,-4.98 c 2.35,0.55 6.55,1.94 9.67,0.28 1.1,2.69 0.4,6.07 0.55,9.4 0.12,2.62 0.48,5.18 0.28,7.74 -2.52,-0.41 -4.82,0.86 -7.18,0.83 -0.47,-0.01 -0.93,-0.05 -1.39,-0.12 -0.96,0.16 -1.8,0.63 -2.58,1.17 0.13,0.01 0.25,0.03 0.38,0.05 -0.39,0.61 -1.06,0.94 -1.95,1.06 -0.45,0.31 -0.9,0.56 -1.36,0.73 -0.23,1.37 -1.93,2.3 -2.22,3.74 -0.33,1.63 0.48,3.14 0.55,4.42 -2.66,0.09 -1.66,-3.67 -1.66,-5.53 0,-6.95 -0.34,-14.43 -0.28,-21.83 2.13,-2.11 3.92,-2.7 7.19,-1.94 z m -3.32,31.51 c 1.02,-1.85 -0.69,-3.36 -1.11,-4.7 0.69,-3.87 5.42,-7.03 10.78,-7.46 3.76,-0.3 12.98,0.73 12.43,-3.59 -0.2,-1.58 -1.89,-1.14 -2.49,-2.76 0.79,-3.9 4.99,-4.4 9.95,-4.15 -0.44,1.31 -1.58,1.92 -1.93,3.32 0.73,1.76 2.73,2.24 3.87,3.59 -2.23,0.25 -4.28,0.69 -6.08,1.38 -0.77,-1.13 -0.94,-3.83 -3.04,-2.76 1.2,1.5 0.8,5.59 1.11,8.57 -3.17,3.1 -9.28,1.22 -14.09,2.21 -3.11,0.64 -8.18,4.1 -8.84,7.18 -0.29,1.36 -0.11,2.79 1.38,3.04 1.54,-0.21 0.15,-2.11 0.55,-2.49 2.72,-0.13 2.1,3.75 0.28,4.42 -2.56,0.94 -5.65,-1.51 -5.53,-3.32 0.68,-0.51 2.41,0.02 2.49,-1.11 -0.85,-2.22 -4.22,1.72 -4.97,-1.11 1.11,-1.48 3.37,-0.34 5.24,-0.26 z m -13.73,-10.8 c -0.96,-1.1 -6.43,-4.96 -6.45,-4.96 -1.23,-0.24 -1.67,-1.2 -2.49,-1.66 0,-4.51 0,-9.03 0,-13.54 6.76,1.86 13.17,-4.43 17.41,0.55 0.37,9.5 0.29,19.63 0,28.46 -2.89,0.08 -2.94,-2.68 -4.41,-4.02 m -17.41,-21.11 c 0.37,-0.18 0.51,-0.59 0.55,-1.11 0.28,0 0.55,0 0.83,0 0.99,0.59 0.55,3.26 0.55,4.97 0,1.74 0.22,3.82 -0.28,4.97 -2.06,0.4 -1.58,-2.11 -1.66,-3.59 -0.09,-1.82 0.08,-3.84 0.01,-5.24 z m -5.53,18.51 c 0.65,0.88 3.1,-0.92 2.49,2.21 -1.72,-0.03 -3.03,-0.47 -3.87,-1.38 0.05,-3.27 2.21,-4.42 1.66,-8.29 3.14,-2.26 8.76,0.37 11.33,1.93 1.11,0.67 2.44,1.26 3.32,1.93 5.93,4.6 9.74,12.47 14.09,17.13 1.26,1.35 3.34,3.74 6.63,2.76 1.17,-0.35 1.56,-0.89 1.93,-2.49 1.75,3.69 -2.43,5.97 -2.76,9.4 -4.22,0.15 -6.36,-1.57 -9.12,-3.87 -1.52,-1.27 -3.39,-2.78 -4.42,-4.14 -1.87,-2.48 -2.8,-5.78 -4.7,-8.29 -2.32,-3.06 -6.55,-7.16 -10.78,-8.57 -2.3,-0.75 -6.1,-0.98 -5.8,1.67 z m 10.78,3.31 c 2.21,1.47 4.01,3.36 5.25,5.8 -0.81,1.13 -3.44,0.94 -4.97,0.55 0.12,-2.33 -0.5,-3.92 -0.28,-6.35 z m -4.42,11.61 c 0,-4.61 0,-9.21 0,-13.82 0.28,0 0.55,0 0.83,0 0.75,4.33 -1.26,8.93 0.55,11.61 2.4,3.54 8.09,0.04 11.61,1.38 -3.62,0.73 -9.59,2.54 -12.99,0.83 z m 8.01,10.22 c 1.02,0.18 1.45,0.95 1.66,1.93 -0.55,0 -1.11,0 -1.66,0 0.08,-1.14 -0.36,-1.07 0,-1.93 z m 0,-3.31 c -0.88,0.04 -1.22,0.63 -1.11,1.66 -1.87,-0.25 -1.03,-3.21 -1.93,-4.42 1.41,-0.43 3.14,-0.54 4.97,-0.55 0.5,2.08 1.35,3.81 1.11,6.63 -1.66,-0.46 -1.35,-2.9 -3.04,-3.32 z m -30.95,38.96 c 0.16,2.59 1.31,5.27 0,7.46 -1.58,-0.31 -1.8,-2.63 -2.21,-4.42 -1.62,-7.09 -1.66,-18.55 3.32,-22.38 0.23,-0.05 0.26,0.11 0.28,0.28 -0.68,5.66 -1.79,12.63 -1.39,19.06 z m -4.69,-11.6 c -1.64,7.67 0.3,14.77 3.04,20.72 -3.82,-1.52 -5.93,-4.76 -11.33,-4.7 -1.92,-5.05 -3.02,-12.63 -1.38,-19.9 0.38,-1.67 1.56,-3.97 2.49,-5.8 4.48,-8.9 15.11,-16.79 29.84,-13.82 4.06,0.82 8.09,2.49 12.44,3.32 7.81,1.49 16.94,1.31 23.76,-0.83 3.76,-1.18 10.05,-2.89 14.92,-3.32 14.1,-1.25 24.47,4.14 29.29,12.99 3.77,6.92 6.3,16.96 1.38,24.87 -4.64,0.15 -6.12,3.46 -10.78,3.59 2.36,-1.55 3.68,-3.43 4.14,-6.91 0.78,-5.84 -0.82,-13.73 -3.04,-17.13 -3.02,-4.63 -9.41,-8.47 -16.86,-8.29 -4.48,0.11 -9.36,1.61 -14.09,2.49 -9.3,1.72 -19.44,3.47 -29.57,1.38 -4.57,-0.94 -9.08,-2.41 -13.54,-2.76 -5.52,-0.44 -10.2,0.59 -13.26,2.76 -2.86,2.03 -6.54,7.05 -7.45,11.34 z m 6.07,29.29 c 2.23,0.99 2.12,4.33 2.76,6.91 -1.88,-0.15 -2.91,-1.14 -4.97,-1.11 -0.09,-2.77 0.66,-4.69 2.21,-5.8 z m 9.95,52.5 c -8.55,-4.53 -16.7,-9.94 -21.28,-19.07 -2.37,-4.72 -4.47,-11.62 -4.97,-18.79 -0.15,-2.17 -0.22,-3.84 0.83,-5.8 0.67,-1.16 2.02,-1.35 3.04,-1.93 3.36,-1.94 6.39,-4.45 9.4,-7.19 0.24,-0.05 0.26,0.11 0.28,0.28 -3.46,9.1 -2.2,22.21 2.76,29.01 0.5,0.68 1.07,1.22 1.66,1.93 2.45,2.96 4.71,5.15 8.29,7.18 1.2,0.68 2.24,1.63 3.32,2.21 2.4,1.29 4.99,2.08 7.18,3.59 -0.16,5.15 -0.11,9.99 0.55,15.47 -0.19,1.12 -1.16,-0.9 -1.66,-1.38 -2.36,-2.26 -6.2,-3.82 -9.4,-5.51 z m -3.31,11.6 c 2.24,-2.24 4.67,-4.26 6.63,-6.63 2.22,-0.34 6.35,3.16 6.63,4.42 0.83,3.69 -3.75,6.18 -5.8,8.29 -3.6,0.47 -8.14,1.42 -12.16,0.55 -0.04,-2.75 2.83,-4.76 4.7,-6.63 z m 79.85,4.98 c 0.4,1.91 0.46,3.5 1.11,5.8 0.4,1.42 1.74,3.48 1.38,5.25 -0.53,2.61 -5.69,3.68 -9.4,3.87 -7.74,0.4 -14.24,-2.06 -19.9,-4.14 -4.27,-1.57 -9.89,-4.7 -16.3,-4.15 -2.87,0.25 -6.37,1.28 -9.4,2.21 -8.1,2.48 -18.09,6.46 -27.08,7.18 -3.32,0.27 -5.97,0.18 -8.29,-2.21 -0.11,-4.16 2.14,-5.96 1.66,-10.5 6.67,2.31 13.94,-0.66 19.34,-2.49 3.88,-1.31 7.86,-2.54 12.43,-3.87 3.82,-1.11 7.37,-2.79 12.99,-2.21 6.22,0.64 12.28,4.07 18.51,5.8 1.11,0.31 2.48,0.25 3.59,0.55 1.08,0.29 1.75,0.93 2.76,1.11 5.45,0.96 13.16,0.42 16.6,-2.2 z m -1.38,-1.66 c -2.09,2.78 -8.72,1.9 -12.99,1.66 -0.79,-1.17 -2.5,-1.79 -3.59,-3.04 -0.8,-0.92 -2.19,-2.8 -2.21,-3.87 -0.04,-2.07 3.79,-6.27 7.46,-6.08 0.98,6.58 7.99,7.12 11.33,11.33 z m 15.75,-39.79 c -2.3,6.82 -6.21,13.3 -11.33,17.68 -0.93,0.8 -1.95,1.92 -2.76,2.49 -4.58,3.2 -11.06,4.15 -16.3,6.63 -2.04,0.96 -4.43,2.64 -5.25,5.25 -2.57,-2.44 0.04,-6.48 0.28,-9.67 0.16,-2.25 -1.04,-4.43 -0.55,-5.53 0.64,-1.44 5.16,-2.26 6.91,-3.04 5.46,-2.43 9.94,-5.1 13.82,-9.67 0.65,-0.77 1.2,-1.99 1.93,-3.32 2.31,-4.15 3.88,-9.99 3.32,-17.41 -0.24,-3.15 -1.21,-6.46 -2.21,-9.4 2.93,0.66 6.29,3.29 11.61,2.49 3.9,5.43 2.58,17.42 0.53,23.5 z"
   id="path9"
   inkscape:connector-curvature="0"
   style="clip-rule:evenodd;fill-rule:evenodd;fill:#ffffff;fill-opacity:1" />
	<path
   class="st0"
   d="m 144.46,314.85 c -0.25,-0.37 -1.96,-1.22 -1.66,0.28 -0.26,-0.26 1.62,0.61 1.66,-0.28 z"
   id="path11"
   inkscape:connector-curvature="0"
   style="clip-rule:evenodd;fill-rule:evenodd;fill:#ffffff;fill-opacity:1" />
	<path
   class="st0"
   d="m 157.99,308.9 c -0.26,-0.04 -0.51,-0.08 -0.76,-0.12 0.18,0.17 0.45,0.17 0.76,0.12 z"
   id="path13"
   inkscape:connector-curvature="0"
   style="clip-rule:evenodd;fill-rule:evenodd;fill:#ffffff;fill-opacity:1" />
	<path
   class="st0"
   d="m 157.23,308.78 c -1.82,-0.29 -3.55,-0.54 -5.03,0.82 0.44,1.41 1.92,0.37 3.49,0.5 0.78,-0.54 1.63,-1.01 2.58,-1.17 -0.09,-0.01 -0.18,-0.03 -0.27,-0.04 -0.32,0.06 -0.59,0.06 -0.77,-0.11 z"
   id="path15"
   inkscape:connector-curvature="0"
   style="clip-rule:evenodd;fill-rule:evenodd;fill:#ffffff;fill-opacity:1" />
	<path
   class="st0"
   d="m 152.75,311.26 c 0.05,0.24 0.05,0.47 0.01,0.68 0.46,-0.16 0.91,-0.42 1.36,-0.73 -0.41,0.07 -0.86,0.09 -1.37,0.05 z"
   id="path17"
   inkscape:connector-curvature="0"
   style="clip-rule:evenodd;fill-rule:evenodd;fill:#ffffff;fill-opacity:1" />
	<path
   class="st0"
   d="m 144.19,307.39 c -0.44,-0.67 -1.83,-0.98 -2.76,-1.11 -1.72,-0.22 -4.26,-0.39 -6,-0.28 -0.02,0 -0.05,0 -0.07,0 0,0 0,0 0,0 -0.89,0.06 -1.65,0.68 -2.43,0.56 0.02,0.14 1.83,1.72 2.05,1.57 1.94,-1.3 6.24,-0.73 9.21,-0.74 z"
   id="path19"
   inkscape:connector-curvature="0"
   style="clip-rule:evenodd;fill-rule:evenodd;fill:#ffffff;fill-opacity:1" />
	<path
   class="st0"
   d="m 135.42,306.01 c -0.02,0 -0.05,0 -0.07,0 0.02,0 0.05,0 0.07,0 z"
   id="path21"
   inkscape:connector-curvature="0"
   style="clip-rule:evenodd;fill-rule:evenodd;fill:#ffffff;fill-opacity:1" />
	<path
   class="st0"
   d="m 135.34,299.38 c -0.64,0 -1.29,0 -1.93,0 -1.43,-1.86 -0.25,-7.34 2.21,-4.42 -0.13,1.43 0.3,3.43 -0.28,4.42 z m -0.82,-1.66 c 0.38,-0.35 0.43,-1.35 -0.28,-1.38 -0.15,0.71 -0.37,0.97 0.28,1.38 z"
   id="path23"
   inkscape:connector-curvature="0"
   style="clip-rule:evenodd;fill-rule:evenodd;fill:#ffffff;fill-opacity:1" />
	<path
   class="st0"
   d="m 163.53,295.51 c -3.63,0.4 -7,-0.13 -10.5,-0.28 0.96,-1.57 4.19,-1.03 6.63,-0.83 1.41,0.12 3.78,-0.57 3.87,1.11 z"
   id="path25"
   inkscape:connector-curvature="0"
   style="clip-rule:evenodd;fill-rule:evenodd;fill:#ffffff;fill-opacity:1" />
	<path
   class="st0"
   d="m 144.19,295.79 c -1.42,0.43 -4.67,0.48 -6.08,0 -0.37,-1.31 1.57,-0.73 2.49,-0.83 1.49,-0.17 3.59,-0.83 3.59,0.83 z"
   id="path27"
   inkscape:connector-curvature="0"
   style="clip-rule:evenodd;fill-rule:evenodd;fill:#ffffff;fill-opacity:1" />
	<path
   class="st0"
   d="m 144.19,297.17 c -1.17,1.41 -4.93,0.79 -6.36,0 2,-0.38 4.71,-0.8 6.36,0 z"
   id="path29"
   inkscape:connector-curvature="0"
   style="clip-rule:evenodd;fill-rule:evenodd;fill:#ffffff;fill-opacity:1" />
	<path
   class="st0"
   d="m 162.7,297.17 c -3.15,0.32 -7.36,0.86 -10.22,0.55 0.24,-0.22 0.16,-0.76 0.55,-0.83 2.57,-0.33 7.54,-0.74 9.67,0.28 z"
   id="path31"
   inkscape:connector-curvature="0"
   style="clip-rule:evenodd;fill-rule:evenodd;fill:#ffffff;fill-opacity:1" />
	<path
   class="st0"
   d="m 143.91,299.38 c -0.64,1.06 -4.96,0.58 -6.36,0.28 -0.17,-0.25 -0.33,-0.49 0,-0.55 0.64,-0.22 5.63,-0.85 6.36,0.27 z"
   id="path33"
   inkscape:connector-curvature="0"
   style="clip-rule:evenodd;fill-rule:evenodd;fill:#ffffff;fill-opacity:1" />
	<path
   class="st0"
   d="m 163.25,299.1 c -0.6,1.41 -0.33,1.41 0.28,2.49 -2.57,1.21 -7.31,0.24 -10.78,0.55 1.17,-2.24 6.96,0.08 9.67,-1.66 -1.93,-1.05 -6.96,0.42 -9.67,-0.55 -0.44,-1.08 0.72,-0.57 0.83,-1.11 3.09,0.78 6.52,-0.46 9.67,0.28 z"
   id="path35"
   inkscape:connector-curvature="0"
   style="clip-rule:evenodd;fill-rule:evenodd;fill:#ffffff;fill-opacity:1" />
	<path
   class="st0"
   d="m 144.46,301.59 c -0.62,1.01 -2.66,0.54 -4.14,0.55 -1.5,0.01 -3.15,-0.01 -4.42,0 -1.16,0.01 -2.25,0.71 -2.76,-0.28 -0.05,-0.24 0.11,-0.26 0.28,-0.28 3.06,-0.42 7.98,-0.47 11.04,0.01 z"
   id="path37"
   inkscape:connector-curvature="0"
   style="clip-rule:evenodd;fill-rule:evenodd;fill:#ffffff;fill-opacity:1" />
	<path
   class="st0"
   d="m 133.41,303.8 c -0.02,0.35 -0.35,0.38 -0.28,0.83 2.4,0.04 5.59,-0.05 8.01,0 1.33,0.03 3.11,1.02 3.59,-0.55 -3.14,-0.56 -8.59,-0.22 -11.32,-0.28 z"
   id="path39"
   inkscape:connector-curvature="0"
   style="clip-rule:evenodd;fill-rule:evenodd;fill:#ffffff;fill-opacity:1" />
	<path
   class="st0"
   d="m 163.53,304.35 c -3.47,0.4 -7.05,0.69 -11.05,0.55 0.35,-1.84 3.4,-1.02 5.53,-1.1 1.97,-0.08 4.99,-1.08 5.52,0.55 z"
   id="path41"
   inkscape:connector-curvature="0"
   style="clip-rule:evenodd;fill-rule:evenodd;fill:#ffffff;fill-opacity:1" />
	<path
   class="st0"
   d="m 156.68,307.14 c -1.28,-0.5 -2.74,-0.28 -4.05,0.17 1.07,0.38 2.59,-0.07 4.05,-0.17 z"
   id="path43"
   inkscape:connector-curvature="0"
   style="clip-rule:evenodd;fill-rule:evenodd;fill:#ffffff;fill-opacity:1" />
	<path
   class="st0"
   d="m 158,306.29 c -2.2,0.1 -4.64,-0.42 -6.08,0.55 0.2,0.23 0.44,0.37 0.71,0.46 1.31,-0.45 2.77,-0.67 4.05,-0.17 0.07,-0.01 0.14,-0.02 0.22,-0.02 0.49,-0.02 1.03,-0.01 1.59,0.02 0.51,-0.38 1.01,-0.64 1.52,-0.14 -0.51,-0.51 -1.01,-0.24 -1.52,0.14 2.18,0.11 4.61,0.37 5.32,-0.85 -1.21,-1.02 -3.67,-0.09 -5.81,0.01 z"
   id="path45"
   inkscape:connector-curvature="0"
   style="clip-rule:evenodd;fill-rule:evenodd;fill:#ffffff;fill-opacity:1" />
	<path
   class="st0"
   d="m 125.95,307.12 c 0.28,0 0.55,0 0.83,0 -0.04,1.34 -0.44,2.33 -0.83,3.32 0.04,0.51 0.94,0.17 1.11,0.55 -0.21,1.03 -1.55,0.15 -2.21,0 0.42,-1.23 0.77,-2.54 1.1,-3.87 z"
   id="path47"
   inkscape:connector-curvature="0"
   style="clip-rule:evenodd;fill-rule:evenodd;fill:#ffffff;fill-opacity:1" />
	<path
   class="st0"
   d="m 129.26,308.22 c 0.82,0.44 2.16,0.67 1.38,1.93 -0.41,-0.14 -0.7,-0.41 -1.11,-0.55 -0.19,0.74 0.57,0.53 0.83,0.83 -0.15,0.22 -0.29,0.45 -0.28,0.83 -0.88,0.16 -0.85,-0.52 -1.38,0 0.11,0.98 1.21,0.55 0.55,1.66 -0.56,-0.26 -1.09,-0.56 -1.66,-0.83 0.35,-1.51 1.34,-2.36 1.67,-3.87 z"
   id="path49"
   inkscape:connector-curvature="0"
   style="clip-rule:evenodd;fill-rule:evenodd;fill:#ffffff;fill-opacity:1" />
	<path
   class="st0"
   d="m 145.02,309.33 c -1.18,1.22 -5.26,1 -7.18,0.55 -0.06,-1.17 2.12,-1.05 3.32,-1.1 1.57,-0.08 3.17,-0.19 3.86,0.55 z"
   id="path51"
   inkscape:connector-curvature="0"
   style="clip-rule:evenodd;fill-rule:evenodd;fill:#ffffff;fill-opacity:1" />
	<path
   class="st0"
   d="m 134.52,311.26 c -0.15,0.22 -0.29,0.45 -0.28,0.83 -0.4,0.31 -0.67,0.3 -0.83,-0.28 -0.93,0.63 -0.91,2.22 -2.21,2.49 -0.56,-0.98 0.79,-2.06 1.38,-2.76 -0.11,-0.53 -1.07,-0.22 -0.83,-1.11 1.09,-0.81 1.85,0.6 2.77,0.83 z"
   id="path53"
   inkscape:connector-curvature="0"
   style="clip-rule:evenodd;fill-rule:evenodd;fill:#ffffff;fill-opacity:1" />
	<path
   class="st0"
   d="m 170.99,310.43 c 0.25,0.12 0.49,0.24 0.55,0.55 0.28,0.83 -0.62,0.49 -1.11,0.55 0.12,0.95 0.63,2.49 0,3.32 -0.92,-0.1 -0.43,-1.59 -0.55,-2.49 -0.11,-0.81 -1.6,-0.24 -1.1,-1.66 0.66,-0.16 2.01,0.36 2.21,-0.27 z"
   id="path55"
   inkscape:connector-curvature="0"
   style="clip-rule:evenodd;fill-rule:evenodd;fill:#ffffff;fill-opacity:1" />
	<path
   class="st0"
   d="m 165.46,310.99 c 1.22,-0.39 0,1.65 0.83,1.66 1.49,0.57 0.34,-1.51 1.11,-1.66 1.03,0.17 0.6,3.25 0.28,3.87 -1.22,0.39 0,-1.65 -0.83,-1.66 -1.49,-0.57 -0.34,1.51 -1.11,1.66 -1.03,-0.18 -0.6,-3.26 -0.28,-3.87 z"
   id="path57"
   inkscape:connector-curvature="0"
   style="clip-rule:evenodd;fill-rule:evenodd;fill:#ffffff;fill-opacity:1" />
	<path
   class="st0"
   d="m 163.25,312.92 c -1.22,0.67 -1.84,0.87 -0.28,1.11 -0.36,0.38 -1.2,0.27 -1.93,0.28 -0.91,-1.37 1.14,-2.81 1.93,-1.66 -0.34,-3.03 -4.09,0.09 -2.76,1.93 0.16,-0.66 0.58,0.67 0.83,0.83 1.11,0.16 3.3,-0.68 2.21,-2.49 z"
   id="path59"
   inkscape:connector-curvature="0"
   style="clip-rule:evenodd;fill-rule:evenodd;fill:#ffffff;fill-opacity:1" />
	<path
   class="st0"
   d="m 144.46,312.09 c -0.69,0.82 -2.24,0.51 -3.32,0.28 0.16,-1.2 2.8,-1.05 3.32,-0.28 z"
   id="path61"
   inkscape:connector-curvature="0"
   style="clip-rule:evenodd;fill-rule:evenodd;fill:#ffffff;fill-opacity:1" />
	<path
   class="st0"
   d="m 157.45,312.64 c 1.22,0.59 2.22,2.67 1.93,3.87 -1.22,-0.59 -2.21,-2.67 -1.93,-3.87 z"
   id="path63"
   inkscape:connector-curvature="0"
   style="clip-rule:evenodd;fill-rule:evenodd;fill:#ffffff;fill-opacity:1" />
	<path
   class="st0"
   d="m 137,313.75 c 1.55,0.05 2.84,3.21 1.11,1.93 -1.09,0.38 -1.68,2.44 -2.76,1.93 -0.45,-0.94 1.27,-1.77 1.93,-2.49 -0.24,-0.48 -0.88,-0.8 -0.28,-1.37 z"
   id="path65"
   inkscape:connector-curvature="0"
   style="clip-rule:evenodd;fill-rule:evenodd;fill:#ffffff;fill-opacity:1" />
	<path
   class="st0"
   d="m 154.69,314.03 c 0.91,0.66 1.48,1.65 1.93,2.76 0.43,-0.33 1.08,-0.88 1.66,-0.28 -0.41,0.7 -1.07,1.14 -1.93,1.38 -0.33,-1.39 -2.39,-2.31 -1.66,-3.86 z"
   id="path67"
   inkscape:connector-curvature="0"
   style="clip-rule:evenodd;fill-rule:evenodd;fill:#ffffff;fill-opacity:1" />
	<path
   class="st0"
   d="m 140.59,316.79 c 0.39,1.4 -1.27,0.76 -1.11,1.93 0.05,0.22 0.28,0.28 0.28,0.55 0.76,-0.11 1.18,-1.28 1.93,-0.55 -0.72,1.31 -2.04,2.01 -3.59,2.49 -0.34,-1.26 0.97,-0.87 1.11,-1.66 -0.05,-0.22 -0.28,-0.28 -0.28,-0.55 -1.07,-0.26 -1.14,1.08 -1.93,0.28 0.81,-1.23 2.15,-1.91 3.59,-2.49 z"
   id="path69"
   inkscape:connector-curvature="0"
   style="clip-rule:evenodd;fill-rule:evenodd;fill:#ffffff;fill-opacity:1" />
	<path
   class="st0"
   d="m 142.25,320.38 c 0.82,0.11 1.32,1.37 0.83,1.93 -0.74,0.19 -0.53,-0.57 -0.83,-0.83 -1.17,0.44 0.6,0.99 -0.55,1.66 -0.52,-0.03 -0.19,-0.91 -0.83,-0.83 -1.16,0.44 0.6,0.99 -0.55,1.66 -0.61,-0.22 -0.36,-1.3 -1.11,-1.38 0.63,-1.12 2.19,-1.31 3.04,-2.21 z"
   id="path71"
   inkscape:connector-curvature="0"
   style="clip-rule:evenodd;fill-rule:evenodd;fill:#ffffff;fill-opacity:1" />
	<path
   class="st0"
   d="m 142.25,325.35 c -0.2,-0.68 -0.83,0.91 -1.38,0 0.8,-1.22 2.15,-1.91 3.59,-2.49 0.5,0.92 0.61,1.52 0,2.49 -1.72,-0.56 -1.66,0.49 -2.21,1.66 -0.88,-0.08 -0.55,-1.46 0,-1.66 z m 1.38,-0.55 c 0.03,-0.44 0.71,-0.22 0.55,-0.83 -0.56,-0.24 -1.23,0.72 -0.55,0.83 z"
   id="path73"
   inkscape:connector-curvature="0"
   style="clip-rule:evenodd;fill-rule:evenodd;fill:#ffffff;fill-opacity:1" />
	<path
   class="st0"
   d="m 145.57,327.01 c -0.21,0.85 0.76,0.53 0.55,1.38 -0.97,0.51 -0.91,-0.21 -1.66,-0.55 -1.02,0.58 0.84,1.17 0,1.66 -0.89,-0.21 -1.45,-0.76 -1.66,-1.66 1.12,-0.53 2.01,-1.31 3.04,-1.93 0.95,0.06 1.2,0.82 1.38,1.66 -0.22,0.05 -0.28,0.28 -0.55,0.28 -0.88,0.23 -0.38,-0.92 -1.1,-0.84 z"
   id="path75"
   inkscape:connector-curvature="0"
   style="clip-rule:evenodd;fill-rule:evenodd;fill:#ffffff;fill-opacity:1" />
	<path
   class="st0"
   d="m 148.88,329.22 c 0.78,0.23 0.94,1.09 1.38,1.66 -0.95,2.13 -1.64,3.74 -3.87,1.66 0.72,-1.22 1.73,-2.15 2.49,-3.32 z m 0,2.21 c -0.04,-0.37 1.12,-0.83 0.28,-1.11 0.04,0.38 -1.12,0.84 -0.28,1.11 z m -1.38,1.11 c 0.49,0.69 1.66,-0.69 0.55,-0.83 -0.06,0.39 -0.45,0.47 -0.55,0.83 z"
   id="path77"
   inkscape:connector-curvature="0"
   style="clip-rule:evenodd;fill-rule:evenodd;fill:#ffffff;fill-opacity:1" />
	<path
   class="st0"
   d="m 150.82,330.61 c 0.8,0.3 1.87,0.34 1.93,1.38 -0.58,0.6 -0.79,-0.14 -1.66,0 0.05,0.78 1.31,0.34 1.11,1.38 -0.58,0.6 -0.79,-0.14 -1.66,0 -0.04,1.2 1.64,0.68 0.83,1.93 -0.55,-0.37 -1.32,-0.53 -1.93,-0.83 0.17,-1.57 1.1,-2.39 1.38,-3.86 z"
   id="path79"
   inkscape:connector-curvature="0"
   style="clip-rule:evenodd;fill-rule:evenodd;fill:#ffffff;fill-opacity:1" />
	<path
   class="st0"
   d="m 181.21,340 c 0.53,0.3 1.47,0.19 1.11,1.38 -3.26,-2.21 3.15,6.84 -1.93,4.42 -0.13,-1.13 0.59,0.11 1.38,-0.28 -0.25,-2.39 -2.53,-3.56 -0.56,-5.52 z"
   id="path81"
   inkscape:connector-curvature="0"
   style="clip-rule:evenodd;fill-rule:evenodd;fill:#ffffff;fill-opacity:1" />
	<path
   class="st0"
   d="m 170.99,340.83 c 0.74,0 1.47,0 2.21,0 1.54,1.57 2.35,6.52 -1.38,6.36 -0.27,-2.13 -0.73,-4.06 -0.83,-6.36 z m 1.38,5.25 c 2.28,0.07 1.24,-3.98 0,-4.42 -0.18,0 -0.37,0 -0.55,0 0.08,1.57 0.53,2.78 0.55,4.42 z"
   id="path83"
   inkscape:connector-curvature="0"
   style="clip-rule:evenodd;fill-rule:evenodd;fill:#ffffff;fill-opacity:1" />
	<path
   class="st0"
   d="m 185.64,340.83 c 1.07,-0.04 2.94,0.55 2.49,1.11 0.19,0.92 -0.57,0.45 -0.83,0.28 -0.71,1.59 -1.22,3.38 -1.66,5.25 -1.9,-1.04 0.67,-3.64 0.55,-5.53 -0.12,-0.44 -0.87,-0.24 -0.55,-1.11 z"
   id="path85"
   inkscape:connector-curvature="0"
   style="clip-rule:evenodd;fill-rule:evenodd;fill:#ffffff;fill-opacity:1" />
	<path
   class="st0"
   d="m 118.76,341.38 c -0.08,0.75 -1.01,0.65 -1.11,1.38 -0.18,1.48 0.36,3.68 -0.28,4.7 -1.86,-1.08 1.06,-5.74 -1.38,-5.8 -0.13,-0.99 2.49,-0.63 2.77,-0.28 z"
   id="path87"
   inkscape:connector-curvature="0"
   style="clip-rule:evenodd;fill-rule:evenodd;fill:#ffffff;fill-opacity:1" />
	<path
   class="st0"
   d="m 168.78,341.11 c 0,0.18 0,0.37 0,0.55 0.26,1 -1.19,0.28 -1.38,0.83 0.23,0.32 0.36,0.74 0.28,1.38 0.09,0.38 0.69,0.23 1.11,0.28 -0.22,1.49 -0.99,0.9 -0.55,2.76 0.96,0.22 1.17,-0.52 1.66,0 0.06,1.16 -1.79,0.42 -2.21,1.11 -0.69,-1.89 -0.93,-4.23 -1.38,-6.36 0.76,-0.23 1.69,-0.32 2.47,-0.55 z"
   id="path89"
   inkscape:connector-curvature="0"
   style="clip-rule:evenodd;fill-rule:evenodd;fill:#ffffff;fill-opacity:1" />
	<path
   class="st0"
   d="m 121.25,341.38 c 1.3,0.12 0.27,1.14 0.55,2.49 1.97,0.59 0.6,-2.17 1.93,-2.21 0.12,1.47 -0.2,4.73 -0.83,6.36 -1.24,-0.17 0.22,-1.83 -0.28,-3.04 -0.39,0.02 -0.78,0.05 -0.83,-0.28 -0.6,0.69 -0.18,2.4 -0.83,3.04 -1.25,-0.97 0.44,-3.55 0,-5.53 0.34,-0.04 0.25,-0.5 0.29,-0.83 z"
   id="path91"
   inkscape:connector-curvature="0"
   style="clip-rule:evenodd;fill-rule:evenodd;fill:#ffffff;fill-opacity:1" />
	<path
   class="st0"
   d="m 109.65,342.21 c 0.25,0.89 -0.9,0.39 -1.11,0.83 -0.2,0.84 0.48,0.81 0.28,1.66 0.96,0.22 1.17,-0.52 1.66,0 0.08,0.73 -0.38,0.91 -1.11,0.83 -0.1,1.17 1.17,2.45 0,3.04 -0.98,-1.79 -1.34,-4.18 -2.21,-6.08 0.69,-0.22 2.27,-1.28 2.49,-0.28 z"
   id="path93"
   inkscape:connector-curvature="0"
   style="clip-rule:evenodd;fill-rule:evenodd;fill:#ffffff;fill-opacity:1" />
	<path
   class="st0"
   d="m 126.78,342.21 c 0.97,-0.05 1.77,0.07 2.21,0.55 -0.16,0.98 -2.31,-0.39 -1.66,1.93 -0.09,0.73 1.55,-0.26 1.1,0.83 -0.37,0.35 -0.54,0.83 -1.1,0.28 -0.4,0.34 -0.52,0.95 -0.55,1.66 0.22,0.61 1.71,-0.05 1.38,1.11 -0.8,-0.03 -1.81,0.15 -2.21,-0.28 -0.05,-2.35 0.78,-3.83 0.83,-6.08 z"
   id="path95"
   inkscape:connector-curvature="0"
   style="clip-rule:evenodd;fill-rule:evenodd;fill:#ffffff;fill-opacity:1" />
	<path
   class="st0"
   d="m 164.36,342.76 c -2,0.76 1.47,4.71 -0.28,6.08 -0.8,-1.51 -0.96,-3.64 -1.38,-5.53 -0.63,-0.38 -1.04,0.71 -1.11,0 0.12,-1 2.52,-1.35 2.77,-0.55 z"
   id="path97"
   inkscape:connector-curvature="0"
   style="clip-rule:evenodd;fill-rule:evenodd;fill:#ffffff;fill-opacity:1" />
	<path
   class="st0"
   d="m 158.83,343.32 c 0.43,-1.01 0.41,0.64 1.11,0.28 0.37,2.12 1.48,3.49 2.21,5.25 -0.47,0.81 -1.59,-0.05 -1.38,-0.83 -0.37,0 -0.74,0 -1.11,0 -0.38,0.06 0.36,1.96 -1.11,1.66 0.32,-2.25 0.27,-3.68 0,-5.8 0.32,0.05 0.49,-0.06 0.55,-0.28 0.06,-0.24 -0.1,-0.27 -0.27,-0.28 z m 0.55,4.14 c 0.41,-0.05 1.02,0.1 1.11,-0.28 -0.73,0.06 -0.32,-2.42 -1.11,-1.38 0.62,0.12 0.22,1.47 0,1.66 z"
   id="path99"
   inkscape:connector-curvature="0"
   style="clip-rule:evenodd;fill-rule:evenodd;fill:#ffffff;fill-opacity:1" />
	<path
   class="st0"
   d="m 191.71,343.32 c 1.46,1.86 -2.23,3.02 -1.93,5.53 2.13,-0.48 2.28,-4.31 4.14,-4.14 -1.16,2.07 -1.58,4.87 -4.7,4.97 -1.39,-2.68 1.64,-4.27 2.49,-6.36 z"
   id="path101"
   inkscape:connector-curvature="0"
   style="clip-rule:evenodd;fill-rule:evenodd;fill:#ffffff;fill-opacity:1" />
	<path
   class="st0"
   d="m 135.34,343.87 c 1.09,1.61 0.4,4.85 0.28,6.63 -0.89,-0.53 -0.22,-1.59 -1.66,-1.93 -0.41,0.23 -0.59,0.7 -0.55,1.38 -0.53,-0.12 -1.19,-0.1 -1.11,-0.83 0.23,-0.05 0.26,0.11 0.28,0.28 0.79,-1.51 1.63,-2.97 1.93,-4.97 0.48,0 0.72,-0.21 0.83,-0.56 z m -1.38,4.42 c 0.41,-0.05 1.02,0.1 1.11,-0.28 -0.7,-0.01 0.93,-2.26 -0.28,-1.93 0.47,1.48 -1.06,0.97 -0.83,2.21 z"
   id="path103"
   inkscape:connector-curvature="0"
   style="clip-rule:evenodd;fill-rule:evenodd;fill:#ffffff;fill-opacity:1" />
	<path
   class="st0"
   d="m 154.96,343.87 c 0.28,0 0.55,0 0.83,0 -0.1,2.26 1.23,4.42 0.55,6.36 -1.07,-1.51 -0.9,-4.26 -1.38,-6.36 z"
   id="path105"
   inkscape:connector-curvature="0"
   style="clip-rule:evenodd;fill-rule:evenodd;fill:#ffffff;fill-opacity:1" />
	<path
   class="st0"
   d="m 106.61,349.67 c -2.48,2.78 -4.92,-2.04 -4.97,-4.15 2.52,-2.57 4.73,1.84 4.97,4.15 z m -1.39,0 c 1.03,-1.44 -0.59,-3.67 -2.21,-4.15 -0.94,1.53 0.58,3.58 2.21,4.15 z"
   id="path107"
   inkscape:connector-curvature="0"
   style="clip-rule:evenodd;fill-rule:evenodd;fill:#ffffff;fill-opacity:1" />
	<path
   class="st0"
   d="m 151.37,344.42 c 0.55,0 1.11,0 1.66,0 -0.25,0.67 -0.71,1.13 -1.38,1.38 0,2.12 -0.08,4.32 2.21,4.15 -0.08,1.62 -2.04,0.47 -2.49,0 -0.48,-2.26 -0.72,-3.73 0,-5.53 z"
   id="path109"
   inkscape:connector-curvature="0"
   style="clip-rule:evenodd;fill-rule:evenodd;fill:#ffffff;fill-opacity:1" />
	<path
   class="st0"
   d="m 140.32,345.8 c -2.48,-0.76 -0.76,2.93 0,3.32 -0.25,1.13 -0.98,1.78 -2.21,1.93 0.11,-0.67 -0.5,-0.6 -0.28,-1.38 0.49,0.24 0.81,0.88 1.38,0.28 -0.01,-2.29 -1.45,-2.31 -1.11,-4.42 0.54,-0.78 2.14,-1.31 2.22,0.27 z"
   id="path111"
   inkscape:connector-curvature="0"
   style="clip-rule:evenodd;fill-rule:evenodd;fill:#ffffff;fill-opacity:1" />
	<path
   class="st0"
   d="m 148.06,351.33 c -3.12,0.1 -3.32,-8.06 0.28,-6.36 0.47,1.98 1.5,5.15 -0.28,6.36 z m -0.83,-0.83 c 1.88,-0.14 1.23,-4.58 -0.28,-4.7 -0.61,0.56 -0.49,3.83 0.28,4.7 z"
   id="path113"
   inkscape:connector-curvature="0"
   style="clip-rule:evenodd;fill-rule:evenodd;fill:#ffffff;fill-opacity:1" />
	<path
   class="st0"
   d="m 143.91,345.53 c 0.19,1.14 -0.97,-0.29 -1.38,0.55 0.41,2.04 2.64,3.26 0.83,5.25 -0.69,0.04 -1.15,-0.14 -1.38,-0.55 -0.19,-1.14 0.97,0.29 1.38,-0.55 0.59,-1.39 -1.92,-2.43 -1.66,-3.87 0.11,-0.62 0.97,-2.24 2.21,-0.83 z"
   id="path115"
   inkscape:connector-curvature="0"
   style="clip-rule:evenodd;fill-rule:evenodd;fill:#ffffff;fill-opacity:1" />
	<path
   class="st0"
   d="m 196.96,347.74 c 0.86,0.59 1.36,1.46 1.38,1.93 0.07,1.36 -2.6,3.96 -4.14,3.87 -1.03,-0.06 -2.16,-0.9 -2.21,-1.38 -0.13,-1.2 4.67,-3.22 4.97,-4.42 z m -3.31,4.69 c 1.83,0.7 4.24,-2.11 3.32,-3.32 -0.83,1.4 -2.8,1.63 -3.32,3.32 z"
   id="path117"
   inkscape:connector-curvature="0"
   style="clip-rule:evenodd;fill-rule:evenodd;fill:#ffffff;fill-opacity:1" />
	<path
   class="st0"
   d="m 99.42,355.2 c 0.65,-0.09 0.16,-1.31 1.11,-1.11 0.73,0.87 -0.58,1.46 -0.55,2.49 -1.9,-1.32 -4.51,-1.94 -5.8,-3.87 1.68,-0.16 3.43,1.87 5.24,2.49 z"
   id="path119"
   inkscape:connector-curvature="0"
   style="clip-rule:evenodd;fill-rule:evenodd;fill:#ffffff;fill-opacity:1" />
	<path
   class="st0"
   d="m 201.11,353.26 c -0.05,0.98 1.17,1.51 0.55,2.21 -0.87,0.13 -0.78,-0.69 -1.11,-1.11 -0.53,0.12 -0.69,0.6 -1.38,0.55 -0.14,0.87 0.6,1.08 0,1.66 -0.89,0.24 -0.38,-0.91 -1.11,-0.83 -0.53,0.12 -0.69,0.6 -1.38,0.55 0.04,0.94 0.61,1.52 -0.28,1.93 -0.53,-0.58 -0.89,-1.32 -1.11,-2.21 2.1,-0.76 3.42,-2.29 5.82,-2.75 z"
   id="path121"
   inkscape:connector-curvature="0"
   style="clip-rule:evenodd;fill-rule:evenodd;fill:#ffffff;fill-opacity:1" />
	<path
   class="st0"
   d="m 98.87,357.96 c 0.04,0.5 -0.34,0.58 -0.28,1.11 -0.56,-0.48 -0.54,0.21 -1.11,-0.28 -0.26,0.2 -0.42,0.5 -0.55,0.83 0.54,0.5 1.77,1.65 0.28,1.93 -0.05,-0.23 0.11,-0.26 0.28,-0.28 -1.72,-1.23 -4.05,-1.84 -5.25,-3.59 2.35,-0.54 4.69,0.95 6.63,0.28 z m -2.21,1.66 c -0.05,-0.41 0.1,-1.02 -0.28,-1.1 -0.27,0.95 -1.59,-0.74 -1.93,0.28 1.1,-0.1 1.13,0.89 2.21,0.82 z"
   id="path123"
   inkscape:connector-curvature="0"
   style="clip-rule:evenodd;fill-rule:evenodd;fill:#ffffff;fill-opacity:1" />
	<path
   class="st0"
   d="m 200.56,360.72 c 0.69,0.49 2.26,-0.49 3.32,-0.55 -0.02,0.39 -0.04,0.78 0.28,0.83 -2,0.68 -4.02,1.32 -6.36,1.66 0,-0.37 0,-0.74 0,-1.11 1.39,-0.56 1.38,0.43 2.49,0 -0.09,-0.38 -0.69,-0.23 -1.11,-0.28 -0.01,-0.84 1.39,-0.27 1.38,-1.11 -0.87,0.33 -2.08,0.31 -2.76,0.83 -0.37,-0.18 -0.52,-0.59 -0.55,-1.11 2.32,-0.25 3.91,-1.25 6.36,-1.38 -0.11,1.67 -1.93,1.6 -3.05,2.22 z"
   id="path125"
   inkscape:connector-curvature="0"
   style="clip-rule:evenodd;fill-rule:evenodd;fill:#ffffff;fill-opacity:1" />
	<path
   class="st0"
   d="m 185.64,361.55 c 1.13,16.05 -1.64,30.59 -6.91,41.17 -4.84,-3.56 -8.16,-9.72 -12.71,-14.92 -1.5,-1.72 -3.75,-3.52 -4.14,-4.97 -0.85,-3.11 0,-7.36 0,-11.05 0,-3.58 -0.23,-7.08 0.28,-10.5 7.14,-0.3 16.78,-0.79 23.48,0.27 z m -13.54,10.78 c -1.52,0.14 -3.62,-0.3 -4.7,0.28 -0.01,2.07 2.75,2.93 3.59,4.97 -0.75,1.88 -1.93,4.5 -1.38,6.08 1.92,-0.94 2.89,-2.82 5.25,-3.32 1.84,0.65 2.52,2.45 4.7,2.76 0.66,-2.19 -1.26,-4.04 -1.38,-6.36 0.92,-1.57 2.83,-2.14 3.32,-4.15 -1.04,-0.99 -2.53,0.01 -4.42,-0.28 -0.99,-1.49 -0.62,-4.36 -2.49,-4.97 -0.86,1.65 -1.25,3.75 -2.49,4.99 z"
   id="path127"
   inkscape:connector-curvature="0"
   style="clip-rule:evenodd;fill-rule:evenodd;fill:#ffffff;fill-opacity:1" />
	<path
   class="st0"
   d="m 91.13,361.83 c 0.28,0 0.55,0 0.83,0 0.04,0.68 0.04,1.33 -0.28,1.66 1.18,0.07 2.36,0.15 2.49,-0.83 1.13,-0.08 0.15,0.58 0.28,1.11 0.49,0.16 1.62,-0.33 1.66,0.28 0.87,-0.05 0.03,-1.81 1.11,-1.66 0.88,0.3 0.01,1.24 0.28,2.49 -2.22,-0.27 -4.41,-0.56 -6.63,-0.83 0.41,-0.41 0.23,-1.42 0.26,-2.22 z"
   id="path129"
   inkscape:connector-curvature="0"
   style="clip-rule:evenodd;fill-rule:evenodd;fill:#ffffff;fill-opacity:1" />
	<path
   class="st0"
   d="m 204.15,363.49 c 1.14,-0.07 0.97,2.14 0.55,2.76 -1.13,-1.58 -4.6,0.41 -6.36,-0.28 1.04,-1.73 5.65,0.12 5.81,-2.48 z"
   id="path131"
   inkscape:connector-curvature="0"
   style="clip-rule:evenodd;fill-rule:evenodd;fill:#ffffff;fill-opacity:1" />
	<path
   class="st0"
   d="m 96.66,369.57 c -1.14,0.19 0.29,-0.97 -0.55,-1.38 -1.39,-0.59 -2.43,1.92 -3.87,1.66 -0.62,-0.11 -2.24,-0.97 -0.83,-2.21 1.14,-0.19 -0.29,0.97 0.55,1.38 1.79,-0.24 3.92,-3.13 5.25,-0.55 -0.04,0.51 -0.18,0.92 -0.55,1.1 z"
   id="path133"
   inkscape:connector-curvature="0"
   style="clip-rule:evenodd;fill-rule:evenodd;fill:#ffffff;fill-opacity:1" />
	<path
   class="st0"
   d="m 204.98,371.23 c -1.14,0.19 0.29,-0.97 -0.55,-1.38 -1.97,0.05 -2.07,1.98 -4.42,1.66 -0.54,-0.52 -1.32,-1.61 -0.28,-2.21 1.14,-0.19 -0.29,0.97 0.55,1.38 1.39,0.59 2.43,-1.92 3.87,-1.66 0.62,0.11 2.23,0.97 0.83,2.21 z"
   id="path135"
   inkscape:connector-curvature="0"
   style="clip-rule:evenodd;fill-rule:evenodd;fill:#ffffff;fill-opacity:1" />
	<path
   class="st0"
   d="m 201.66,373.71 c 0.39,0.34 0.63,1.05 0.28,1.38 -0.75,0.2 -0.56,-0.55 -1.11,-0.55 0.04,-0.32 0.5,-0.23 0.83,-0.28 0,-0.18 0,-0.36 0,-0.55 z"
   id="path137"
   inkscape:connector-curvature="0"
   style="clip-rule:evenodd;fill-rule:evenodd;fill:#ffffff;fill-opacity:1" />
	<path
   class="st0"
   d="m 94.45,375.37 c 0.36,0.1 0.43,0.49 0.83,0.55 0,0.55 -0.75,0.35 -0.55,1.11 -0.61,-0.59 -1.03,-1.03 -0.28,-1.66 z"
   id="path139"
   inkscape:connector-curvature="0"
   style="clip-rule:evenodd;fill-rule:evenodd;fill:#ffffff;fill-opacity:1" />
	<path
   class="st0"
   d="m 205.53,403 c -1.02,0.01 -0.31,-1.72 -1.38,-1.66 -1.88,0.05 -2.04,1.82 -3.32,2.49 -1.42,0.22 -1.9,-0.49 -2.76,-0.83 -0.03,-0.86 0.13,-1.53 0.55,-1.93 0.95,0.2 -0.24,2.16 1.66,1.93 1.71,-0.9 2.85,-3.94 5.53,-2.21 0.27,0.72 0.48,1.85 -0.28,2.21 z"
   id="path141"
   inkscape:connector-curvature="0"
   style="clip-rule:evenodd;fill-rule:evenodd;fill:#ffffff;fill-opacity:1" />
	<path
   class="st0"
   d="m 98.59,403.28 c -1.42,1.75 -5.62,-0.74 -6.91,0.83 0.57,2.29 5.12,0.59 6.91,1.66 -0.54,1.26 -2.3,0.35 -3.59,0.28 -1.3,-0.07 -2.71,0.24 -3.59,-0.28 -2.41,-4.07 4.41,-2.93 7.18,-2.49 z"
   id="path143"
   inkscape:connector-curvature="0"
   style="clip-rule:evenodd;fill-rule:evenodd;fill:#ffffff;fill-opacity:1" />
	<path
   class="st0"
   d="m 174.86,410.46 c -1.48,0.67 -5.01,1.5 -6.63,0.28 -1.28,1.03 -3.74,0.87 -5.8,1.11 -0.46,-0.46 -0.22,-1.62 -0.28,-2.49 -1.08,-0.67 -2.94,-0.56 -3.59,-1.66 0.9,-5.94 9.54,-5.41 14.65,-3.59 1.2,1.46 1.98,3.35 1.65,6.35 z m -8.29,-5.52 c -1.56,-0.93 -4.4,-0.04 -4.97,1.66 2.63,-0.33 1.84,2.77 3.59,3.32 -0.17,-1.09 0.41,-1.43 0.83,-1.93 2.33,0.13 4.27,-0.83 5.25,0.83 0.53,-0.76 1.06,-1.52 1.11,-2.76 -1.12,-1.21 -3.42,-1.21 -5.81,-1.12 z"
   id="path145"
   inkscape:connector-curvature="0"
   style="clip-rule:evenodd;fill-rule:evenodd;fill:#ffffff;fill-opacity:1" />
	<path
   class="st0"
   d="m 198.35,405.77 c 0.28,0 0.55,0 0.83,0 0,0.55 0,1.11 0,1.66 0.83,0 1.66,0 2.49,0 0.77,0.12 -0.22,-1.51 0.55,-1.38 0.93,-0.28 0.43,0.86 0.55,1.38 0.74,0 1.47,0 2.21,0 0.78,0.05 -0.23,-1.7 0.55,-1.66 1.12,-0.11 0.3,1.72 0.55,2.49 -2.58,0 -5.16,0 -7.74,0 0.01,-0.84 0.01,-1.66 0.01,-2.49 z"
   id="path147"
   inkscape:connector-curvature="0"
   style="clip-rule:evenodd;fill-rule:evenodd;fill:#ffffff;fill-opacity:1" />
	<path
   class="st0"
   d="m 204.98,411.02 c 0.37,0 0.74,0 1.11,0 -0.23,0.69 -0.36,1.48 -0.28,2.49 -2.41,-0.63 -5.55,-0.53 -7.74,-1.38 0.89,-1.23 4.46,0.55 6.63,0.28 0.6,0.03 0.13,-0.99 0.28,-1.39 z"
   id="path149"
   inkscape:connector-curvature="0"
   style="clip-rule:evenodd;fill-rule:evenodd;fill:#ffffff;fill-opacity:1" />
	<path
   class="st0"
   d="m 152.2,413.78 c 1.37,-0.02 1.83,2.01 0.83,2.76 -1.02,-0.17 -0.84,-1.55 -0.83,-2.76 z"
   id="path151"
   inkscape:connector-curvature="0"
   style="clip-rule:evenodd;fill-rule:evenodd;fill:#ffffff;fill-opacity:1" />
	<path
   class="st0"
   d="m 154.69,413.78 c 0.37,0 0.74,0 1.11,0 0.56,0.64 0.28,2.12 -0.28,2.49 -0.81,-0.3 -0.9,-1.32 -0.83,-2.49 z"
   id="path153"
   inkscape:connector-curvature="0"
   style="clip-rule:evenodd;fill-rule:evenodd;fill:#ffffff;fill-opacity:1" />
	<path
   class="st0"
   d="m 100.25,414.33 c -0.62,1.16 -2.46,1.25 -3.87,1.66 -1.42,0.41 -3.01,1.14 -4.14,0.83 0.49,-1.24 2.56,-1.29 3.87,-1.66 1.47,-0.41 2.97,-1.22 4.14,-0.83 z"
   id="path155"
   inkscape:connector-curvature="0"
   style="clip-rule:evenodd;fill-rule:evenodd;fill:#ffffff;fill-opacity:1" />
	<path
   class="st0"
   d="m 197.52,414.61 c 0.28,0 0.55,0 0.83,0 0.04,0.68 0.04,1.33 -0.28,1.66 0.69,0.33 1.63,0.4 2.49,0.55 0.51,-0.32 0.19,-1.47 1.38,-1.11 0.09,0.64 -0.04,1.06 -0.28,1.38 0.37,0.46 1.57,0.09 1.93,0.55 0.95,-0.07 0.05,-1.97 1.66,-1.38 -0.12,0.89 -0.53,1.5 -0.55,2.49 -2.76,-0.37 -5.06,-1.2 -7.74,-1.66 0.03,-0.98 0.44,-1.59 0.56,-2.48 z"
   id="path157"
   inkscape:connector-curvature="0"
   style="clip-rule:evenodd;fill-rule:evenodd;fill:#ffffff;fill-opacity:1" />
	<path
   class="st0"
   d="m 125.95,414.88 c 0.71,0.21 0.96,0.88 0.83,1.93 -0.5,0.04 -0.58,-0.34 -1.11,-0.28 -0.2,-0.83 0.29,-0.99 0.28,-1.65 z"
   id="path159"
   inkscape:connector-curvature="0"
   style="clip-rule:evenodd;fill-rule:evenodd;fill:#ffffff;fill-opacity:1" />
	<path
   class="st0"
   d="m 128.44,414.88 c 0.37,0 0.74,0 1.11,0 -0.13,0.98 0.45,2.66 -0.83,2.49 -0.47,-0.46 -0.23,-1.62 -0.28,-2.49 z"
   id="path161"
   inkscape:connector-curvature="0"
   style="clip-rule:evenodd;fill-rule:evenodd;fill:#ffffff;fill-opacity:1" />
	<path
   class="st0"
   d="m 96.11,420.69 c 0.69,0.67 5.55,-2.95 6.08,-0.28 -2.59,-0.21 -5.54,1.63 -8.01,1.1 -0.64,-0.78 1.04,-1.01 1.66,-1.38 1.42,-1.44 3.39,-2.32 5.25,-3.32 -0.03,0.5 0.34,0.58 0.28,1.11 -1.93,0.76 -3.58,1.78 -5.26,2.77 z"
   id="path163"
   inkscape:connector-curvature="0"
   style="clip-rule:evenodd;fill-rule:evenodd;fill:#ffffff;fill-opacity:1" />
	<path
   class="st0"
   d="m 198.07,419.58 c 0.01,0.93 -1.28,0.56 -1.66,1.11 0.43,1.33 4.69,3.74 5.8,1.93 0.16,-1.08 -1.14,-0.71 -1.38,-1.38 -0.73,-0.08 -0.22,1.07 -1.11,0.83 -0.55,-0.55 0.09,-1.32 0.28,-1.93 1.26,0.39 2.43,0.89 3.32,1.66 0,0.83 -0.54,1.32 -0.83,2.49 -1.98,0.71 -4.7,-0.95 -6.63,-1.93 0.08,-1.45 -0.29,-1.64 0,-2.76 0.78,0.58 1.28,-1.29 2.21,-0.02 z"
   id="path165"
   inkscape:connector-curvature="0"
   style="clip-rule:evenodd;fill-rule:evenodd;fill:#ffffff;fill-opacity:1" />
	<path
   class="st0"
   d="m 103.57,422.35 c -0.03,1.03 1.28,1.62 0.55,2.49 -1.16,0.24 -0.92,-0.92 -1.38,-1.38 -0.7,0.41 -1.23,0.98 -2.21,1.11 -0.3,0.71 0.84,1.32 0,1.66 -0.75,0.77 -0.5,-0.68 -1.11,-0.83 -0.85,0.07 -1.24,0.6 -1.93,0.83 -0.04,0.85 0.97,1.24 0.28,1.93 -1.29,0 -0.75,-1.83 -1.66,-2.21 2.36,-1.33 4.64,-2.74 7.46,-3.6 z"
   id="path167"
   inkscape:connector-curvature="0"
   style="clip-rule:evenodd;fill-rule:evenodd;fill:#ffffff;fill-opacity:1" />
	<path
   class="st0"
   d="m 102.74,429.53 c -1.18,0.46 -1.86,2.65 -3.04,2.21 -0.16,-1.25 1.54,-2.09 2.49,-3.04 1,-1 1.94,-2.12 2.76,-3.04 1.96,0.96 1.84,2.83 0.83,4.14 -0.87,-0.13 -0.98,0.5 -1.93,0.28 -1.03,1.21 -1.01,2.1 -1.66,3.59 -2.33,-0.55 0.28,-2.83 0.55,-4.14 z m 0.83,-0.28 c 1.03,-0.26 1.94,-0.64 1.93,-1.93 -0.67,-0.45 -2.38,1.26 -1.93,1.93 z"
   id="path169"
   inkscape:connector-curvature="0"
   style="clip-rule:evenodd;fill-rule:evenodd;fill:#ffffff;fill-opacity:1" />
	<path
   class="st0"
   d="m 197.24,432.29 c -0.21,0.96 -1.37,0.93 -1.93,0.28 -0.36,0.1 -0.43,0.49 -0.83,0.55 0.09,1.21 0.85,2.23 -0.28,2.49 -1.34,0.3 -0.14,-0.4 -0.55,-1.11 -0.9,-1.53 -3.15,-4.25 -3.87,-6.08 2.42,0.28 4.84,2.88 7.46,3.87 z m -3.31,0.56 c -0.04,-0.37 1.12,-0.83 0.28,-1.11 -0.5,0.42 -2.78,-2.46 -2.76,-1.66 1.07,0.67 1.55,1.94 2.48,2.77 z"
   id="path171"
   inkscape:connector-curvature="0"
   style="clip-rule:evenodd;fill-rule:evenodd;fill:#ffffff;fill-opacity:1" />
	<path
   class="st0"
   d="m 110.2,429.81 c 0.19,0.62 0.83,1.38 0.28,1.93 -0.77,-0.06 -0.78,-0.88 -1.38,-1.11 -1.92,1.09 -0.1,6.51 -3.04,6.08 -0.69,-0.1 -1.97,-0.85 -1.38,-1.93 0.94,-0.21 0.35,1.12 1.38,0.83 0.75,0.2 0.56,-0.55 1.11,-0.55 -0.06,-2.97 -0.95,-5.26 3.03,-5.25 z"
   id="path173"
   inkscape:connector-curvature="0"
   style="clip-rule:evenodd;fill-rule:evenodd;fill:#ffffff;fill-opacity:1" />
	<path
   class="st0"
   d="m 113.24,432.02 c -1.09,2.69 -2.32,5.23 -4.15,7.18 -0.07,-2.49 2.51,-4.66 3.32,-7.18 0.28,0 0.55,0 0.83,0 z"
   id="path175"
   inkscape:connector-curvature="0"
   style="clip-rule:evenodd;fill-rule:evenodd;fill:#ffffff;fill-opacity:1" />
	<path
   class="st0"
   d="m 185.91,432.85 c -0.07,0.85 -1.18,0.66 -1.38,1.38 0.8,1.78 3.59,1.57 4.42,3.32 0.45,1.07 -1.58,3.83 -2.49,1.66 0.64,0.09 1.06,-0.04 1.38,-0.28 -0.73,-0.64 0.73,-0.74 0,-1.38 -1.74,-0.93 -4.06,-1.28 -4.42,-3.59 0.46,-0.96 1.47,-2.24 2.49,-1.11 z"
   id="path177"
   inkscape:connector-curvature="0"
   style="clip-rule:evenodd;fill-rule:evenodd;fill:#ffffff;fill-opacity:1" />
	<path
   class="st0"
   d="m 115.17,433.68 c 1.42,0.15 2.66,0.47 3.04,1.66 -2.82,-0.12 -2.41,4.81 -4.7,6.08 -0.14,-2.02 1.73,-4.32 2.49,-6.36 -0.02,-0.72 -1.18,-0.29 -0.83,-1.38 z"
   id="path179"
   inkscape:connector-curvature="0"
   style="clip-rule:evenodd;fill-rule:evenodd;fill:#ffffff;fill-opacity:1" />
	<path
   class="st0"
   d="m 182.87,442.24 c -3.84,0.66 -4.57,-5.88 -3.87,-7.18 3.61,-2.07 6.23,5.7 3.87,7.18 z m -1.1,-0.83 c 0.06,-0.33 0.31,-0.17 0.55,0 1.23,-1.99 -0.98,-5.6 -2.21,-6.08 -1.18,1.61 0.6,4.34 1.66,6.08 z"
   id="path181"
   inkscape:connector-curvature="0"
   style="clip-rule:evenodd;fill-rule:evenodd;fill:#ffffff;fill-opacity:1" />
	<path
   class="st0"
   d="m 173.75,436.71 c 1.53,1.41 1.75,4.14 2.49,6.36 0.39,0.51 1.34,-0.43 1.93,0.28 -0.12,1.08 -1.57,0.83 -2.49,1.11 -0.32,-2.75 -2.27,-5.25 -1.93,-7.75 z"
   id="path183"
   inkscape:connector-curvature="0"
   style="clip-rule:evenodd;fill-rule:evenodd;fill:#ffffff;fill-opacity:1" />
	<path
   class="st0"
   d="m 117.66,453.29 c 1.52,0.8 1.68,5.37 -0.28,5.8 -2.36,-0.05 -2.43,-6.08 0.28,-5.8 z m -0.28,4.98 c 0.77,-0.52 1.05,-4.03 -0.28,-4.15 -0.76,0.52 -1.04,4.03 0.28,4.15 z"
   id="path185"
   inkscape:connector-curvature="0"
   style="clip-rule:evenodd;fill-rule:evenodd;fill:#ffffff;fill-opacity:1" />
	<path
   class="st0"
   d="m 119.59,453.29 c 0.66,0.17 2,-0.35 2.21,0.28 0.28,0.93 -0.86,0.43 -1.38,0.55 0,0.46 0,0.92 0,1.38 -0.2,0.75 1.3,-0.2 1.11,0.55 0.28,0.83 -0.62,0.49 -1.11,0.55 -0.17,0.75 0.35,2.19 -0.28,2.49 -1.24,-0.87 -0.21,-4.01 -0.55,-5.8 z"
   id="path187"
   inkscape:connector-curvature="0"
   style="clip-rule:evenodd;fill-rule:evenodd;fill:#ffffff;fill-opacity:1" />
	<path
   class="st0"
   d="m 177.07,453.29 c 0.28,0 0.55,0 0.83,0 0.03,2 1.18,4.34 0.83,5.8 -0.83,0.28 -0.49,-0.62 -0.55,-1.11 -0.37,0 -0.74,0 -1.1,0 -0.75,-0.2 0.2,1.3 -0.55,1.11 -1.04,-0.75 0.46,-3.53 0.55,-4.97 -0.01,-0.27 -0.01,-0.55 -0.01,-0.83 z m 0.55,4.15 c 0.4,-0.15 -0.04,-3.25 -0.28,-2.76 0.48,1.11 -1.07,2.53 0.28,2.76 z"
   id="path189"
   inkscape:connector-curvature="0"
   style="clip-rule:evenodd;fill-rule:evenodd;fill:#ffffff;fill-opacity:1" />
	<path
   class="st0"
   d="m 179,453.29 c 0.75,0.17 2.19,-0.35 2.49,0.28 0.13,0.59 -0.4,0.53 -0.83,0.55 -0.18,1.57 0.36,3.86 -0.28,4.97 -1.23,-0.52 -0.23,-3.27 -0.55,-4.7 -0.11,-0.52 -1.26,-0.01 -0.83,-1.1 z"
   id="path191"
   inkscape:connector-curvature="0"
   style="clip-rule:evenodd;fill-rule:evenodd;fill:#ffffff;fill-opacity:1" />
	<path
   class="st0"
   d="m 150.54,458.54 c 3.66,-0.99 3.34,7.42 0.83,7.74 -2.93,0.37 -2.92,-6.46 -0.83,-7.74 z m 0.28,6.91 c 1.92,-0.32 2.08,-5.81 0,-6.08 -0.84,1.19 -0.84,4.89 0,6.08 z"
   id="path193"
   inkscape:connector-curvature="0"
   style="clip-rule:evenodd;fill-rule:evenodd;fill:#ffffff;fill-opacity:1" />
	<path
   class="st0"
   d="m 145.02,459.1 c -0.03,0.71 -0.93,0.55 -1.66,0.55 -0.22,1.14 0.42,1.42 0.28,2.49 0.03,0.61 1.17,0.12 1.66,0.28 0.13,0.86 -0.59,0.88 -1.38,0.83 -0.16,1.19 0.69,2.8 0.28,3.32 -1.04,0.57 -0.67,-0.97 -0.83,-1.66 -0.38,-1.64 -1.09,-4.49 -0.55,-5.8 0.39,-0.42 1.79,-0.42 2.2,-0.01 z"
   id="path195"
   inkscape:connector-curvature="0"
   style="clip-rule:evenodd;fill-rule:evenodd;fill:#ffffff;fill-opacity:1" />
	<path
   class="st0"
   d="m 157.73,459.65 c 1.48,-0.19 1.86,0.72 2.76,1.11 -0.5,1.16 -0.17,3.15 -1.93,3.04 0.31,1.5 0.8,3.56 0,4.14 -1.35,-0.78 -0.51,-2.05 -0.83,-3.87 -0.85,0.81 -0.21,3.1 -1.66,3.32 -0.26,-2.33 1.44,-4.98 1.66,-7.74 z m 0.27,3.59 c 0.92,-0.27 2,-2.57 0.55,-2.76 -0.12,0.98 -0.61,1.6 -0.55,2.76 z"
   id="path197"
   inkscape:connector-curvature="0"
   style="clip-rule:evenodd;fill-rule:evenodd;fill:#ffffff;fill-opacity:1" />
	<path
   class="st0"
   d="m 137,460.2 c 0.45,-0.08 0.48,0.26 0.83,0.28 0.25,2.64 1.92,5.23 1.66,7.46 -1.33,-0.43 -1.28,-2.53 -1.66,-3.87 -0.39,-1.36 -1.25,-2.81 -0.83,-3.87 z"
   id="path199"
   inkscape:connector-curvature="0"
   style="clip-rule:evenodd;fill-rule:evenodd;fill:#ffffff;fill-opacity:1" />
	<path
   class="st0"
   d="m 131.2,462.14 c 1.65,1.39 1.85,4.23 2.76,6.36 0.82,0.01 1.4,-0.81 1.93,-0.28 -0.02,1.17 -1.76,0.63 -2.21,1.38 -1.05,-2.1 -2.61,-5.1 -2.48,-7.46 z"
   id="path201"
   inkscape:connector-curvature="0"
   style="clip-rule:evenodd;fill-rule:evenodd;fill:#ffffff;fill-opacity:1" />
	<path
   class="st0"
   d="m 125.95,464.07 c 2.68,1.09 2.62,4.93 4.97,6.36 -0.5,1.3 -1.62,-0.01 -2.21,-0.28 -0.41,0.14 -0.7,0.41 -1.11,0.55 0.65,0.69 0.11,1.73 -1.1,1.38 0.44,-2.8 -0.83,-5.1 -0.55,-8.01 z m 1.38,5.53 c 0.49,-0.15 1.15,-0.14 1.38,-0.55 -1.08,-0.49 -1.27,-3.32 -2.21,-3.04 0.51,0.87 1.05,2.87 0.83,3.59 z"
   id="path203"
   inkscape:connector-curvature="0"
   style="clip-rule:evenodd;fill-rule:evenodd;fill:#ffffff;fill-opacity:1" />
	<path
   class="st0"
   d="m 171.54,464.35 c 0.22,0.15 0.45,0.29 0.83,0.28 -0.82,2.5 -1.61,5.03 -2.76,7.18 -0.96,-0.62 -0.09,-2.24 0.28,-3.32 0.39,-1.13 1.2,-2.35 1.38,-3.32 -0.08,-0.44 0.26,-0.47 0.27,-0.82 z"
   id="path205"
   inkscape:connector-curvature="0"
   style="clip-rule:evenodd;fill-rule:evenodd;fill:#ffffff;fill-opacity:1" />
	<path
   class="st0"
   d="m 122.36,466.56 c -0.88,-0.89 -0.82,0.58 -1.66,0.55 -0.01,1.82 0.67,3.71 1.66,5.25 0.81,-0.41 1.03,0.31 1.38,-0.55 0.74,0.58 -0.24,1.77 -1.11,1.66 -0.46,-0.59 -0.94,-0.56 -1.66,-1.38 -0.71,-0.82 -1.59,-3.47 -1.38,-5.25 0.49,-0.5 2.5,-2.08 2.77,-0.28 z"
   id="path207"
   inkscape:connector-curvature="0"
   style="clip-rule:evenodd;fill-rule:evenodd;fill:#ffffff;fill-opacity:1" />
	<path
   class="st0"
   d="m 185.36,469.87 c 0.3,1.03 -0.69,0.79 -0.55,1.66 -0.93,0.1 -1.18,-0.48 -1.66,-0.83 0.21,-0.99 1.28,-1.29 2.21,-0.83 z"
   id="path209"
   inkscape:connector-curvature="0"
   style="clip-rule:evenodd;fill-rule:evenodd;fill:#ffffff;fill-opacity:1" />
	<path
   class="st0"
   d="m 114.07,470.7 c 0.2,0.75 -0.55,0.56 -0.55,1.11 -0.93,0.11 -1.18,-0.48 -1.66,-0.83 0.13,-1.12 1.94,-1.52 2.21,-0.28 z"
   id="path211"
   inkscape:connector-curvature="0"
   style="clip-rule:evenodd;fill-rule:evenodd;fill:#ffffff;fill-opacity:1" />
	<path
   class="st0"
   d="m 98.87,408.81 c -0.42,1.33 -2.63,0.87 -3.04,2.21 -0.65,-0.01 -0.81,0.48 -1.66,0.28 1.31,0.93 3.72,-0.88 4.97,0 -0.54,0.95 -2.18,0.67 -3.32,0.83 -1.3,0.18 -2.82,0.64 -4.42,0.55 0.57,-1.55 2.64,-1.6 3.87,-2.49 -0.99,-0.88 -3.39,0.64 -4.14,0 1.02,-1.2 4.09,-1.15 6.08,-1.38 0.57,-0.07 1.23,-0.64 1.66,0 z"
   id="path213"
   inkscape:connector-curvature="0"
   style="clip-rule:evenodd;fill-rule:evenodd;fill:#ffffff;fill-opacity:1" />
	<path
   class="st0"
   d="m 142.25,362.11 c -0.87,3.15 0.26,3.84 0.28,7.18 0.75,1.23 1.66,0.95 1.93,2.21 0.43,1.95 -1.66,3.56 -1.93,5.25 -0.22,1.32 0.92,1.29 1.11,2.21 -0.53,3.89 1.53,6.72 2.21,10.22 1.08,0.12 2.19,0.21 3.04,0.55 1.08,1.22 1.28,3.33 2.21,4.7 0.12,1.23 -0.75,1.46 -1.11,2.21 0.65,0.64 0.88,1.69 1.38,2.49 1.19,0.56 2.7,0.8 3.59,1.66 0.07,2.28 -0.8,3.58 -0.55,5.25 0.44,2.91 3.74,3.64 4.7,6.08 -1.06,2.91 0.06,4.26 0.55,6.91 0.92,0.83 2.04,1.46 2.49,2.76 1.04,1.18 2.92,1.51 3.04,3.04 0.14,1.76 -3,3.99 -4.14,5.25 -3.06,3.36 -5.5,6.03 -9.12,9.4 -1.42,1.32 -3.31,4.07 -4.97,4.14 -1.81,0.08 -4.49,-3.1 -6.91,-5.53 -13.57,-13.6 -26.22,-34.98 -28.74,-57.48 -0.73,-6.56 -0.3,-13.32 0.28,-19.07 -0.05,-0.23 0.11,-0.26 0.28,-0.28 0.22,-0.05 0.28,-0.28 0.55,-0.28 7.2,0 15.52,0 23.21,0 2.36,0.02 5.06,-0.46 6.62,1.13 z m -22.38,0.83 c -0.76,2.11 0.76,3.71 1.38,5.25 1.04,2.58 2.15,5.74 3.04,8.57 0.21,0.66 0.07,1.55 0.28,2.21 0.52,1.67 2.24,3.29 1.38,4.97 -1.45,-1.01 -1.92,-3.11 -2.49,-4.7 -2,-5.53 -3.79,-11.27 -6.08,-16.3 -0.92,0 -1.84,0 -2.76,0 -0.36,2.09 1.31,3.72 2.21,5.53 1.9,3.81 3.31,7.96 5.25,11.33 1.03,1.78 2.47,3.55 2.49,5.53 -1.15,-0.05 -1.69,-1.4 -2.21,-2.21 -3.58,-5.65 -5.78,-12.69 -9.39,-17.96 -1.18,4.05 0.28,5.43 1.93,8.01 2.09,3.26 3.74,6.21 5.25,9.4 1.15,1.24 3.75,3.36 2.76,4.97 -3.06,-2.82 -5.28,-6.52 -7.18,-10.22 -0.81,-1.57 -1.38,-3.75 -3.04,-4.7 -0.53,1.83 0.11,3.13 0,5.25 2.62,2.72 4.7,5.98 7.74,8.29 0.69,1.52 1.31,3.12 3.87,2.76 0.67,-0.71 0.94,-1.82 1.38,-2.76 2.86,-2.8 8.87,-2.08 10.5,1.38 0.47,0.45 0.11,1.74 1.11,1.66 0.66,0.91 0.82,-1 1.93,-0.55 1.54,0.49 1.77,2.28 3.87,2.21 0.4,-0.61 1.4,-0.62 1.11,-1.93 -1.34,-0.41 -2.25,1.05 -3.04,0.28 -0.93,-1.82 2.5,-1 1.93,-3.32 -2.41,-1.24 -2.4,2.16 -4.7,1.93 0.3,-3.23 6.04,-3.42 3.32,-7.18 -1.61,1.45 -2.83,4.69 -4.7,4.97 -0.1,-2.61 2.59,-4.23 3.59,-6.91 0.46,-1.23 0.37,-2.68 0.83,-4.15 0.87,-0.71 1.87,-3.04 -0.28,-3.04 -2.13,4.13 -2.66,9.87 -5.8,12.99 -0.85,-1.12 0.5,-1.8 0.83,-2.76 0.37,-1.07 0.44,-2.21 0.83,-3.32 1.31,-3.76 4.34,-8.78 3.32,-12.71 -0.47,-1.11 1.08,-2.54 -0.28,-2.76 -1.58,0.51 -1.79,2.8 -2.21,4.42 -0.96,3.69 -1.99,7.25 -2.76,10.78 -0.34,1.57 -0.13,4.94 -1.93,4.42 0.7,-6.03 3.09,-12.75 4.14,-19.34 -0.59,-0.51 -2.02,-0.19 -3.04,-0.28 -1.07,3.75 -1.62,10.12 -1.93,14.37 -0.11,1.47 0.55,4.62 -1.11,4.97 -0.05,-5.76 0.85,-12.96 1.11,-19.34 -0.92,0 -1.84,0 -2.76,0 0.12,5.06 0.25,11.49 0.28,16.3 0,0.95 1.15,2.68 -0.55,3.04 -1.07,-1.54 -0.46,-3.6 -0.55,-5.53 -0.2,-4.32 -0.58,-8.92 -0.55,-13.26 -0.57,-0.81 -1.79,-0.97 -3.32,-0.83 0.07,5.47 1.44,11.71 2.21,17.41 0.12,0.87 1.41,2.24 0,2.76 -1.63,-6.29 -3.23,-12.62 -4.15,-19.62 -0.96,-0.13 -2.12,-1.02 -3.06,-0.28 z m -1.11,24.59 c 0.08,-1.72 -1.63,-2.39 -2.49,-3.32 -0.79,-0.85 -1.17,-2.18 -2.49,-2.49 -0.06,-0.21 -0.23,-0.32 -0.55,-0.28 -0.12,3.83 2.16,6.68 5.53,6.09 z m 8.02,2.21 c 3.19,-0.05 4,2.1 7.46,1.11 0.15,-4.11 -6.63,-4.74 -7.46,-1.11 z m -12.16,0 c 0.68,0.04 1.33,0.04 1.66,-0.28 -0.06,-0.95 -0.82,-1.2 -1.66,-1.38 -0.52,0.49 0.22,0.7 0,1.66 z m 34.82,9.12 c -0.83,-1.1 -1.23,-2.64 -1.66,-4.14 -1.96,-0.76 -2.86,0.11 -4.42,-0.28 -1.91,-0.48 -2.79,-2.57 -4.14,-2.76 -2.27,-0.33 -3.17,2.16 -6.36,1.66 -1.44,0.74 -2.74,2.86 -4.7,3.32 -1.37,0.32 -3.48,-0.07 -4.97,-0.55 0.74,-1.04 1.5,-1.98 3.04,-2.49 0.68,-0.22 2.47,0.62 2.49,-0.83 -3.07,0.74 -6.67,-3.11 -9.95,-2.49 -1.57,0.3 -2.57,1.83 -3.32,3.59 1.76,4.32 3.23,8.93 5.25,12.99 3.13,0 6.26,0 9.4,0 0.18,-2.03 1.62,-2.8 4.15,-2.49 0.18,-1.02 0.54,-1.86 0.55,-3.04 -1.96,-0.03 -2.36,1.51 -3.04,2.76 -1.09,0.17 -1.44,-0.41 -1.93,-0.83 0.59,-2.36 2.38,-3.51 4.42,-4.42 2.78,0.9 4.12,3.24 4.14,6.91 1.41,-0.8 2.28,-2.15 4.7,-1.93 0.14,-3.47 4,-6.33 6.35,-4.98 z m -1.66,-7.19 c -0.49,0.16 -1.62,-0.33 -1.66,0.28 0.49,-0.16 1.62,0.33 1.66,-0.28 z m -2.76,11.06 c 1.03,6.24 0.3,14.25 1.38,20.45 0.74,0 1.47,0 2.21,0 -0.21,-5.71 -0.84,-11.77 -0.28,-17.41 -0.42,-0.69 -2.38,0.17 -2.76,-0.55 0.2,-1.37 2.05,-1.08 2.76,-1.93 0.09,-1.1 0.02,-2.04 -0.55,-2.49 -1.56,0 -1.72,1.4 -2.76,1.93 z m 7.73,2.76 c 0.85,-1.04 1.03,-4.45 -1.11,-4.15 0.21,1.56 -0.64,4.15 1.11,4.15 z m -20.72,1.66 c -0.02,3.69 0.39,8.19 0.55,11.88 0.07,1.56 -0.71,3.84 0.83,4.7 1.82,-0.27 1.1,-3.07 1.1,-4.7 0,-1.91 0.13,-3.99 0,-5.8 -0.17,-2.32 0.53,-5.26 -0.83,-6.63 -1.03,-0.3 -0.78,0.68 -1.65,0.55 z m 8.56,0.27 c -1.49,0.35 -1.95,1.73 -2.76,2.76 0.4,0.34 0.37,1.1 1.11,1.11 -0.01,-1.58 0.38,-2.76 1.66,-3.04 0.73,1.02 0.64,2.86 2.76,2.49 -0.24,-1.79 -1.45,-2.61 -2.77,-3.32 z m 10.5,4.43 c -0.38,2.6 -0.47,6.53 0,9.12 1.38,0.09 0.61,-1.97 1.38,-2.49 2.31,0.32 2.95,0.49 4.97,-0.28 -0.26,-1.89 -1.08,-4.13 0,-5.8 -1.56,-1.34 -3.86,-0.44 -6.35,-0.55 z m -27.9,0.27 c 0.67,2.83 2.29,4.71 3.59,6.91 1.1,0 2.21,0 3.32,0 0.83,1.15 -0.53,3.01 0.55,3.59 0.16,-3.48 -0.2,-6.43 -0.28,-9.67 -1.57,-1.08 -4.81,-1.41 -7.18,-0.83 z m 13.54,8.01 c 0,-0.74 0,-1.47 0,-2.21 2.05,-0.81 5.01,-0.7 7.46,-1.11 0.11,-3.91 -5.16,-1.08 -7.18,-1.93 -0.02,-0.17 -0.04,-0.33 -0.28,-0.28 -0.7,1.38 -0.4,4.98 0,5.53 z m 16.85,1.66 c 0.04,-0.69 0.05,-1.34 -0.55,-1.38 -0.44,0.42 0.01,1.17 0.55,1.38 z m 2.77,-1.38 c -0.31,-0.26 -1.04,0.16 -1.11,0.28 -0.47,0.89 1.53,0.08 1.11,-0.28 z m -8.02,4.42 c -1.97,0.09 -4.09,-0.29 -5.8,0.28 0.61,2.58 0.88,5.14 1.38,8.57 0.35,2.4 0.29,7.54 2.21,8.01 1.26,0.31 4.14,-2.51 4.97,-3.32 3.36,-3.26 5.32,-5.84 8.01,-8.84 1.35,-1.5 3.34,-2.81 3.59,-4.42 -4.03,-1.13 -9.46,-0.5 -14.36,-0.28 z m -12.16,5.53 c 1.13,-1.27 1.37,-3.42 1.93,-5.25 -2.21,0.18 -5.16,-0.37 -6.91,0.28 1.63,1.69 2,4.63 4.98,4.97 z m 3.87,-5.25 c -1.69,1.81 -2.1,4.9 -2.76,7.74 1.7,2.07 3.29,4.26 5.53,5.8 -0.53,-4.62 -1.28,-9.04 -1.93,-13.54 -0.29,0 -0.56,0 -0.84,0 z"
   id="path215"
   inkscape:connector-curvature="0"
   style="clip-rule:evenodd;fill-rule:evenodd;fill:#ffffff;fill-opacity:1" />
	<path
   class="st0"
   d="m 195.86,427.04 c 0.83,1.38 3,1.42 3.32,3.32 -1.18,0.22 -2.34,-1.31 -3.59,-2.21 -1.1,-0.79 -3.45,-1.45 -2.76,-3.04 1.76,0.79 2.52,0.98 4.42,1.38 -0.95,-1.17 -2.77,-1.47 -3.32,-3.04 1.14,-0.02 2.46,1.11 3.59,1.93 1.12,0.81 2.46,1.67 3.04,2.76 -1.5,0.23 -3.41,-0.82 -4.7,-1.1 z"
   id="path217"
   inkscape:connector-curvature="0"
   style="clip-rule:evenodd;fill-rule:evenodd;fill:#ffffff;fill-opacity:1" />
	<path
   class="st0"
   d="m 120.7,435.89 c 0.5,-0.04 0.58,0.34 1.1,0.28 -0.76,0.87 -0.16,1.46 -0.55,2.49 1.53,0.09 1.05,-2.46 2.76,-1.38 -0.23,1.07 -1.49,1.65 -2.21,2.49 -1.2,1.39 -1.74,3.23 -2.76,3.87 -1,-0.29 0.74,-2.3 1.11,-3.04 -0.25,-1.19 0.47,-3.8 0.55,-4.71 z"
   id="path219"
   inkscape:connector-curvature="0"
   style="clip-rule:evenodd;fill-rule:evenodd;fill:#ffffff;fill-opacity:1" />
	<path
   class="st0"
   d="m 164.91,461.86 c 0.5,-0.04 0.58,0.34 1.11,0.28 -0.39,2.05 -0.51,3.47 -0.55,5.8 0.97,-1.61 0.65,-4.5 2.76,-4.97 -0.53,1.33 -0.84,2.85 -1.38,4.15 -0.49,1.17 -1.12,2.49 -1.93,3.32 -1.07,-0.77 0.06,-2.71 0,-4.7 -1.63,0.49 -0.7,3.53 -2.76,3.59 0.6,-2.81 2.11,-4.7 2.75,-7.47 z"
   id="path221"
   inkscape:connector-curvature="0"
   style="clip-rule:evenodd;fill-rule:evenodd;fill:#ffffff;fill-opacity:1" />
	<path
   class="st0"
   d="m 176.24,465.73 c 1.95,0.96 -0.13,5.35 0.83,8.29 -1.02,0.19 -1.22,-0.44 -1.11,-1.38 -0.2,-0.9 -1.58,-0.18 -1.66,-0.55 -0.38,0.08 -0.23,0.69 -0.28,1.11 -0.64,0.09 -1.06,-0.04 -1.38,-0.28 1.52,-2.09 2.49,-4.7 3.6,-7.19 z m -1.1,5.53 c 0.93,0.18 1.12,-1.8 0.55,-2.21 -0.25,0.67 -0.65,1.19 -0.55,2.21 z"
   id="path223"
   inkscape:connector-curvature="0"
   style="clip-rule:evenodd;fill-rule:evenodd;fill:#ffffff;fill-opacity:1" />
</g>


</svg>